SplineFontDB: 3.0
FontName: Vazir-Bold
FullName: Vazir Bold
FamilyName: Vazir
Weight: Bold
Copyright: Copyright (c) 2003 by Bitstream, Inc. All Rights Reserved.\nDejaVu changes are in public domain\nChanges by Saber Rastikerdar are in public domain.
Version: 2-RC7
ItalicAngle: 0
UnderlinePosition: -100
UnderlineWidth: 100
Ascent: 1536
Descent: 512
InvalidEm: 0
LayerCount: 2
Layer: 0 1 "Back" 1
Layer: 1 1 "Fore" 0
XUID: [1021 502 1027637223 7976065]
UniqueID: 4242704
UseUniqueID: 1
FSType: 0
OS2Version: 1
OS2_WeightWidthSlopeOnly: 0
OS2_UseTypoMetrics: 1
CreationTime: 1431850356
ModificationTime: 1458104699
PfmFamily: 33
TTFWeight: 700
TTFWidth: 5
LineGap: 0
VLineGap: 0
Panose: 2 11 6 3 3 8 4 2 2 4
OS2TypoAscent: 2250
OS2TypoAOffset: 0
OS2TypoDescent: -750
OS2TypoDOffset: 0
OS2TypoLinegap: 0
OS2WinAscent: 2250
OS2WinAOffset: 0
OS2WinDescent: 750
OS2WinDOffset: 0
HheadAscent: 2250
HheadAOffset: 0
HheadDescent: -750
HheadDOffset: 0
OS2SubXSize: 1331
OS2SubYSize: 1433
OS2SubXOff: 0
OS2SubYOff: 286
OS2SupXSize: 1331
OS2SupYSize: 1433
OS2SupXOff: 0
OS2SupYOff: 983
OS2StrikeYSize: 102
OS2StrikeYPos: 530
OS2Vendor: 'PfEd'
OS2CodePages: 600001ff.dfff0000
Lookup: 1 0 0 "'case' Case-Sensitive Forms in Latin lookup 0" { "'case' Case-Sensitive Forms in Latin lookup 0 subtable"  } ['case' ('DFLT' <'dflt' > 'latn' <'CAT ' 'ESP ' 'GAL ' 'dflt' > ) ]
Lookup: 6 1 0 "'ccmp' Glyph Composition/Decomposition lookup 2" { "'ccmp' Glyph Composition/Decomposition lookup 2 subtable"  } ['ccmp' ('arab' <'KUR ' 'SND ' 'URD ' 'dflt' > 'hebr' <'dflt' > 'nko ' <'dflt' > ) ]
Lookup: 6 0 0 "'ccmp' Glyph Composition/Decomposition lookup 3" { "'ccmp' Glyph Composition/Decomposition lookup 3 subtable"  } ['ccmp' ('cyrl' <'MKD ' 'SRB ' 'dflt' > 'grek' <'dflt' > 'latn' <'ISM ' 'KSM ' 'LSM ' 'MOL ' 'NSM ' 'ROM ' 'SKS ' 'SSM ' 'dflt' > ) ]

StartChar: exclam
Encoding: 33 33 1
Width: 886
VWidth: 2286
GlyphClass: 2
Flags: W
LayerCount: 2
Fore
SplineSet
281.595703125 323.336914062 m 1,0,-1
 604.404296875 323.336914062 l 1,1,-1
 604.404296875 0 l 1,2,-1
 281.595703125 0 l 1,3,-1
 281.595703125 323.336914062 l 1,0,-1
303.008789062 1616.97265625 m 1,4,-1
 588.25390625 1616.97265625 l 1,5,-1
 588.25390625 901.684570312 l 1,6,-1
 565.543945312 496.55859375 l 1,7,-1
 326.848632812 496.55859375 l 1,8,-1
 302.99609375 902.043945312 l 1,9,-1
 303.008789062 1616.97265625 l 1,4,-1
EndSplineSet
EndChar

StartChar: parenleft
Encoding: 40 40 2
Width: 878
GlyphClass: 2
Flags: W
GlyphCompositionVertical: 3  uni239D%0,0,48,2968 uni239C%1,48,48,2999 uni239B%0,48,0,3009
LayerCount: 2
Fore
SplineSet
714 -270 m 5,0,-1
 475 -270 l 1,1,2
 322 -23 322 -23 249 199.5 c 128,-1,3
 176 422 176 422 176 641 c 256,4,5
 176 860 176 860 249.5 1084.5 c 128,-1,6
 323 1309 323 1309 475 1554 c 1,7,-1
 714 1554 l 5,8,9
 586 1317 586 1317 522 1090.5 c 132,-1,10
 458 864 458 864 458 643 c 260,11,12
 458 422 458 422 521.5 195 c 132,-1,13
 585 -32 585 -32 714 -270 c 5,0,-1
EndSplineSet
EndChar

StartChar: parenright
Encoding: 41 41 3
Width: 877
GlyphClass: 2
Flags: W
GlyphCompositionVertical: 3  uni23A0%0,0,48,2968 uni239F%1,48,48,2999 uni239E%0,48,0,3009
LayerCount: 2
Fore
SplineSet
164 -270 m 5,0,-1
 412 -270 l 1,1,2
 565 -23 565 -23 638 199.5 c 128,-1,3
 711 422 711 422 711 641 c 256,4,5
 711 860 711 860 637.5 1084.5 c 128,-1,6
 564 1309 564 1309 412 1554 c 1,7,-1
 164 1554 l 5,8,9
 292 1317 292 1317 356 1090.5 c 132,-1,10
 420 864 420 864 420 643 c 260,11,12
 420 422 420 422 356.5 195 c 132,-1,13
 293 -32 293 -32 164 -270 c 5,0,-1
EndSplineSet
EndChar

StartChar: period
Encoding: 46 46 4
Width: 744
VWidth: 2286
GlyphClass: 2
Flags: W
LayerCount: 2
Fore
SplineSet
210.381835938 323.336914062 m 1,0,-1
 533.19140625 323.336914062 l 1,1,-1
 533.19140625 0 l 1,2,-1
 210.381835938 0 l 1,3,-1
 210.381835938 323.336914062 l 1,0,-1
EndSplineSet
EndChar

StartChar: colon
Encoding: 58 58 5
Width: 800
VWidth: 2286
GlyphClass: 2
Flags: W
LayerCount: 2
Fore
SplineSet
238.381835938 993.096679688 m 1,0,-1
 561.19140625 993.096679688 l 1,1,-1
 561.19140625 669.759765625 l 1,2,-1
 238.381835938 669.759765625 l 1,3,-1
 238.381835938 993.096679688 l 1,0,-1
238.381835938 323.336914062 m 1,4,-1
 561.19140625 323.336914062 l 1,5,-1
 561.19140625 0 l 1,6,-1
 238.381835938 0 l 1,7,-1
 238.381835938 323.336914062 l 1,4,-1
EndSplineSet
EndChar

StartChar: afii57388
Encoding: 1548 1548 7
Width: 790
VWidth: 2293
GlyphClass: 2
Flags: W
LayerCount: 2
Fore
SplineSet
426.151367188 0 m 0,0,1
 353.444335938 0.849609375 353.444335938 0.849609375 304.559570312 40.4404296875 c 128,-1,2
 255.67578125 80.0302734375 255.67578125 80.0302734375 240.274414062 150.6171875 c 0,3,4
 226.40234375 214.9375 226.40234375 214.9375 250.098632812 317.567382812 c 0,5,6
 291.826171875 501.138671875 291.826171875 501.138671875 484.079101562 685.09765625 c 2,7,-1
 509.62890625 709.545898438 l 1,8,-1
 648.4296875 620.825195312 l 1,9,-1
 601.561523438 581.43359375 l 2,10,11
 545.40625 534.235351562 545.40625 534.235351562 512.184570312 477.021484375 c 128,-1,12
 478.962890625 419.807617188 478.962890625 419.807617188 466.90234375 350.227539062 c 1,13,14
 549.96875 339.954101562 549.96875 339.954101562 590.0703125 283.756835938 c 128,-1,15
 630.171875 227.559570312 630.171875 227.559570312 619.896484375 141.713867188 c 0,16,17
 611.560546875 72.0625 611.560546875 72.0625 558.891601562 36.03125 c 128,-1,18
 506.221679688 0 506.221679688 0 426.151367188 0 c 0,0,1
EndSplineSet
EndChar

StartChar: uni0615
Encoding: 1557 1557 8
Width: -27
VWidth: 2304
GlyphClass: 4
Flags: W
AnchorPoint: "Anchor-10" 557.519 1383.15 mark 0
AnchorPoint: "Anchor-9" 557.519 1383.15 mark 0
AnchorPoint: "Anchor-1" 569.519 2080.6 basemark 0
AnchorPoint: "Anchor-1" 557.519 1383.15 mark 0
LayerCount: 2
Fore
SplineSet
474.836914062 1530.54980469 m 1,0,-1
 574.0390625 1530.54980469 l 2,1,2
 660.237513606 1530.54980469 660.237513606 1530.54980469 713.122809335 1561.77490235 c 0,3,4
 768 1595 768 1595 768 1638 c 0,5,6
 768 1668 768 1668 744 1681 c 0,7,8
 701 1705 701 1705 635 1667 c 0,9,10
 562 1625 562 1625 474.836914062 1530.54980469 c 1,0,-1
846.700195312 1640.93164062 m 0,11,12
 847.000184408 1451.88378906 847.000184408 1451.88378906 600.02734375 1451.88378906 c 2,13,-1
 293.467773438 1451.88378906 l 1,14,-1
 293.467773438 1530.54980469 l 1,15,-1
 384.991210938 1530.54980469 l 1,16,-1
 384.991210938 1981.38769531 l 1,17,-1
 464.787109375 1980.38769531 l 1,18,-1
 464 1605 l 1,19,20
 561 1715 561 1715 647.014648438 1747.5234375 c 0,21,22
 717.794865592 1773.35384839 717.794865592 1773.35384839 766 1756 c 0,23,24
 847 1726 847 1726 846.700195312 1640.93164062 c 0,11,12
EndSplineSet
EndChar

StartChar: uni061B
Encoding: 1563 1563 9
Width: 779
VWidth: 2293
GlyphClass: 2
Flags: W
LayerCount: 2
Fore
SplineSet
251.381835938 323.336914062 m 1,0,-1
 574.19140625 323.336914062 l 1,1,-1
 574.19140625 0 l 1,2,-1
 251.381835938 0 l 1,3,-1
 251.381835938 323.336914062 l 1,0,-1
541.056640625 511.2421875 m 128,-1,5
 488.043945312 474.918945312 488.043945312 474.918945312 423.470703125 475.986328125 c 128,-1,6
 358.897460938 477.053710938 358.897460938 477.053710938 320.701171875 494.998046875 c 0,7,8
 177.91300024 562.073515137 177.91300024 562.073515137 231.270507812 793.76953125 c 0,9,10
 273.162109375 977.7890625 273.162109375 977.7890625 465.32421875 1161.38085938 c 2,11,-1
 490.551757812 1185.48339844 l 1,12,-1
 630.961914062 1098.14453125 l 1,13,-1
 584.278320312 1058.19628906 l 2,14,15
 472.286132812 962.361328125 472.286132812 962.361328125 448.166015625 826.001953125 c 1,16,17
 524.569335938 816.370117188 524.569335938 816.370117188 567.103515625 764.148925781 c 128,-1,18
 609.637695312 711.927734375 609.637695312 711.927734375 601.853515625 629.746582031 c 128,-1,4
 594.069335938 547.565429688 594.069335938 547.565429688 541.056640625 511.2421875 c 128,-1,5
EndSplineSet
EndChar

StartChar: uni061F
Encoding: 1567 1567 10
Width: 1183
VWidth: 2286
GlyphClass: 2
Flags: W
LayerCount: 2
Fore
SplineSet
490.381835938 323.336914062 m 1,0,-1
 813.19140625 323.336914062 l 1,1,-1
 813.19140625 0 l 1,2,-1
 490.381835938 0 l 1,3,-1
 490.381835938 323.336914062 l 1,0,-1
517.069335938 494.142578125 m 1,4,-1
 517.069335938 578.841796875 l 2,5,6
 517.436523438 687.848632812 517.436523438 687.848632812 499.454101562 721.525390625 c 0,7,8
 496.913085938 726.284179688 496.913085938 726.284179688 493.499023438 731.657226562 c 128,-1,9
 490.084960938 737.030273438 490.084960938 737.030273438 485.67578125 743.155273438 c 128,-1,10
 481.266601562 749.280273438 481.266601562 749.280273438 476.041015625 755.896484375 c 128,-1,11
 470.815429688 762.51171875 470.815429688 762.51171875 464.533203125 769.85546875 c 128,-1,12
 458.250976562 777.200195312 458.250976562 777.200195312 451.216796875 784.903320312 c 128,-1,13
 444.18359375 792.607421875 444.18359375 792.607421875 436.03125 801.016601562 c 128,-1,14
 427.87890625 809.42578125 427.87890625 809.42578125 419.033203125 818.0703125 c 2,15,-1
 328.284179688 906.7578125 l 2,16,17
 231.251953125 999.907226562 231.251953125 999.907226562 191.206054688 1075.875 c 0,18,19
 149.354492188 1155.26757812 149.354492188 1155.26757812 149.409179688 1244.671875 c 0,20,21
 149.518554688 1423.609375 149.518554688 1423.609375 277.94140625 1535.51953125 c 0,22,23
 403.637695312 1645.05371094 403.637695312 1645.05371094 615.811523438 1645.16210938 c 0,24,25
 823.51171875 1645.26855469 823.51171875 1645.26855469 1024.55175781 1525.85253906 c 2,26,-1
 1055.6953125 1507.35351562 l 1,27,-1
 977.618164062 1272.30761719 l 1,28,-1
 928.821289062 1303.79492188 l 2,29,30
 905.46875 1318.86425781 905.46875 1318.86425781 872.397460938 1335.14941406 c 128,-1,31
 839.326171875 1351.43457031 839.326171875 1351.43457031 797.421875 1368.29785156 c 0,32,33
 691.737304688 1409.08300781 691.737304688 1409.08300781 618.236328125 1404.16699219 c 128,-1,34
 544.735351562 1399.25195312 544.735351562 1399.25195312 489.017578125 1352.03125 c 0,35,36
 434.80078125 1306.29492188 434.80078125 1306.29492188 434.80078125 1228.76757812 c 0,37,38
 434.819335938 1219.69335938 434.819335938 1219.69335938 436.162109375 1210.41894531 c 128,-1,39
 437.50390625 1201.14453125 437.50390625 1201.14453125 440.26171875 1191.26757812 c 128,-1,40
 443.018554688 1181.39160156 443.018554688 1181.39160156 447.373046875 1171.17578125 c 128,-1,41
 451.727539062 1160.95996094 451.727539062 1160.95996094 457.625 1150.265625 c 128,-1,42
 463.522460938 1139.57128906 463.522460938 1139.57128906 471.30078125 1128.38085938 c 128,-1,43
 479.079101562 1117.19140625 479.079101562 1117.19140625 488.528320312 1105.64550781 c 128,-1,44
 497.978515625 1094.09960938 497.978515625 1094.09960938 509.591796875 1081.90234375 c 128,-1,45
 521.205078125 1069.70605469 521.205078125 1069.70605469 534.62890625 1057.25878906 c 2,46,-1
 627.72265625 965.19921875 l 2,47,48
 790.0078125 809.725585938 790.0078125 809.725585938 789.928710938 610.791992188 c 2,49,-1
 789.928710938 494.142578125 l 1,50,-1
 517.069335938 494.142578125 l 1,4,-1
EndSplineSet
EndChar

StartChar: uni0621
Encoding: 1569 1569 11
Width: 936
VWidth: 2438
GlyphClass: 2
Flags: W
AnchorPoint: "Anchor-7" 362.995 -225.737 basechar 0
AnchorPoint: "Anchor-10" 389.902 1373.84 basechar 0
LayerCount: 2
Fore
SplineSet
128.530273438 -17.2880859375 m 1,0,-1
 128.530273438 282.270507812 l 5,1,-1
 281.372070312 337.08984375 l 5,2,3
 97 420 97 420 97.72265625 634.520507812 c 4,4,5
 99 841 99 841 276.25 937.8046875 c 4,6,7
 454.291090967 1034.15753354 454.291090967 1034.15753354 694.322265625 966.748046875 c 6,8,-1
 727.155273438 957.52734375 l 5,9,-1
 727.155273438 719.3828125 l 5,10,-1
 673.436523438 729.991210938 l 6,11,12
 421 780 421 780 356.578125 692.78125 c 4,13,14
 339 669 339 669 339.4140625 625.491210938 c 4,15,16
 339.005253036 514.427128517 339.005253036 514.427128517 480.0703125 484.725585938 c 4,17,18
 625.664916979 454.070551937 625.664916979 454.070551937 772.176757812 534.5390625 c 6,19,-1
 838.83984375 571.15234375 l 5,20,-1
 838.83984375 256.34765625 l 1,21,-1
 128.530273438 -17.2880859375 l 1,0,-1
EndSplineSet
EndChar

StartChar: uni0627
Encoding: 1575 1575 17
Width: 561
VWidth: 2438
GlyphClass: 2
Flags: W
AnchorPoint: "Anchor-10" 279.532 1629.3 basechar 0
AnchorPoint: "Anchor-7" 282.827 -221.836 basechar 0
LayerCount: 2
Fore
SplineSet
159.939453125 1523.23046875 m 5,0,-1
 418.89453125 1523.23046875 l 5,1,-1
 418.89453125 0.607421875 l 1,2,-1
 159.939453125 0.607421875 l 1,3,-1
 159.939453125 1523.23046875 l 5,0,-1
EndSplineSet
Substitution2: "'fina' Terminal Forms in Arabic lookup 9 subtable" uniFE8E
EndChar

StartChar: uni062D
Encoding: 1581 1581 23
Width: 1386
VWidth: 2438
GlyphClass: 2
Flags: W
AnchorPoint: "Anchor-10" 521.889 1340.9 basechar 0
AnchorPoint: "Anchor-7" 456.367 -717.2 basechar 0
LayerCount: 2
Fore
SplineSet
1278.50976562 805 m 1,0,-1
 1266.54199219 522.180664062 l 1,1,-1
 1216.19238281 525.291015625 l 2,2,3
 1088 533 1088 533 967.405273438 515.588378906 c 0,4,5
 628 464 628 464 468.71484375 307.3828125 c 0,6,7
 348 190 348 190 348.107421875 36.69140625 c 0,8,9
 348 -85 348 -85 465.559570312 -165.012695312 c 128,-1,10
 583 -245 583 -245 840.290039062 -245.734375 c 0,11,12
 1028.29356356 -246.000415417 1028.29356356 -246.000415417 1176.59765625 -193.723632812 c 2,13,-1
 1221.62792969 -177.850585938 l 1,14,-1
 1288.49511719 -458.64453125 l 1,15,-1
 1251.97070312 -474.263671875 l 2,16,17
 1084 -546 1084 -546 808.073242188 -542.426757812 c 0,18,19
 452 -539 452 -539 274.344238281 -380.943359375 c 0,20,21
 97 -223 97 -223 98.017578125 38.650390625 c 0,22,23
 99 310 99 310 320.888671875 496.58984375 c 0,24,25
 496 644 496 644 766 703 c 1,26,27
 679 751 l 4,28,29
 635 778 635 778 596.762695312 792.799804688 c 0,30,31
 519 821 519 821 451.650390625 777.669921875 c 0,32,33
 379.393803663 732.247555207 379.393803663 732.247555207 317.26171875 650.43359375 c 2,34,-1
 290.76171875 615.5390625 l 1,35,-1
 93.2578125 757.384765625 l 1,36,-1
 123.325195312 794.446289062 l 2,37,38
 209 900 209 900 237.84765625 929.201171875 c 0,39,40
 366 1054 366 1054 535.249023438 1055.14453125 c 0,41,42
 635 1056 635 1056 770.943359375 969.576171875 c 0,43,44
 1000.36679425 823.766885155 1000.36679425 823.766885155 1230.4140625 808.245117188 c 2,45,-1
 1278.50976562 805 l 1,0,-1
EndSplineSet
Substitution2: "'fina' Terminal Forms in Arabic lookup 9 subtable" uniFEA2
Substitution2: "'medi' Medial Forms in Arabic lookup 11 subtable" uniFEA4
Substitution2: "'init' Initial Forms in Arabic lookup 13 subtable" uniFEA3
EndChar

StartChar: uni062F
Encoding: 1583 1583 25
Width: 1064
VWidth: 2438
GlyphClass: 2
Flags: W
AnchorPoint: "Anchor-10" 347.274 1265.12 basechar 0
AnchorPoint: "Anchor-7" 396.608 -234.523 basechar 0
LayerCount: 2
Fore
SplineSet
407.731445312 319.447265625 m 0,0,1
 703 319 703 319 703.705078125 424.295898438 c 0,2,3
 704 457 704 457 657.803710938 526.110351562 c 0,4,5
 558.108695407 675.836756408 558.108695407 675.836756408 339.234375 830.709960938 c 2,6,-1
 303.669921875 855.875 l 1,7,-1
 448.638671875 1075.48046875 l 1,8,-1
 486.70703125 1047.86816406 l 2,9,10
 967 699 967 699 966.74609375 389.72265625 c 0,11,12
 967 241 967 241 854 128 c 4,13,14
 728 2 728 2 483.076160957 1.8271484375 c 0,15,16
 243.845682035 2.00011157156 243.845682035 2.00011157156 134.018554688 23.4970703125 c 2,17,-1
 97.662109375 30.61328125 l 1,18,-1
 97.662109375 351.388671875 l 1,19,-1
 149.85546875 342.9375 l 2,20,21
 298 319 298 319 407.731445312 319.447265625 c 0,0,1
EndSplineSet
Substitution2: "'fina' Terminal Forms in Arabic lookup 9 subtable" uniFEAA
EndChar

StartChar: uni0631
Encoding: 1585 1585 27
Width: 884
VWidth: 2393
GlyphClass: 2
Flags: W
AnchorPoint: "Anchor-10" 502.335 933.338 basechar 0
AnchorPoint: "Anchor-7" 315.636 -648.411 basechar 0
LayerCount: 2
Fore
SplineSet
451.995117188 579.118164062 m 5,0,-1
 692.728515625 672.911132812 l 5,1,-1
 709.78125 632.6796875 l 6,2,3
 788 448 788 448 786.482421875 231.440429688 c 132,-1,4
 785 15 785 15 704.19921875 -128.78125 c 4,5,6
 543.161132812 -415.711914062 543.161132812 -415.711914062 87.5390625 -463.80859375 c 6,7,-1
 45.9462890625 -468.19921875 l 5,8,-1
 0.0859375 -155.715820312 l 5,9,-1
 49.1220703125 -151.360351562 l 6,10,11
 297 -129 297 -129 412.732421875 -25.9697265625 c 4,12,13
 529 77 529 77 529.37890625 239.326171875 c 4,14,15
 530.000976562 409.171875 530.000976562 409.171875 471.904296875 535.743164062 c 6,16,-1
 451.995117188 579.118164062 l 5,0,-1
EndSplineSet
PairPos2: "'kern' Horizontal Kerning lookup 15-1" uniFEE7 dx=-150 dy=0 dh=-150 dv=0 dx=0 dy=0 dh=0 dv=0
PairPos2: "'kern' Horizontal Kerning lookup 15-2" uniFB90 dx=-190 dy=0 dh=-190 dv=0 dx=0 dy=0 dh=0 dv=0
PairPos2: "'kern' Horizontal Kerning lookup 15-2" uniFB8E dx=-190 dy=0 dh=-190 dv=0 dx=0 dy=0 dh=0 dv=0
PairPos2: "'kern' Horizontal Kerning lookup 15-2" uni06A9 dx=-190 dy=0 dh=-190 dv=0 dx=0 dy=0 dh=0 dv=0
PairPos2: "'kern' Horizontal Kerning lookup 15-2" uni064A dx=-50 dy=0 dh=-50 dv=0 dx=0 dy=0 dh=0 dv=0
PairPos2: "'kern' Horizontal Kerning lookup 15-2" afii57414 dx=-50 dy=0 dh=-50 dv=0 dx=0 dy=0 dh=0 dv=0
PairPos2: "'kern' Horizontal Kerning lookup 15-2" uni0649 dx=-50 dy=0 dh=-50 dv=0 dx=0 dy=0 dh=0 dv=0
PairPos2: "'kern' Horizontal Kerning lookup 15-2" uniFEEB dx=-150 dy=0 dh=-150 dv=0 dx=0 dy=0 dh=0 dv=0
PairPos2: "'kern' Horizontal Kerning lookup 15-2" uni0647 dx=-150 dy=0 dh=-150 dv=0 dx=0 dy=0 dh=0 dv=0
PairPos2: "'kern' Horizontal Kerning lookup 15-2" uni0646 dx=-50 dy=0 dh=-50 dv=0 dx=0 dy=0 dh=0 dv=0
PairPos2: "'kern' Horizontal Kerning lookup 15-2" uniFEE3 dx=-150 dy=0 dh=-150 dv=0 dx=0 dy=0 dh=0 dv=0
PairPos2: "'kern' Horizontal Kerning lookup 15-2" uni0645 dx=-150 dy=0 dh=-150 dv=0 dx=0 dy=0 dh=0 dv=0
PairPos2: "'kern' Horizontal Kerning lookup 15-2" uniFEFB dx=-120 dy=0 dh=-120 dv=0 dx=0 dy=0 dh=0 dv=0
PairPos2: "'kern' Horizontal Kerning lookup 15-2" uniFEDF dx=-120 dy=0 dh=-120 dv=0 dx=0 dy=0 dh=0 dv=0
PairPos2: "'kern' Horizontal Kerning lookup 15-2" uni0644 dx=-50 dy=0 dh=-50 dv=0 dx=0 dy=0 dh=0 dv=0
PairPos2: "'kern' Horizontal Kerning lookup 15-2" uniFEDB dx=-190 dy=0 dh=-190 dv=0 dx=0 dy=0 dh=0 dv=0
PairPos2: "'kern' Horizontal Kerning lookup 15-2" uni0643 dx=-120 dy=0 dh=-120 dv=0 dx=0 dy=0 dh=0 dv=0
PairPos2: "'kern' Horizontal Kerning lookup 15-2" uniFED7 dx=-150 dy=0 dh=-150 dv=0 dx=0 dy=0 dh=0 dv=0
PairPos2: "'kern' Horizontal Kerning lookup 15-2" uni0642 dx=-50 dy=0 dh=-50 dv=0 dx=0 dy=0 dh=0 dv=0
PairPos2: "'kern' Horizontal Kerning lookup 15-2" uniFED3 dx=-150 dy=0 dh=-150 dv=0 dx=0 dy=0 dh=0 dv=0
PairPos2: "'kern' Horizontal Kerning lookup 15-2" uni0641 dx=-150 dy=0 dh=-150 dv=0 dx=0 dy=0 dh=0 dv=0
PairPos2: "'kern' Horizontal Kerning lookup 15-2" uniFECF dx=-150 dy=0 dh=-150 dv=0 dx=0 dy=0 dh=0 dv=0
PairPos2: "'kern' Horizontal Kerning lookup 15-2" uniFECB dx=-150 dy=0 dh=-150 dv=0 dx=0 dy=0 dh=0 dv=0
PairPos2: "'kern' Horizontal Kerning lookup 15-2" uniFEC7 dx=-150 dy=0 dh=-150 dv=0 dx=0 dy=0 dh=0 dv=0
PairPos2: "'kern' Horizontal Kerning lookup 15-2" uni0638 dx=-150 dy=0 dh=-150 dv=0 dx=0 dy=0 dh=0 dv=0
PairPos2: "'kern' Horizontal Kerning lookup 15-2" uniFEC3 dx=-150 dy=0 dh=-150 dv=0 dx=0 dy=0 dh=0 dv=0
PairPos2: "'kern' Horizontal Kerning lookup 15-2" uni0637 dx=-150 dy=0 dh=-150 dv=0 dx=0 dy=0 dh=0 dv=0
PairPos2: "'kern' Horizontal Kerning lookup 15-2" uniFEBF dx=-150 dy=0 dh=-150 dv=0 dx=0 dy=0 dh=0 dv=0
PairPos2: "'kern' Horizontal Kerning lookup 15-2" uni0636 dx=-150 dy=0 dh=-150 dv=0 dx=0 dy=0 dh=0 dv=0
PairPos2: "'kern' Horizontal Kerning lookup 15-2" uniFEBB dx=-150 dy=0 dh=-150 dv=0 dx=0 dy=0 dh=0 dv=0
PairPos2: "'kern' Horizontal Kerning lookup 15-2" uni0635 dx=-150 dy=0 dh=-150 dv=0 dx=0 dy=0 dh=0 dv=0
PairPos2: "'kern' Horizontal Kerning lookup 15-2" uniFEB7 dx=-150 dy=0 dh=-150 dv=0 dx=0 dy=0 dh=0 dv=0
PairPos2: "'kern' Horizontal Kerning lookup 15-2" uni0634 dx=-150 dy=0 dh=-150 dv=0 dx=0 dy=0 dh=0 dv=0
PairPos2: "'kern' Horizontal Kerning lookup 15-2" uniFEB3 dx=-150 dy=0 dh=-150 dv=0 dx=0 dy=0 dh=0 dv=0
PairPos2: "'kern' Horizontal Kerning lookup 15-2" uni0633 dx=-150 dy=0 dh=-150 dv=0 dx=0 dy=0 dh=0 dv=0
PairPos2: "'kern' Horizontal Kerning lookup 15-2" uni0630 dx=-150 dy=0 dh=-150 dv=0 dx=0 dy=0 dh=0 dv=0
PairPos2: "'kern' Horizontal Kerning lookup 15-2" uni062F dx=-150 dy=0 dh=-150 dv=0 dx=0 dy=0 dh=0 dv=0
PairPos2: "'kern' Horizontal Kerning lookup 15-2" uniFEA7 dx=-150 dy=0 dh=-150 dv=0 dx=0 dy=0 dh=0 dv=0
PairPos2: "'kern' Horizontal Kerning lookup 15-2" uniFEA3 dx=-150 dy=0 dh=-150 dv=0 dx=0 dy=0 dh=0 dv=0
PairPos2: "'kern' Horizontal Kerning lookup 15-2" uniFE9F dx=-150 dy=0 dh=-150 dv=0 dx=0 dy=0 dh=0 dv=0
PairPos2: "'kern' Horizontal Kerning lookup 15-2" uniFE9B dx=-150 dy=0 dh=-150 dv=0 dx=0 dy=0 dh=0 dv=0
PairPos2: "'kern' Horizontal Kerning lookup 15-2" uni062B dx=-150 dy=0 dh=-150 dv=0 dx=0 dy=0 dh=0 dv=0
PairPos2: "'kern' Horizontal Kerning lookup 15-2" uniFE97 dx=-150 dy=0 dh=-150 dv=0 dx=0 dy=0 dh=0 dv=0
PairPos2: "'kern' Horizontal Kerning lookup 15-2" uni062A dx=-150 dy=0 dh=-150 dv=0 dx=0 dy=0 dh=0 dv=0
PairPos2: "'kern' Horizontal Kerning lookup 15-2" uni0629 dx=-150 dy=0 dh=-150 dv=0 dx=0 dy=0 dh=0 dv=0
PairPos2: "'kern' Horizontal Kerning lookup 15-2" uniFE91 dx=-50 dy=0 dh=-50 dv=0 dx=0 dy=0 dh=0 dv=0
PairPos2: "'kern' Horizontal Kerning lookup 15-2" uni0628 dx=-150 dy=0 dh=-150 dv=0 dx=0 dy=0 dh=0 dv=0
PairPos2: "'kern' Horizontal Kerning lookup 15-2" uni0627 dx=-120 dy=0 dh=-120 dv=0 dx=0 dy=0 dh=0 dv=0
PairPos2: "'kern' Horizontal Kerning lookup 15-2" uni0623 dx=-120 dy=0 dh=-120 dv=0 dx=0 dy=0 dh=0 dv=0
PairPos2: "'kern' Horizontal Kerning lookup 15-2" uni0622 dx=-120 dy=0 dh=-120 dv=0 dx=0 dy=0 dh=0 dv=0
PairPos2: "'kern' Horizontal Kerning lookup 15-2" uni0621 dx=-150 dy=0 dh=-150 dv=0 dx=0 dy=0 dh=0 dv=0
PairPos2: "'kern' Horizontal Kerning lookup 15-2" uniFB94 dx=-190 dy=0 dh=-190 dv=0 dx=0 dy=0 dh=0 dv=0
PairPos2: "'kern' Horizontal Kerning lookup 15-2" uniFB92 dx=-190 dy=0 dh=-190 dv=0 dx=0 dy=0 dh=0 dv=0
PairPos2: "'kern' Horizontal Kerning lookup 15-2" afii57509 dx=-190 dy=0 dh=-190 dv=0 dx=0 dy=0 dh=0 dv=0
PairPos2: "'kern' Horizontal Kerning lookup 15-2" afii57506 dx=-150 dy=0 dh=-150 dv=0 dx=0 dy=0 dh=0 dv=0
PairPos2: "'kern' Horizontal Kerning lookup 15-2" afii57440 dx=-150 dy=0 dh=-150 dv=0 dx=0 dy=0 dh=0 dv=0
PairPos2: "'kern' Horizontal Kerning lookup 15-2" uniFE8B dx=-150 dy=0 dh=-150 dv=0 dx=0 dy=0 dh=0 dv=0
Substitution2: "'fina' Terminal Forms in Arabic lookup 9 subtable" uniFEAE
EndChar

StartChar: uni0633
Encoding: 1587 1587 29
Width: 2639
VWidth: 2393
GlyphClass: 2
Flags: W
AnchorPoint: "Anchor-10" 636.938 972.991 basechar 0
AnchorPoint: "Anchor-7" 460.709 -689.993 basechar 0
LayerCount: 2
Fore
SplineSet
1598.95410156 0 m 0,0,1
 1506 0 1506 0 1439.99023438 29.56640625 c 1,2,3
 1383 -481 1383 -481 769.655273438 -479.9296875 c 0,4,5
 445 -479 445 -479 271.517578125 -322.110839844 c 0,6,7
 98 -165 98 -165 97.90234375 139.110351562 c 0,8,9
 97.9997176671 310.503051798 97.9997176671 310.503051798 177.30078125 541.672851562 c 2,10,-1
 190.262695312 579.458007812 l 1,11,-1
 443.373046875 525.083007812 l 1,12,-1
 427.197265625 477.267578125 l 2,13,14
 361 282 361 282 360.809570312 164.690429688 c 0,15,16
 360 -172 360 -172 777.319335938 -171.6796875 c 0,17,18
 1000 -172 1000 -172 1102.09375 -88.6650390625 c 0,19,20
 1204 -5 1204 -5 1204.07519531 168.896484375 c 0,21,22
 1203.99980749 295.322844235 1203.99980749 295.322844235 1138.59960938 550.486328125 c 2,23,-1
 1126.97167969 595.853515625 l 1,24,-1
 1376.6875 649.336914062 l 1,25,-1
 1385.328125 604.15234375 l 1,26,27
 1422.76757812 447.255859375 l 24,28,29
 1452 313 1452 313 1577.62304688 313.421875 c 0,30,31
 1665 314 1665 314 1691.84570312 326.337890625 c 0,32,33
 1748.06354526 353.030171346 1748.06354526 353.030171346 1757.18359375 420.328125 c 2,34,-1
 1789.96386719 662.217773438 l 1,35,-1
 1984.90332031 662.217773438 l 1,36,-1
 2014.53808594 444.513671875 l 2,37,38
 2025 370 2025 370 2049.328125 343.513671875 c 0,39,40
 2076 315 2076 315 2142.66894531 314.860351562 c 0,41,42
 2288 315 2288 315 2287.21679688 498.374023438 c 0,43,44
 2287.00099551 601.524157659 2287.00099551 601.524157659 2224.47265625 716.155273438 c 2,45,-1
 2200.08398438 760.866210938 l 1,46,-1
 2432.68554688 852.661132812 l 1,47,-1
 2452.37988281 820.2421875 l 2,48,49
 2536 683 2536 683 2542.125 456.767578125 c 0,50,51
 2549 230 2549 230 2393.37304688 91.97265625 c 0,52,53
 2290 -0 2290 -0 2123.56542969 0.001953125 c 128,-1,54
 1957 0 1957 0 1878.49902344 107.052734375 c 1,55,56
 1795 0 1795 0 1598.95410156 0 c 0,0,1
EndSplineSet
Substitution2: "'fina' Terminal Forms in Arabic lookup 9 subtable" uniFEB2
Substitution2: "'medi' Medial Forms in Arabic lookup 11 subtable" uniFEB4
Substitution2: "'init' Initial Forms in Arabic lookup 13 subtable" uniFEB3
EndChar

StartChar: uni0635
Encoding: 1589 1589 31
Width: 2579
VWidth: 2393
GlyphClass: 2
Flags: W
AnchorPoint: "Anchor-10" 654.816 972.991 basechar 0
AnchorPoint: "Anchor-7" 599.904 -695.235 basechar 0
LayerCount: 2
Fore
SplineSet
1440.23535156 419.120117188 m 1,0,1
 1786 911 1786 911 2094.13769531 911.103515625 c 0,2,3
 2285 911 2285 911 2384.12597656 798.004882812 c 0,4,5
 2484 683 2484 683 2481.40722656 475.659179688 c 0,6,7
 2477 192 2477 192 2270.83007812 81.00390625 c 0,8,9
 2118.81313882 -1.10092431522 2118.81313882 -1.10092431522 1752.98925781 -0.828125 c 2,10,-1
 1751.6796875 -0.8271484375 l 2,11,12
 1747.80943678 -0.879908324901 1747.80943678 -0.879908324901 1728.38476562 -0.7353515625 c 2,13,-1
 1629.44140625 0.0009765625 l 2,14,15
 1504 1 1504 1 1436.671875 51.06640625 c 1,16,17
 1411 -296 1411 -296 1122.78808594 -418.265625 c 0,18,19
 977 -480 977 -480 768.37109375 -479.950195312 c 0,20,21
 325 -480 325 -480 172.913085938 -197.165039062 c 0,22,23
 20.9912359139 86.0163362016 20.9912359139 86.0163362016 177.30078125 541.672851562 c 2,24,-1
 190.262695312 579.458007812 l 1,25,-1
 443.373046875 525.083007812 l 1,26,-1
 427.197265625 477.267578125 l 2,27,28
 361 282 361 282 360.809570312 164.70703125 c 0,29,30
 360 -172 360 -172 778.26953125 -171.680664062 c 0,31,32
 1002 -172 1002 -172 1103.28027344 -88.7265625 c 0,33,34
 1205 -6 1205 -6 1204.04101562 172.244140625 c 0,35,36
 1202.99793098 302.25788963 1202.99793098 302.25788963 1138.64160156 550.362304688 c 2,37,-1
 1126.84863281 595.826171875 l 1,38,-1
 1379.15332031 649.864257812 l 1,39,-1
 1389.54980469 601.567382812 l 2,40,41
 1424 442 1424 442 1440.23535156 419.120117188 c 1,0,1
1664.92773438 320.618164062 m 5,42,-1
 1784.31347656 320.618164062 l 2,43,44
 1940 321 1940 321 2038.16210938 329.087890625 c 0,45,46
 2223 345 2223 345 2222.71289062 476.553710938 c 0,47,48
 2223 645 2223 645 2095.17089844 644.971679688 c 0,49,50
 1926 645 1926 645 1664.92773438 320.618164062 c 5,42,-1
EndSplineSet
Substitution2: "'fina' Terminal Forms in Arabic lookup 9 subtable" uniFEBA
Substitution2: "'medi' Medial Forms in Arabic lookup 11 subtable" uniFEBC
Substitution2: "'init' Initial Forms in Arabic lookup 13 subtable" uniFEBB
EndChar

StartChar: uni0637
Encoding: 1591 1591 33
Width: 1498
VWidth: 2393
GlyphClass: 2
Flags: W
AnchorPoint: "Anchor-10" 473.599 1701.85 basechar 0
AnchorPoint: "Anchor-7" 651.982 -267.158 basechar 0
LayerCount: 2
Fore
SplineSet
583.657226562 320.35546875 m 1,0,-1
 703.04296875 320.35546875 l 2,1,2
 862.610351562 320.768554688 862.610351562 320.768554688 956.891601562 328.825195312 c 0,3,4
 1141.24414062 344.577148438 1141.24414062 344.577148438 1141.44238281 476.291015625 c 0,5,6
 1141.69726562 644.711914062 1141.69726562 644.711914062 1013.90039062 644.708984375 c 0,7,8
 844.34765625 644.703125 844.34765625 644.703125 583.657226562 320.35546875 c 1,0,-1
577.616210938 688.884765625 m 1,9,10
 802 908 802 908 1004.22949219 906.723632812 c 0,11,12
 1206 905 1206 905 1305 792.5 c 0,13,14
 1403 681 1403 681 1400.14746094 475.108398438 c 0,15,16
 1396 185 1396 185 1197.578125 78.412109375 c 0,17,18
 1037 -8 1037 -8 671.4140625 -0.08984375 c 0,19,20
 667 0 667 0 662.5 0 c 2,21,-1
 97.7392578125 0 l 1,22,-1
 97.7392578125 320.102539062 l 1,23,-1
 273.529296875 320.248046875 l 1,24,25
 295 355 295 355 318.662109375 389.032226562 c 1,26,-1
 318.662109375 1523.81542969 l 1,27,-1
 577.616210938 1523.81542969 l 1,28,-1
 577.616210938 688.884765625 l 1,9,10
EndSplineSet
Substitution2: "'fina' Terminal Forms in Arabic lookup 9 subtable" uniFEC2
Substitution2: "'medi' Medial Forms in Arabic lookup 11 subtable" uniFEC4
Substitution2: "'init' Initial Forms in Arabic lookup 13 subtable" uniFEC3
EndChar

StartChar: uni0639
Encoding: 1593 1593 35
Width: 1344
VWidth: 2438
GlyphClass: 2
Flags: W
AnchorPoint: "Anchor-10" 512.555 1519.15 basechar 0
AnchorPoint: "Anchor-7" 410.631 -745.218 basechar 0
LayerCount: 2
Fore
SplineSet
347.174804688 28.38671875 m 0,0,1
 347 -247 347 -247 838.5 -247 c 0,2,3
 1028.48959998 -247 1028.48959998 -247 1142.83300781 -207.751953125 c 2,4,-1
 1187.62011719 -192.37890625 l 1,5,-1
 1254.6171875 -473.620117188 l 1,6,-1
 1216.95800781 -488.774414062 l 2,7,8
 1080 -544 1080 -544 803.60546875 -543.674804688 c 0,9,10
 346 -543 346 -543 177.491210938 -268.513671875 c 0,11,12
 98 -139 98 -139 97.97265625 32.369140625 c 0,13,14
 99 358 99 358 383.747070312 556.526367188 c 1,15,16
 286 617 286 617 240.013671875 716.841796875 c 0,17,18
 212 778 212 778 210.927734375 846.9921875 c 0,19,20
 209 1081 209 1081 386.293945312 1194.1328125 c 0,21,22
 637 1353 637 1353 988.534179688 1176.02929688 c 1,23,-1
 922.380859375 951.348632812 l 1,24,25
 756 1028 756 1028 636.811523438 1021.38037109 c 0,26,27
 546 1016 546 1016 503.340820312 979.490234375 c 0,28,29
 461 943 461 943 461.157714844 882.079101562 c 0,30,31
 461 821 461 821 498.194335938 775.856445312 c 0,32,33
 523 746 523 746 616.340820312 693.973632812 c 1,34,35
 809.74010902 759.911392492 809.74010902 759.911392492 1066.67382812 754.533203125 c 2,36,-1
 1109.26855469 753.641601562 l 1,37,-1
 1117.21679688 510.297851562 l 1,38,-1
 1071.46972656 509.513671875 l 2,39,40
 839 506 839 506 679.876953125 437.006835938 c 4,41,42
 547 380 547 380 480.416015625 316.86328125 c 0,43,44
 347 190 347 190 347.174804688 28.38671875 c 0,0,1
EndSplineSet
Substitution2: "'fina' Terminal Forms in Arabic lookup 9 subtable" uniFECA
Substitution2: "'medi' Medial Forms in Arabic lookup 11 subtable" uniFECC
Substitution2: "'init' Initial Forms in Arabic lookup 13 subtable" uniFECB
EndChar

StartChar: afii57440
Encoding: 1600 1600 37
Width: 676
VWidth: 2438
GlyphClass: 2
Flags: W
AnchorPoint: "Anchor-10" 343.175 1443.04 basechar 0
AnchorPoint: "Anchor-7" 343.175 -84.6133 basechar 0
LayerCount: 2
Fore
SplineSet
-11.42578125 0 m 1,0,-1
 -11.42578125 272.2421875 l 1,1,-1
 686.775390625 272.2421875 l 5,2,-1
 686.775390625 0 l 1,3,-1
 -11.42578125 0 l 1,0,-1
EndSplineSet
EndChar

StartChar: uni0643
Encoding: 1603 1603 40
Width: 1999
VWidth: 2438
GlyphClass: 2
Flags: W
AnchorPoint: "Anchor-10" 693.485 1482.58 basechar 0
AnchorPoint: "Anchor-7" 594.645 -228.483 basechar 0
LayerCount: 2
Fore
SplineSet
799.956054688 875.872070312 m 2,0,1
 862.974609375 867.684570312 862.974609375 867.684570312 921.211602833 867.684570312 c 128,-1,2
 979.44859629 867.684570312 979.44859629 867.684570312 1034.6969544 889.122070312 c 128,-1,3
 1089.9453125 910.559570312 1089.9453125 910.559570312 1089.9453125 940.339629949 c 128,-1,4
 1089.9453125 970.119689586 1089.9453125 970.119689586 1015.40917969 981.853790106 c 128,-1,5
 940.873046875 993.587890625 940.873046875 993.587890625 889.198015298 1050.213976 c 128,-1,6
 837.52298372 1106.84006138 837.52298372 1106.84006138 856.725782484 1196.32644067 c 0,7,8
 892.763691586 1364.26560634 892.763691586 1364.26560634 1178.34863281 1383.54101562 c 2,9,-1
 1226.37890625 1386.78320312 l 1,10,-1
 1226.37890625 1243.1875 l 1,11,-1
 1184.75878906 1240.05273438 l 2,12,13
 1065.23535156 1231.05078125 1065.23535156 1231.05078125 1012.62402344 1186.55761719 c 0,14,15
 1000.75683594 1176.52138571 1000.75683594 1176.52138571 1000.75683594 1166.09565379 c 128,-1,16
 1000.75683594 1155.66992188 1000.75683594 1155.66992188 1002.18652344 1149.92871094 c 0,17,18
 1009.56407244 1120.3026108 1009.56407244 1120.3026108 1079.85137216 1109.96917649 c 128,-1,19
 1150.13867188 1099.63574219 1150.13867188 1099.63574219 1193.35449219 1062.53710938 c 128,-1,20
 1236.5703125 1025.43847656 1236.5703125 1025.43847656 1236.5703125 962.434082031 c 0,21,22
 1236.5703125 833.166357148 1236.5703125 833.166357148 1112.49316406 762.99968248 c 128,-1,23
 988.416015625 692.833007812 988.416015625 692.833007812 786.859375 725.96484375 c 2,24,-1
 749.158203125 732.162109375 l 1,25,-1
 749.158203125 882.471679688 l 1,26,-1
 799.956054688 875.872070312 l 2,0,1
367.26953125 616.55859375 m 0,27,28
 371 519 371 519 445.5 439 c 0,29,30
 547.736451529 329.282832506 547.736451529 329.282832506 918.5 318.5 c 4,31,32
 1119 312 1119 312 1273.42285156 328.224609375 c 0,33,34
 1587.17028035 361.017797869 1587.17028035 361.017797869 1603.23828125 514.33203125 c 2,35,-1
 1609.390625 573.03515625 l 1,36,-1
 1609.390625 1524.27050781 l 1,37,-1
 1866.7265625 1524.27050781 l 1,38,-1
 1866.7265625 490.111328125 l 1,39,40
 1868 354 1868 354 1820.81640625 276.4921875 c 0,41,42
 1683 52 1683 52 1291.99707031 13.52734375 c 0,43,44
 1166 1 1166 1 911 3 c 128,-1,45
 656 5 656 5 494.5 51.5 c 128,-1,46
 333 98 333 98 225.892970322 223.713284811 c 0,47,48
 119 349 119 349 99.0595703125 535.649414062 c 0,49,50
 85.0087257263 671.915377364 85.0087257263 671.915377364 138.439453125 823.258789062 c 2,51,-1
 151.389648438 859.940429688 l 1,52,-1
 400.790039062 810.881835938 l 1,53,54
 364 705 364 705 367.26953125 616.55859375 c 0,27,28
EndSplineSet
Substitution2: "'fina' Terminal Forms in Arabic lookup 9 subtable" uniFEDA
Substitution2: "'medi' Medial Forms in Arabic lookup 11 subtable" uniFEDC
Substitution2: "'init' Initial Forms in Arabic lookup 13 subtable" uniFEDB
EndChar

StartChar: uni0644
Encoding: 1604 1604 41
Width: 1456
VWidth: 2438
GlyphClass: 2
Flags: W
AnchorPoint: "Anchor-10" 517.778 1217.9 basechar 0
AnchorPoint: "Anchor-7" 482.788 -524.038 basechar 0
LayerCount: 2
Fore
SplineSet
1062.55175781 267.3515625 m 4,0,1
 1060.74462541 510.864263542 1060.74462541 510.864263542 1065.19042969 533.678710938 c 2,2,-1
 1065.19042969 1523.19140625 l 1,3,-1
 1323.04589844 1523.19140625 l 1,4,-1
 1323.04589844 533.533203125 l 2,5,6
 1323 340 1323 340 1320.421875 248.555664062 c 0,7,8
 1312 -41 1312 -41 1161 -208.5 c 128,-1,9
 1010 -376 1010 -376 725 -376 c 128,-1,10
 440 -376 440 -376 269 -227 c 128,-1,11
 98 -78 98 -78 97.9619140625 212.107421875 c 0,12,13
 98.0000245694 359.094761171 98.0000245694 359.094761171 148.368164062 490.505859375 c 2,14,-1
 162.04296875 526.18359375 l 1,15,-1
 404.520507812 476.23828125 l 1,16,-1
 390.936523438 429.447265625 l 2,17,18
 354 302 354 302 353.930664062 228.36328125 c 4,19,20
 354 95 354 95 442 13.5 c 132,-1,21
 530 -68 530 -68 710 -68 c 4,22,23
 881 -68 881 -68 972 12.5 c 4,24,25
 1068 98 1068 98 1062.55175781 267.3515625 c 4,0,1
EndSplineSet
Substitution2: "'fina' Terminal Forms in Arabic lookup 9 subtable" uniFEDE
Substitution2: "'medi' Medial Forms in Arabic lookup 11 subtable" uniFEE0
Substitution2: "'init' Initial Forms in Arabic lookup 13 subtable" uniFEDF
EndChar

StartChar: uni0645
Encoding: 1605 1605 42
Width: 1203
VWidth: 2393
GlyphClass: 2
Flags: W
AnchorPoint: "Anchor-10" 636.078 1135.98 basechar 0
AnchorPoint: "Anchor-7" 225.936 -591.918 basechar 0
LayerCount: 2
Fore
SplineSet
852.701171875 548.03125 m 0,0,1
 783 697 783 697 665.458984375 696.333984375 c 0,2,3
 566.436522464 696.020384209 566.436522464 696.020384209 560.040039062 556.498046875 c 0,4,5
 558 512 558 512 559.021484375 466.943359375 c 1,6,7
 836 428 836 428 870.368164062 471.231445312 c 0,8,9
 882 486 882 486 852.701171875 548.03125 c 0,0,1
97.7392578125 -9.26171875 m 6,10,11
 97.7392578125 379.913276922 97.7392578125 379.913276922 308.209960938 449.916015625 c 1,12,13
 311 755 311 755 445.470703125 872.935546875 c 0,14,15
 531 948 531 948 646.813476562 947.447265625 c 0,16,17
 807 948 807 948 919.166015625 852.844726562 c 0,18,19
 1031 758 1031 758 1084.19238281 594.80859375 c 0,20,21
 1137 432 1137 432 1064.4609375 305.34375 c 0,22,23
 971 143 971 143 891.46484375 137.154296875 c 0,24,25
 860 135 860 135 520.364257812 148.642578125 c 0,26,27
 410 153 410 153 386.962890625 118.333984375 c 0,28,29
 355.727539062 69.5539224372 355.727539062 69.5539224372 355.727539062 -101.63671875 c 2,30,-1
 355.727539062 -509.821289062 l 1,31,-1
 97.7392578125 -509.821289062 l 1,32,-1
 97.7392578125 -9.26171875 l 6,10,11
EndSplineSet
Substitution2: "'init' Initial Forms in Arabic lookup 13 subtable" uniFEE3
Substitution2: "'medi' Medial Forms in Arabic lookup 11 subtable" uniFEE4
Substitution2: "'fina' Terminal Forms in Arabic lookup 9 subtable" uniFEE2
EndChar

StartChar: uni0647
Encoding: 1607 1607 44
Width: 1064
VWidth: 2438
GlyphClass: 2
Flags: W
AnchorPoint: "Anchor-10" 466.621 1333.85 basechar 0
AnchorPoint: "Anchor-7" 383.632 -226.353 basechar 0
LayerCount: 2
Fore
SplineSet
528.740234375 695.887695312 m 5,0,1
 366 545 366 545 365.612304688 440.571289062 c 4,2,3
 366 301 366 301 531.553710938 298.89453125 c 28,4,5
 698 297 698 297 698.15234375 429.28125 c 4,6,7
 698 551 698 551 528.740234375 695.887695312 c 5,0,1
97.962890625 418.350585938 m 4,8,9
 98 573 98 573 269.374023438 779.283203125 c 5,10,-1
 350.678710938 871.483398438 l 5,11,-1
 294.692382812 918.6875 l 5,12,-1
 457.415039062 1103.52734375 l 5,13,-1
 490.928710938 1076.77441406 l 6,14,15
 794 835 794 835 899.57421875 628.083984375 c 4,16,17
 933 563 933 563 949.416015625 507.069335938 c 132,-1,18
 966 451 966 451 965.928710938 400.837890625 c 4,19,20
 967 173 967 173 788.951171875 63.73046875 c 0,21,22
 692 4 692 4 546.7109375 4.3994140625 c 0,23,24
 400 4 400 4 308.787109375 51.634765625 c 0,25,26
 195 110 195 110 146.040039062 201.969726562 c 0,27,28
 98 291 98 291 97.962890625 418.350585938 c 4,8,9
EndSplineSet
Substitution2: "'fina' Terminal Forms in Arabic lookup 9 subtable" uniFEEA
Substitution2: "'medi' Medial Forms in Arabic lookup 11 subtable" uniFEEC
Substitution2: "'init' Initial Forms in Arabic lookup 13 subtable" uniFEEB
EndChar

StartChar: uni0648
Encoding: 1608 1608 45
Width: 957
VWidth: 2438
GlyphClass: 2
Flags: W
AnchorPoint: "Anchor-10" 418.293 1176.9 basechar 0
AnchorPoint: "Anchor-7" 379.53 -632.771 basechar 0
LayerCount: 2
Fore
SplineSet
604.407226562 310.760742188 m 1,0,1
 597.55078125 595.16796875 597.55078125 595.16796875 486.799804688 595.522460938 c 0,2,3
 421.088867188 595.8671875 421.088867188 595.8671875 387.982421875 513.055664062 c 0,4,5
 314 328 314 328 466.703125 307.465820312 c 0,6,7
 516.373046875 301.161132812 516.373046875 301.161132812 604.407226562 310.760742188 c 1,0,1
792.727539062 649.974609375 m 0,8,9
 875 479 875 479 858.747070312 195.95703125 c 0,10,11
 841 -122 841 -122 655.263671875 -288.439453125 c 4,12,13
 491.588582649 -435.369326203 491.588582649 -435.369326203 164.314453125 -464.091796875 c 2,14,-1
 123.288085938 -467.692382812 l 1,15,-1
 78.3486328125 -157.063476562 l 1,16,-1
 126.83984375 -152.358398438 l 2,17,18
 503 -116 503 -116 567.013671875 4.7373046875 c 1,19,20
 510 -1 510 -1 469.288085938 -0.732421875 c 0,21,22
 271 1 271 1 177.059570312 137.791992188 c 0,23,24
 38 341 38 341 161.666992188 623.034179688 c 0,25,26
 274 879 274 879 478.483398438 878.953125 c 128,-1,27
 683 879 683 879 792.727539062 649.974609375 c 0,8,9
EndSplineSet
Substitution2: "'fina' Terminal Forms in Arabic lookup 9 subtable" uniFEEE
EndChar

StartChar: uni0649
Encoding: 1609 1609 46
Width: 1554
VWidth: 2438
GlyphClass: 2
Flags: W
AnchorPoint: "Anchor-10" 508.206 1119.7 basechar 0
AnchorPoint: "Anchor-7" 485.913 -599.935 basechar 0
LayerCount: 2
Fore
SplineSet
1048.16210938 -45.8310546875 m 0,0,1
 1198 18 1198 18 1196.42480469 67.892578125 c 0,2,3
 1196 84 1196 84 1152.78613281 85.173828125 c 0,4,5
 1110 86 1110 86 1053.83496094 91.2509765625 c 0,6,7
 907 105 907 105 830.139648438 200.35546875 c 0,8,9
 746 305 746 305 795.599609375 524.23046875 c 0,10,11
 838 713 838 713 992.106445312 821.78515625 c 0,12,13
 1130.84957559 920.892548406 1130.84957559 920.892548406 1371.82226562 906.938476562 c 6,14,-1
 1414.45507812 904.469726562 l 1,15,-1
 1394.37695312 611.31640625 l 1,16,-1
 1330.17480469 611.31640625 l 2,17,18
 1146 611 1146 611 1078.31445312 509.522460938 c 0,19,20
 1052 470 1052 470 1042 425.659179688 c 0,21,22
 1033 386 1033 386 1049.9296875 370.927734375 c 0,23,24
 1076 348 1076 348 1195.29589844 340.318359375 c 0,25,26
 1325 333 1325 333 1391.40234375 275.120117188 c 0,27,28
 1457 218 1457 218 1456.65429688 116.287109375 c 0,29,30
 1456 -91 1456 -91 1305.54003906 -226.947265625 c 0,31,32
 1109 -405 1109 -405 736.256835938 -398.994140625 c 0,33,34
 283 -392 283 -392 156.004882812 -90.7783203125 c 0,35,36
 103 34 103 34 102.702148438 196.641601562 c 0,37,38
 103.000304402 436.244622519 103.000304402 436.244622519 231.793945312 677.823242188 c 2,39,-1
 250.720703125 713.32421875 l 1,40,-1
 491.284179688 617.790039062 l 1,41,-1
 465.821289062 572.849609375 l 2,42,43
 341 352 341 352 367.98828125 166.626953125 c 0,44,45
 385 49 385 49 452.3984375 -9.19140625 c 0,46,47
 547 -91 547 -91 751.634765625 -90.3603515625 c 0,48,49
 943 -90 943 -90 1048.16210938 -45.8310546875 c 0,0,1
EndSplineSet
Substitution2: "'fina' Terminal Forms in Arabic lookup 9 subtable" uniFEF0
Substitution2: "'medi' Medial Forms in Arabic lookup 11 subtable" uniFBE9
Substitution2: "'init' Initial Forms in Arabic lookup 13 subtable" uniFBE8
EndChar

StartChar: uni064B
Encoding: 1611 1611 48
Width: -27
VWidth: 2304
GlyphClass: 4
Flags: W
AnchorPoint: "Anchor-10" 609.519 1111.82 mark 0
AnchorPoint: "Anchor-9" 609.519 1111.82 mark 0
AnchorPoint: "Anchor-1" 569.519 1660.78 basemark 0
AnchorPoint: "Anchor-1" 609.519 1111.82 mark 0
LayerCount: 2
Fore
SplineSet
302.015625 1058.01181702 m 1,0,-1
 302.015625 1172.7510716 l 1,1,-1
 805.6796875 1378.70301363 l 1,2,-1
 805.6796875 1263.96280149 l 1,3,-1
 302.015625 1058.01181702 l 1,0,-1
302.015625 1331.51572327 m 1,4,-1
 302.015625 1446.25497785 l 1,5,-1
 805.6796875 1652.20691988 l 1,6,-1
 805.6796875 1537.46670774 l 1,7,-1
 302.015625 1331.51572327 l 1,4,-1
EndSplineSet
EndChar

StartChar: uni064C
Encoding: 1612 1612 49
Width: -27
VWidth: 2304
GlyphClass: 4
Flags: W
AnchorPoint: "Anchor-10" 676.432 1216.14 mark 0
AnchorPoint: "Anchor-9" 676.432 1216.14 mark 0
AnchorPoint: "Anchor-1" 567.983 1908.35 basemark 0
AnchorPoint: "Anchor-1" 676.432 1216.14 mark 0
LayerCount: 2
Fore
SplineSet
652.655273437 1732.86425781 m 0,0,1
 569.463867188 1732.86425781 569.463867188 1732.86425781 569.463867188 1658.640625 c 0,2,3
 569.463867188 1604.83203125 569.463867188 1604.83203125 631.455078125 1580.03515625 c 0,4,5
 654.595973423 1570.77996279 654.595973423 1570.77996279 700.032226562 1556.78613281 c 1,6,-1
 713.090820312 1587.25292969 l 2,7,8
 724.69140625 1614.32226562 724.69140625 1614.32226562 724.69140625 1653.09667969 c 128,-1,9
 724.69140625 1691.87109375 724.69140625 1691.87109375 699.799316406 1712.36767578 c 128,-1,10
 674.907226562 1732.86425781 674.907226562 1732.86425781 652.655273437 1732.86425781 c 0,0,1
322.107421875 1515.49121094 m 1,11,12
 324.455667462 1290.57604303 324.455667462 1290.57604303 449.545331419 1291.76660156 c 0,13,14
 518 1292 518 1292 592.768554688 1364.57714844 c 0,15,16
 636.118126436 1406.1131846 636.118126436 1406.1131846 661.806640625 1457.5 c 2,17,-1
 672.059570312 1478.00976562 l 1,18,-1
 649.625 1482.76953125 l 2,19,20
 547 1504 547 1504 510.5 1554 c 128,-1,21
 474 1604 474 1604 474.5 1640 c 0,22,23
 475.662853297 1723.72543742 475.662853297 1723.72543742 509 1765 c 4,24,25
 553 1822 553 1822 635 1822 c 128,-1,26
 717 1822 717 1822 765 1775 c 128,-1,27
 813 1728 813 1728 813.52734375 1645.08105469 c 0,28,29
 813.997428752 1605.21804078 813.997428752 1605.21804078 800.791015625 1563.41113281 c 2,30,-1
 793.893554688 1541.57617188 l 1,31,-1
 816.765625 1540.37597656 l 2,32,33
 842 1539 842 1539 880.192382812 1538.27148438 c 1,34,-1
 880.192382812 1449.32617188 l 1,35,36
 838.775681949 1450.00366941 838.775681949 1450.00366941 823.913085938 1451.43261719 c 2,37,-1
 752.243164062 1458.32324219 l 1,38,39
 719 1380 719 1380 655.074213481 1314.56331625 c 128,-1,40
 591 1249 591 1249 543.5 1226 c 128,-1,41
 496 1203 496 1203 447.08203125 1202.93164062 c 0,42,43
 332 1203 332 1203 279 1347 c 0,44,45
 257 1407 257 1407 255.86328125 1515.49121094 c 1,46,-1
 322.107421875 1515.49121094 l 1,11,12
854.4921875 1539.21972656 m 2,47,-1
 854.388671875 1539.22558594 l 2,48,49
 854.440429688 1539.22265625 854.440429688 1539.22265625 854.4921875 1539.21972656 c 2,47,-1
EndSplineSet
EndChar

StartChar: uni064D
Encoding: 1613 1613 50
Width: -27
VWidth: 2304
GlyphClass: 4
Flags: W
AnchorPoint: "Anchor-7" 552.623 75.7275 mark 0
AnchorPoint: "Anchor-6" 552.623 75.7275 mark 0
AnchorPoint: "Anchor-0" 635.519 -468.112 basemark 0
AnchorPoint: "Anchor-0" 552.623 75.7275 mark 0
LayerCount: 2
Fore
SplineSet
307.295898438 -515.428599567 m 1,0,-1
 307.295898438 -400.688387431 l 1,1,-1
 810.959960938 -194.737402955 l 1,2,-1
 810.959960938 -309.47665754 l 1,3,-1
 307.295898438 -515.428599567 l 1,0,-1
307.295898438 -241.924693317 m 1,4,-1
 307.295898438 -127.184481181 l 1,5,-1
 810.959960938 78.7665032954 l 1,6,-1
 810.959960938 -35.9727512898 l 1,7,-1
 307.295898438 -241.924693317 l 1,4,-1
EndSplineSet
EndChar

StartChar: uni064E
Encoding: 1614 1614 51
Width: -27
VWidth: 2304
GlyphClass: 4
Flags: W
AnchorPoint: "Anchor-10" 577.839 1361.15 mark 0
AnchorPoint: "Anchor-9" 577.839 1361.15 mark 0
AnchorPoint: "Anchor-1" 537.839 1686.13 basemark 0
AnchorPoint: "Anchor-1" 577.839 1361.15 mark 0
LayerCount: 2
Fore
SplineSet
271.391601562 1330.45909574 m 1,0,-1
 271.391601562 1445.19931378 l 1,1,-1
 775.055664062 1651.15125582 l 1,2,-1
 775.055664062 1536.41103778 l 1,3,-1
 271.391601562 1330.45909574 l 1,0,-1
EndSplineSet
EndChar

StartChar: uni064F
Encoding: 1615 1615 52
Width: -27
VWidth: 2304
GlyphClass: 4
Flags: W
AnchorPoint: "Anchor-10" 615.623 1281.01 mark 0
AnchorPoint: "Anchor-9" 615.623 1281.01 mark 0
AnchorPoint: "Anchor-1" 546.519 1923.2 basemark 0
AnchorPoint: "Anchor-1" 615.623 1281.01 mark 0
LayerCount: 2
Fore
SplineSet
822.727539062 1464.22460938 m 1,0,1
 766 1465 766 1465 690.735351562 1473.01953125 c 1,2,3
 638 1399 638 1399 563.377929688 1352.99902344 c 0,4,5
 445 1279 445 1279 311 1274 c 1,6,-1
 311 1362.74121094 l 1,7,8
 469.98114436 1367.90966253 469.98114436 1367.90966253 569.69921875 1477.09472656 c 1,9,-1
 591.280273438 1499.82519531 l 1,10,-1
 560.689453125 1506.61621094 l 2,11,12
 554 1508 554 1508 515.5 1528 c 128,-1,13
 477 1548 477 1548 449 1586.5 c 128,-1,14
 421 1625 421 1625 420.904296875 1671.78222656 c 0,15,16
 421 1763 421 1763 491.776367188 1816.36425781 c 0,17,18
 519 1837 519 1837 589 1837 c 128,-1,19
 659 1837 659 1837 707.5 1789.5 c 128,-1,20
 756 1742 756 1742 756.0625 1659.92871094 c 0,21,22
 756 1626.25097656 756 1626.25097656 741.043945312 1578.18945312 c 2,23,-1
 734.313476562 1556.56152344 l 1,24,-1
 756.931640625 1555.22460938 l 2,25,26
 795 1553 795 1553 822.727539062 1553.02832031 c 1,27,-1
 822.727539062 1464.22460938 l 1,0,1
642.567382812 1571.63476562 m 1,28,-1
 655.625976562 1602.09960938 l 2,29,30
 667.227539062 1629.17382812 667.227539062 1629.17382812 667.227539062 1667.94628906 c 128,-1,31
 667.227539062 1706.71875 667.227539062 1706.71875 642.33203125 1727.21582031 c 128,-1,32
 617.435546875 1747.71191406 617.435546875 1747.71191406 587.264648438 1747.71191406 c 128,-1,33
 557.09375 1747.71191406 557.09375 1747.71191406 534.546875 1730.53710938 c 128,-1,34
 512 1713.36230469 512 1713.36230469 512 1666.52148438 c 128,-1,35
 512 1619.6796875 512 1619.6796875 573.990234375 1594.88183594 c 0,36,37
 597.16015625 1585.61523438 597.16015625 1585.61523438 642.567382812 1571.63476562 c 1,28,-1
EndSplineSet
EndChar

StartChar: uni0650
Encoding: 1616 1616 53
Width: -27
VWidth: 2304
GlyphClass: 4
Flags: W
AnchorPoint: "Anchor-7" 567.391 -16.2002 mark 0
AnchorPoint: "Anchor-6" 567.391 -16.2002 mark 0
AnchorPoint: "Anchor-0" 615.023 -326.944 basemark 0
AnchorPoint: "Anchor-0" 567.391 -16.2002 mark 0
LayerCount: 2
Fore
SplineSet
317.856445312 -352.804583874 m 1,0,-1
 317.856445312 -238.064361577 l 1,1,-1
 821.51953125 -32.1133848752 l 1,2,-1
 821.51953125 -146.853607173 l 1,3,-1
 317.856445312 -352.804583874 l 1,0,-1
EndSplineSet
EndChar

StartChar: uni0651
Encoding: 1617 1617 54
Width: -27
VWidth: 2304
GlyphClass: 4
Flags: W
AnchorPoint: "Anchor-10" 609.519 1390.22 mark 0
AnchorPoint: "Anchor-9" 609.519 1390.22 mark 0
AnchorPoint: "Anchor-1" 578.847 1840.34 basemark 0
AnchorPoint: "Anchor-1" 609.519 1390.22 mark 0
LayerCount: 2
Fore
SplineSet
577.407226562 1531.921875 m 1,0,1
 547 1367 547 1367 402.48400556 1366.87597656 c 0,2,3
 258 1367 258 1367 257.186523438 1552.89257812 c 0,4,5
 257 1590 257 1590 272.712890625 1693.63867188 c 1,6,-1
 347.826171875 1693.63867188 l 1,7,8
 335 1604 335 1604 335 1576 c 0,9,10
 335 1463 335 1463 414.949708912 1463.0777407 c 0,11,12
 525 1463 525 1463 530.60546875 1607.45214844 c 0,13,14
 532 1647 532 1647 531.875 1694.11621094 c 0,15,16
 532 1741 532 1741 531.86328125 1749.95605469 c 1,17,-1
 606.123046875 1749.95605469 l 1,18,19
 608 1714 608 1714 608.287109375 1665.99121094 c 0,20,21
 608.000414097 1525.20335128 608.000414097 1525.20335128 730.454841185 1525.40617962 c 2,22,-1
 731.086914062 1525.40722656 l 2,23,24
 805 1526 805 1526 805.22265625 1644.49707031 c 0,25,26
 806 1750 806 1750 794.323242188 1812.33496094 c 1,27,-1
 873.943359375 1812.33496094 l 1,28,29
 885 1733 885 1733 885 1639 c 0,30,31
 885 1486 885 1486 800.654296875 1449.91699219 c 0,32,33
 768 1436 768 1436 736 1435 c 0,34,35
 665 1432 665 1432 628 1459 c 0,36,37
 583 1492 583 1492 577.407226562 1531.921875 c 1,0,1
EndSplineSet
EndChar

StartChar: uni0652
Encoding: 1618 1618 55
Width: -27
VWidth: 2304
GlyphClass: 4
Flags: W
AnchorPoint: "Anchor-10" 588.527 1187.7 mark 0
AnchorPoint: "Anchor-9" 588.527 1187.7 mark 0
AnchorPoint: "Anchor-1" 573.743 1793.31 basemark 0
AnchorPoint: "Anchor-1" 588.527 1187.7 mark 0
LayerCount: 2
Fore
SplineSet
707.344726562 1457.10253906 m 0,0,1
 707.344726562 1505.78320312 707.344726562 1505.78320312 673.299804688 1539.828125 c 128,-1,2
 639.258789062 1573.87304688 639.258789062 1573.87304688 589.884765625 1573.87304688 c 0,3,4
 539.819335938 1573.87304688 539.819335938 1573.87304688 506.124023438 1540.17675781 c 128,-1,5
 472.427734375 1506.48046875 472.427734375 1506.48046875 472.427734375 1457.10253906 c 0,6,7
 472.427734375 1407.03808594 472.427734375 1407.03808594 506.124023438 1373.34277344 c 128,-1,8
 539.819335938 1339.64648438 539.819335938 1339.64648438 589.884765625 1339.64648438 c 0,9,10
 639.260742188 1339.64648438 639.260742188 1339.64648438 673.299804688 1373.69140625 c 128,-1,11
 707.344726562 1407.73535156 707.344726562 1407.73535156 707.344726562 1457.10253906 c 0,0,1
779.41796875 1457.21875 m 128,-1,13
 779.41796875 1377.71484375 779.41796875 1377.71484375 724.528320312 1322.47265625 c 128,-1,14
 669.673828125 1267.2734375 669.673828125 1267.2734375 590.212890625 1267.2734375 c 0,15,16
 563.655273438 1267.2734375 563.655273438 1267.2734375 539.920898438 1273.39550781 c 128,-1,17
 516.186523438 1279.51757812 516.186523438 1279.51757812 495.203125 1291.77636719 c 128,-1,18
 474.220703125 1304.03515625 474.220703125 1304.03515625 455.8984375 1322.47265625 c 0,19,20
 428.400390625 1350.14648438 428.400390625 1350.14648438 414.704101562 1383.76074219 c 128,-1,21
 401.006835938 1417.375 401.006835938 1417.375 401.006835938 1457.21875 c 0,22,23
 401.006835938 1536.6953125 401.006835938 1536.6953125 455.8671875 1591.56542969 c 128,-1,24
 510.7265625 1646.42480469 510.7265625 1646.42480469 590.212890625 1646.42480469 c 128,-1,25
 669.698242188 1646.42480469 669.698242188 1646.42480469 724.556640625 1591.56542969 c 128,-1,12
 779.41796875 1536.6953125 779.41796875 1536.6953125 779.41796875 1457.21875 c 128,-1,13
EndSplineSet
EndChar

StartChar: uni0653
Encoding: 1619 1619 56
Width: -28
VWidth: 2393
GlyphClass: 4
Flags: W
AnchorPoint: "Anchor-10" 412.188 1381.58 mark 0
AnchorPoint: "Anchor-9" 412.188 1381.58 mark 0
AnchorPoint: "Anchor-1" 412.188 1772.58 basemark 0
AnchorPoint: "Anchor-1" 412.188 1381.58 mark 0
LayerCount: 2
Fore
SplineSet
336.745117188 1444.66503906 m 2,0,1
 241.378121816 1455.01000873 241.378121816 1455.01000873 171.194335938 1367.69824219 c 2,2,-1
 155.288085938 1347.91015625 l 1,3,-1
 45.54296875 1465.57324219 l 5,4,-1
 53.6376953125 1477.54980469 l 6,5,6
 161.802459223 1637.70750478 161.802459223 1637.70750478 328.439453125 1614.16308594 c 6,7,-1
 494.1953125 1590.74316406 l 6,8,9
 618 1573 618 1573 713.430664062 1635.48046875 c 5,10,-1
 790 1499 l 1,11,12
 686.671564185 1406.70663985 686.671564185 1406.70663985 496.145507812 1427.37402344 c 2,13,-1
 336.745117188 1444.66503906 l 2,0,1
EndSplineSet
EndChar

StartChar: uni0657
Encoding: 1623 1623 59
Width: -27
VWidth: 2304
GlyphClass: 4
Flags: W
AnchorPoint: "Anchor-10" 569.519 1347.15 mark 0
AnchorPoint: "Anchor-9" 569.519 1347.15 mark 0
AnchorPoint: "Anchor-1" 569.519 2081.6 basemark 0
AnchorPoint: "Anchor-1" 569.519 1347.15 mark 0
LayerCount: 2
Fore
SplineSet
659.133789062 1603.78173828 m 0,0,1
 659 1430 659 1430 491.074544274 1431.54492188 c 0,2,3
 421 1432 421 1432 372.388183594 1478.93945313 c 0,4,5
 324 1526 324 1526 323.975585938 1608.16308594 c 0,6,7
 323.99979061 1641.70979344 323.99979061 1641.70979344 338.994140625 1689.90234375 c 2,8,-1
 345.723632812 1711.53125 l 1,9,-1
 323.10546875 1712.8671875 l 2,10,11
 287 1715 287 1715 257.310546875 1715.06347656 c 1,12,-1
 257.310546875 1803.8671875 l 1,13,14
 314 1803 314 1803 389.303710938 1795.07324219 c 1,15,16
 442 1870 442 1870 516.661132812 1915.09375 c 0,17,18
 698 2026 698 2026 785 2030.74121094 c 5,19,-1
 785 1942 l 5,20,21
 692 1939 692 1939 559.72265625 1835.68164062 c 0,22,23
 533 1815 533 1815 510.338867188 1790.99804688 c 2,24,-1
 488.760742188 1768.28125 l 1,25,-1
 519.344726562 1761.47558594 l 2,26,27
 528 1760 528 1760 565.211425781 1739.94873047 c 0,28,29
 603 1720 603 1720 631.176757812 1681.52148438 c 0,30,31
 659 1643 659 1643 659.133789062 1603.78173828 c 0,0,1
480.167480469 1520.38085938 m 0,32,33
 568.038085938 1520.38085938 568.038085938 1520.38085938 568.038085938 1594.60449219 c 0,34,35
 568.038085938 1648.41148902 568.038085938 1648.41148902 506.048828125 1673.20996094 c 0,36,37
 482.976628637 1682.4430983 482.976628637 1682.4430983 437.471679688 1696.45898438 c 1,38,-1
 424.413085938 1665.99316406 l 2,39,40
 412.810546875 1638.92285156 412.810546875 1638.92285156 412.810546875 1600.15429688 c 128,-1,41
 412.810546875 1561.38574219 412.810546875 1561.38574219 437.703125 1540.88330078 c 128,-1,42
 462.595703125 1520.38085938 462.595703125 1520.38085938 480.167480469 1520.38085938 c 0,32,33
EndSplineSet
EndChar

StartChar: uni065A
Encoding: 1626 1626 60
Width: 1129
VWidth: 2304
GlyphClass: 4
Flags: W
AnchorPoint: "Anchor-10" 569.519 1347.15 mark 0
AnchorPoint: "Anchor-9" 569.519 1347.15 mark 0
AnchorPoint: "Anchor-1" 567.259 1855.62 basemark 0
AnchorPoint: "Anchor-1" 569.519 1347.15 mark 0
LayerCount: 2
Fore
SplineSet
495.958007812 1434.93457031 m 1,0,-1
 296.83203125 1767.83300781 l 1,1,-1
 413.142578125 1767.83300781 l 1,2,-1
 569.518554688 1533.26269531 l 1,3,-1
 725.89453125 1767.83300781 l 1,4,-1
 842.206054688 1767.83300781 l 1,5,-1
 643.077148438 1434.93457031 l 1,6,-1
 495.958007812 1434.93457031 l 1,0,-1
EndSplineSet
EndChar

StartChar: afii57392
Encoding: 1632 1632 61
Width: 1047
VWidth: 2438
GlyphClass: 2
Flags: W
LayerCount: 2
Fore
SplineSet
424.85546875 614.932617188 m 4,0,1
 425 571 425 571 454.973144531 541.3125 c 0,2,3
 485 511 485 511 528.59375 511.1953125 c 4,4,5
 572 511 572 511 602.21484375 541.3125 c 0,6,7
 632 571 632 571 632.333007812 614.932617188 c 4,8,9
 632 658 632 658 602.213867188 688.553710938 c 4,10,11
 572 719 572 719 528.59375 718.671875 c 4,12,13
 485 719 485 719 454.973144531 688.553710938 c 128,-1,14
 425 658 425 658 424.85546875 614.932617188 c 4,0,1
215.997070312 612.5 m 0,15,16
 215.251953125 740.391601562 215.251953125 740.391601562 306.180664062 831.319335938 c 0,17,18
 397.445355823 922.586015169 397.445355823 922.586015169 524.99953338 922.585976335 c 128,-1,19
 652.553710938 922.5859375 652.553710938 922.5859375 743.819335938 831.319335938 c 128,-1,20
 835.086015169 740.054644177 835.086015169 740.054644177 835.085976335 612.50046662 c 128,-1,21
 835.0859375 484.946289062 835.0859375 484.946289062 743.819335938 393.680664062 c 128,-1,22
 652.553710938 302.4140625 652.553710938 302.4140625 525 302.4140625 c 128,-1,23
 397.446289062 302.4140625 397.446289062 302.4140625 306.349121094 393.511230469 c 128,-1,24
 215.251953125 484.608398438 215.251953125 484.608398438 215.997070312 612.5 c 0,15,16
EndSplineSet
EndChar

StartChar: afii57393
Encoding: 1633 1633 62
Width: 779
VWidth: 2438
GlyphClass: 2
Flags: W
LayerCount: 2
Fore
SplineSet
567.952148438 9.3349609375 m 1,0,-1
 309.4609375 9.3349609375 l 1,1,-1
 309.299804688 54.1728515625 l 2,2,3
 308 320 308 320 264.11328125 729.463867188 c 4,4,5
 219.887299528 1136.03606244 219.887299528 1136.03606244 114.223632812 1332.9765625 c 6,6,-1
 89.3212890625 1379.390625 l 5,7,-1
 327.275390625 1462.40429688 l 5,8,-1
 345.810546875 1429.80566406 l 6,9,10
 467 1217 467 1217 530.40625 662.30078125 c 4,11,12
 567.987826143 338.105017226 567.987826143 338.105017226 567.95703125 54.330078125 c 2,13,-1
 567.952148438 9.3349609375 l 1,0,-1
EndSplineSet
EndChar

StartChar: afii57394
Encoding: 1634 1634 63
Width: 1247
VWidth: 2438
GlyphClass: 2
Flags: W
LayerCount: 2
Fore
SplineSet
347.467773438 1464.03710938 m 1,0,-1
 437.025390625 1240.81640625 l 6,1,2
 475 1146 475 1146 530.751953125 1112.74316406 c 4,3,4
 596 1074 596 1074 711.317382812 1080.73144531 c 4,5,6
 826 1088 826 1088 864.107421875 1216.62109375 c 4,7,8
 882.800427123 1278.3410567 882.800427123 1278.3410567 880.149414062 1408.171875 c 2,9,-1
 879.208984375 1454.22851562 l 1,10,-1
 1138.40429688 1453.453125 l 1,11,-1
 1139.67089844 1409.89160156 l 2,12,13
 1153 935 1153 935 911.762695312 806.64453125 c 0,14,15
 831 764 831 764 727.576171875 762.427734375 c 128,-1,16
 624 761 624 761 552.732421875 777.793945312 c 1,17,18
 587 613 587 613 604.001953125 406.962402344 c 0,19,20
 623 173 623 173 614.8515625 9.3349609375 c 1,21,-1
 359.096679688 9.3349609375 l 1,22,23
 358 249 358 249 309.111328125 626.375 c 0,24,25
 259.951718224 1000.367314 259.951718224 1000.367314 111.985351562 1336.06152344 c 2,26,-1
 91.8486328125 1381.74609375 l 1,27,-1
 347.467773438 1464.03710938 l 1,0,-1
EndSplineSet
EndChar

StartChar: afii57395
Encoding: 1635 1635 64
Width: 1366
VWidth: 2438
GlyphClass: 2
Flags: W
LayerCount: 2
Fore
SplineSet
764.147460938 834.331054688 m 1,0,1
 684 768 684 768 551.389648438 767.481445312 c 1,2,3
 565 698 565 698 590.330078125 527.420898438 c 0,4,5
 616 354 616 354 617.590820312 9.3349609375 c 1,6,-1
 358.919921875 9.3349609375 l 1,7,-1
 358.788085938 54.203125 l 2,8,9
 358 227 358 227 316.526367188 594.826171875 c 0,10,11
 275.096484541 959.151535959 275.096484541 959.151535959 112.095703125 1336.02148438 c 2,12,-1
 92.587890625 1381.125 l 1,13,-1
 345.114257812 1464.88964844 l 1,14,-1
 429.791992188 1215.69433594 l 6,15,16
 468 1105 468 1105 521.993164062 1090.64355469 c 4,17,18
 544 1085 544 1085 566.727539062 1086.49316406 c 4,19,20
 627 1092 627 1092 630.296875 1172.35742188 c 4,21,22
 637.143742173 1346.65926861 637.143742173 1346.65926861 637.241210938 1357.515625 c 2,23,-1
 637.641601562 1402.11230469 l 1,24,-1
 871.458007812 1402.11230469 l 1,25,-1
 871.540039062 1357.19433594 l 2,26,27
 872 1176 872 1176 876.841796875 1144.76855469 c 4,28,29
 887 1085 887 1085 953.966796875 1088.52832031 c 4,30,31
 997 1091 997 1091 1011 1135 c 4,32,33
 1036.72868081 1212.18604244 1036.72868081 1212.18604244 1032.19921875 1408.08007812 c 2,34,-1
 1031.13574219 1454.07421875 l 1,35,-1
 1274.61621094 1454.31640625 l 1,36,-1
 1274.31835938 1408.97558594 l 2,37,38
 1272 1046 1272 1046 1208.8046875 912.8203125 c 0,39,40
 1137 763 1137 763 970.934570312 764.927734375 c 0,41,42
 843 766 843 766 764.147460938 834.331054688 c 1,0,1
EndSplineSet
EndChar

StartChar: afii57396
Encoding: 1636 1636 65
Width: 1073
VWidth: 2438
GlyphClass: 2
Flags: W
LayerCount: 2
Fore
SplineSet
107.015625 376.9296875 m 0,0,1
 100 580 100 580 383.984375 760.768554688 c 1,2,3
 180 848 180 848 183.173828125 1031.33105469 c 0,4,5
 190.993310742 1437.65240817 190.993310742 1437.65240817 723.208984375 1429.84570312 c 2,6,-1
 767.548828125 1429.1953125 l 1,7,-1
 767.548828125 1159.4765625 l 1,8,-1
 724.091796875 1157.98632812 l 2,9,10
 448 1149 448 1149 448 1036.44384766 c 128,-1,11
 448 923.887908219 448 923.887908219 755.567382812 923.127929688 c 2,12,-1
 799.83203125 923.018554688 l 1,13,-1
 802.952148438 670.141601562 l 1,14,15
 355 504 355 504 357.3515625 409.661132812 c 0,16,17
 359.005538535 324.715549616 359.005538535 324.715549616 617.927734375 325.599609375 c 6,18,-1
 964.291015625 326.782226562 l 5,19,-1
 967.3125 -0.046875 l 1,20,-1
 578.669921875 0.37890625 l 2,21,22
 261 1 261 1 155.797851562 187.123046875 c 0,23,24
 110 268 110 268 107.015625 376.9296875 c 0,0,1
EndSplineSet
EndChar

StartChar: afii57397
Encoding: 1637 1637 66
Width: 1278
VWidth: 2438
GlyphClass: 2
Flags: W
LayerCount: 2
Fore
SplineSet
620.008789062 963.112304688 m 1,0,1
 494 837 494 837 447.896484375 759.108398438 c 0,2,3
 375 637 375 637 374.938476562 574.426757812 c 0,4,5
 375 470 375 470 427.716796875 428.1640625 c 4,6,7
 504 366 504 366 668.471679688 370.290039062 c 0,8,9
 866 376 866 376 899.416015625 496.619140625 c 0,10,11
 933 617 933 617 813.686523438 776.717773438 c 0,12,13
 721 900 721 900 620.008789062 963.112304688 c 1,0,1
371.27734375 1144.63085938 m 1,14,-1
 513.900390625 1360.72460938 l 1,15,-1
 549.77734375 1342.33300781 l 2,16,17
 666 1283 666 1283 810.116210938 1158.15820312 c 0,18,19
 1171 843 1171 843 1170.96484375 513.543945312 c 0,20,21
 1171 321 1171 321 1064.8125 210.420898438 c 0,22,23
 922 60 922 60 644.65625 60.8994140625 c 0,24,25
 270 61 270 61 145.915039062 334.086914062 c 0,26,27
 107 420 107 420 107.227539062 504.25390625 c 0,28,29
 109 801 109 801 412.840820312 1118.86328125 c 1,30,-1
 371.27734375 1144.63085938 l 1,14,-1
EndSplineSet
EndChar

StartChar: afii57398
Encoding: 1638 1638 67
Width: 1291
VWidth: 2438
GlyphClass: 2
Flags: W
LayerCount: 2
Fore
SplineSet
746.174804688 1067.67871094 m 5,0,1
 434.290778961 997.065834532 434.290778961 997.065834532 92.736328125 1095.71386719 c 6,2,-1
 60.22265625 1105.10449219 l 5,3,-1
 60.22265625 1436.00097656 l 1,4,-1
 116.68359375 1421.13085938 l 2,5,6
 501.238307062 1319.93729074 501.238307062 1319.93729074 946.590820312 1422.37304688 c 2,7,-1
 1001.44140625 1434.98925781 l 1,8,-1
 1001.67773438 1378.70703125 l 2,9,10
 1005.02806064 682.166125197 1005.02806064 682.166125197 1132.31152344 180.8515625 c 24,11,12
 1147 123 1147 123 1183.68261719 9.3349609375 c 1,13,-1
 904.97265625 9.3349609375 l 1,14,15
 801 430 801 430 781.619140625 648.666015625 c 0,16,17
 747 1032 747 1032 746.174804688 1067.67871094 c 5,0,1
EndSplineSet
EndChar

StartChar: afii57399
Encoding: 1639 1639 68
Width: 1291
VWidth: 2438
GlyphClass: 2
Flags: W
LayerCount: 2
Fore
SplineSet
381.66796875 553.966796875 m 4,0,1
 206.803471589 1113.6289986 206.803471589 1113.6289986 93.0703125 1333.50195312 c 6,2,-1
 69.169921875 1379.70703125 l 5,3,-1
 309.518554688 1462.80957031 l 5,4,-1
 327.252929688 1427.75976562 l 6,5,6
 544 999 544 999 645.05859375 535.453125 c 5,7,8
 746.347831518 997.586987191 746.347831518 997.586987191 962.8515625 1427.68554688 c 6,9,-1
 980.513671875 1462.77246094 l 5,10,-1
 1221.69628906 1379.92675781 l 5,11,-1
 1198.32910156 1333.81835938 l 6,12,13
 1080 1100 1080 1100 908.263671875 553.293945312 c 4,14,15
 786 166 786 166 773.15234375 9.3349609375 c 5,16,-1
 517.76953125 9.3349609375 l 5,17,18
 506 155 506 155 381.66796875 553.966796875 c 4,0,1
EndSplineSet
EndChar

StartChar: afii57400
Encoding: 1640 1640 69
Width: 1291
VWidth: 2438
GlyphClass: 2
Flags: W
LayerCount: 2
Fore
SplineSet
381.66796875 918.177734375 m 4,0,1
 206.803710938 358.515625 206.803710938 358.515625 93.0703125 138.642578125 c 6,2,-1
 69.169921875 92.4375 l 5,3,-1
 309.518554688 9.3349609375 l 5,4,-1
 327.252929688 44.384765625 l 6,5,6
 544 473.14453125 544 473.14453125 645.05859375 936.69140625 c 5,7,8
 746.34765625 474.557617188 746.34765625 474.557617188 962.8515625 44.458984375 c 6,9,-1
 980.513671875 9.3720703125 l 5,10,-1
 1221.69628906 92.2177734375 l 5,11,-1
 1198.32910156 138.326171875 l 6,12,13
 1080 372.14453125 1080 372.14453125 908.263671875 918.850585938 c 4,14,15
 786 1306.14453125 786 1306.14453125 773.15234375 1462.80957031 c 5,16,-1
 517.76953125 1462.80957031 l 5,17,18
 506 1317.14453125 506 1317.14453125 381.66796875 918.177734375 c 4,0,1
EndSplineSet
EndChar

StartChar: afii57401
Encoding: 1641 1641 70
Width: 1285
VWidth: 2438
GlyphClass: 2
Flags: W
LayerCount: 2
Fore
SplineSet
904.55078125 44.8125 m 2,0,1
 828.716179742 395.097972137 828.716179742 395.097972137 818.927734375 501.94140625 c 5,2,3
 612 503 612 503 513.62109375 525.317382812 c 4,4,5
 230 591 230 591 138.618164062 808.459960938 c 0,6,7
 105 888 105 888 104.870117188 999.654296875 c 0,8,9
 105 1191 105 1191 237.026367188 1324.24609375 c 0,10,11
 410 1500 410 1500 670.754882812 1463.44238281 c 0,12,13
 805 1445 805 1445 883.205078125 1368.74511719 c 0,14,15
 1023 1233 1023 1233 1041.98046875 988.265625 c 0,16,17
 1070 627 1070 627 1092.0546875 465.862304688 c 0,18,19
 1113.49179395 315.551686987 1113.49179395 315.551686987 1177.58398438 65.5078125 c 2,20,-1
 1191.98242188 9.3349609375 l 1,21,-1
 912.231445312 9.3349609375 l 1,22,-1
 904.55078125 44.8125 l 2,0,1
794.272460938 820.221679688 m 1,23,-1
 788.250976562 894.670898438 l 2,24,25
 775 1053 775 1053 744.376953125 1098.12011719 c 0,26,27
 685 1186 685 1186 568.23828125 1186.21679688 c 0,28,29
 485 1187 485 1187 426.013671875 1129.43066406 c 128,-1,30
 367 1072 367 1072 367 1000.5 c 128,-1,31
 367 929 367 929 429 880 c 128,-1,32
 491 831 491 831 620.5 826 c 128,-1,33
 750 821 750 821 794.272460938 820.221679688 c 1,23,-1
EndSplineSet
EndChar

StartChar: afii57381
Encoding: 1642 1642 71
Width: 1263
VWidth: 2438
GlyphClass: 2
Flags: W
LayerCount: 2
Fore
SplineSet
802.077148438 235.817382812 m 128,-1,1
 802.077148438 312.45703125 802.077148438 312.45703125 855.2578125 365.63671875 c 128,-1,2
 908.4375 418.817382812 908.4375 418.817382812 985.077148438 418.817382812 c 128,-1,3
 1061.71679688 418.817382812 1061.71679688 418.817382812 1114.89648438 365.63671875 c 128,-1,4
 1168.07714844 312.45703125 1168.07714844 312.45703125 1168.07714844 235.815429688 c 128,-1,5
 1168.07714844 159.174804688 1168.07714844 159.174804688 1114.89648438 105.998046875 c 128,-1,6
 1061.71679688 52.8173828125 1061.71679688 52.8173828125 985.077148438 52.8173828125 c 128,-1,7
 908.4375 52.8173828125 908.4375 52.8173828125 855.2578125 105.998046875 c 128,-1,0
 802.077148438 159.176757812 802.077148438 159.176757812 802.077148438 235.817382812 c 128,-1,1
105.1015625 1368.59765625 m 128,-1,9
 105.1015625 1445.23730469 105.1015625 1445.23730469 158.282226562 1498.41699219 c 128,-1,10
 211.461914062 1551.59765625 211.461914062 1551.59765625 288.1015625 1551.59765625 c 128,-1,11
 364.741210938 1551.59765625 364.741210938 1551.59765625 417.920898438 1498.41699219 c 128,-1,12
 471.1015625 1445.23730469 471.1015625 1445.23730469 471.1015625 1368.59614961 c 128,-1,13
 471.1015625 1291.95499453 471.1015625 1291.95499453 417.920898438 1238.77832031 c 128,-1,14
 364.741210938 1185.59765625 364.741210938 1185.59765625 288.1015625 1185.59765625 c 128,-1,15
 211.461914062 1185.59765625 211.461914062 1185.59765625 158.282226562 1238.77832031 c 128,-1,8
 105.1015625 1291.95698803 105.1015625 1291.95698803 105.1015625 1368.59765625 c 128,-1,9
934.987304688 1604.359375 m 1,16,-1
 1138.07910156 1496.91601562 l 1,17,-1
 359.13671875 -3.3681640625 l 1,18,-1
 155.259765625 98.3271484375 l 1,19,-1
 934.987304688 1604.359375 l 1,16,-1
EndSplineSet
EndChar

StartChar: uni066B
Encoding: 1643 1643 72
Width: 811
VWidth: 2438
GlyphClass: 2
Flags: W
LayerCount: 2
Fore
SplineSet
462.526367188 624.966796875 m 1,0,-1
 650 541 l 1,1,-1
 255.158203125 -258.1953125 l 1,2,-1
 68 -173 l 1,3,-1
 462.526367188 624.966796875 l 1,0,-1
EndSplineSet
EndChar

StartChar: uni066C
Encoding: 1644 1644 73
Width: 654
VWidth: 2349
GlyphClass: 2
Flags: W
LayerCount: 2
Fore
SplineSet
214.40234375 404.861328125 m 128,-1,1
 266.942382812 440.951171875 266.942382812 440.951171875 324.015136719 439.005859375 c 0,2,3
 417.67996742 435.813313834 417.67996742 435.813313834 465.982421875 396.79296875 c 0,4,5
 569.682172227 313.013089545 569.682172227 313.013089545 515.760031426 102.598341647 c 128,-1,6
 461.837890625 -107.81640625 461.837890625 -107.81640625 283.228515625 -249.809570312 c 2,7,-1
 258.069335938 -269.809570312 l 1,8,-1
 121.984375 -182.82421875 l 1,9,-1
 168.852539062 -143.43359375 l 2,10,11
 279.56640625 -50.3798828125 279.56640625 -50.3798828125 303.504882812 87.734375 c 1,12,13
 214.646693616 98.4074823905 214.646693616 98.4074823905 176.16416712 156.548956039 c 128,-1,14
 137.681640625 214.690429688 137.681640625 214.690429688 149.771972656 291.731445312 c 128,-1,0
 161.862304688 368.772460938 161.862304688 368.772460938 214.40234375 404.861328125 c 128,-1,1
EndSplineSet
EndChar

StartChar: afii63167
Encoding: 1645 1645 74
Width: 1282
VWidth: 2438
GlyphClass: 2
Flags: W
LayerCount: 2
Fore
SplineSet
20.71875 948.374023438 m 1,0,-1
 497.6796875 948.374023438 l 1,1,-1
 646.35546875 1401.03710938 l 1,2,-1
 795.03125 948.374023438 l 1,3,-1
 1271.99414062 948.374023438 l 1,4,-1
 886.743164062 666.7421875 l 1,5,-1
 1034.26464844 213.545898438 l 1,6,-1
 646.35546875 493.850585938 l 1,7,-1
 258.447265625 213.545898438 l 1,8,-1
 405.966796875 666.7421875 l 1,9,-1
 20.71875 948.374023438 l 1,0,-1
EndSplineSet
EndChar

StartChar: uni066E
Encoding: 1646 1646 75
Width: 1970
VWidth: 2438
GlyphClass: 2
Flags: W
AnchorPoint: "Anchor-10" 875.918 1198.13 basechar 0
AnchorPoint: "Anchor-7" 875.918 -153.254 basechar 0
LayerCount: 2
Fore
SplineSet
1603.98144531 620.090820312 m 0,0,1
 1600 719 1600 719 1574.09082031 805.279296875 c 1,2,-1
 1820.44824219 857.04296875 l 1,3,-1
 1832.77832031 818.282226562 l 2,4,5
 1900 607 1900 607 1850.59179688 396.7734375 c 0,6,7
 1757 0 1757 0 1041.36230469 -0.0009765625 c 0,8,9
 664 0 664 0 481.156738281 55.8354492188 c 0,10,11
 298 112 298 112 198.017578125 247.356445312 c 0,12,13
 98 383 98 383 98.0380859375 586.212890625 c 0,14,15
 97.999883467 693.326740527 97.999883467 693.326740527 135.94921875 825.575195312 c 2,16,-1
 147.598632812 866.171875 l 1,17,-1
 400.512695312 810.653320312 l 1,18,-1
 389.760742188 766.008789062 l 2,19,20
 349 598 349 598 391.52734375 502.301757812 c 0,21,22
 441 389 441 389 623.735351562 349.720703125 c 0,23,24
 755 321 755 321 1013.72558594 321.133789062 c 0,25,26
 1268 321 1268 321 1347.10839844 339.565429688 c 0,27,28
 1481 372 1481 372 1543.0625 441.153320312 c 4,29,30
 1608 513 1608 513 1603.98144531 620.090820312 c 0,0,1
EndSplineSet
Substitution2: "'init' Initial Forms in Arabic lookup 13 subtable" uni066E.init
Substitution2: "'medi' Medial Forms in Arabic lookup 11 subtable" uni066E.medi
Substitution2: "'fina' Terminal Forms in Arabic lookup 9 subtable" uni066E.fina
EndChar

StartChar: uni066F
Encoding: 1647 1647 76
Width: 1607
VWidth: 2393
GlyphClass: 2
Flags: W
AnchorPoint: "Anchor-10" 402.586 1191.54 basechar 0
AnchorPoint: "Anchor-7" 575.01 -595.719 basechar 0
LayerCount: 2
Fore
SplineSet
1252.28710938 331.103515625 m 1,0,1
 1245.43066406 615.510742188 1245.43066406 615.510742188 1134.6796875 615.865234375 c 0,2,3
 1068.96875 616.209960938 1068.96875 616.209960938 1035.86230469 533.3984375 c 0,4,5
 961.879882812 348.342773438 961.879882812 348.342773438 1114.58300781 327.80859375 c 0,6,7
 1164.25292969 321.50390625 1164.25292969 321.50390625 1252.28710938 331.103515625 c 1,0,1
1118.08300781 76.66015625 m 0,8,9
 803 93 803 93 768 348.758789062 c 0,10,11
 749 488 749 488 815.280273438 634.413085938 c 0,12,13
 936 900 936 900 1133.17089844 899.92578125 c 0,14,15
 1330 900 1330 900 1433.5859375 684.875 c 0,16,17
 1499.36741712 547.893836513 1499.36741712 547.893836513 1509.46777344 240.212890625 c 0,18,19
 1510 224 1510 224 1498.79199219 120.766601562 c 0,20,21
 1472 -135 1472 -135 1287.4008789 -267.055664062 c 0,22,23
 1105 -398 1105 -398 804.293945312 -397.88671875 c 0,24,25
 317 -398 317 -398 168.799804688 -115.292480469 c 128,-1,26
 20.7824163436 167.415577207 20.7824163436 167.415577207 177.301757812 623.671875 c 2,27,-1
 190.263671875 661.456054688 l 1,28,-1
 443.586914062 607.037109375 l 1,29,-1
 427.127929688 559.081054688 l 2,30,31
 360 364 360 364 360.333007812 207.481445312 c 4,32,33
 361 -89 361 -89 807.186523438 -89.2685546875 c 4,34,35
 1197 -89 1197 -89 1237.12792969 79.7109375 c 1,36,37
 1177 74 1177 74 1118.08300781 76.66015625 c 0,8,9
EndSplineSet
Substitution2: "'init' Initial Forms in Arabic lookup 13 subtable" uni066F.init
Substitution2: "'medi' Medial Forms in Arabic lookup 11 subtable" uni066F.medi
Substitution2: "'fina' Terminal Forms in Arabic lookup 9 subtable" uni066F.fina
EndChar

StartChar: uni0670
Encoding: 1648 1648 77
Width: -27
VWidth: 2304
GlyphClass: 4
Flags: W
AnchorPoint: "Anchor-10" 569.519 1347.15 mark 0
AnchorPoint: "Anchor-9" 569.519 1347.15 mark 0
AnchorPoint: "Anchor-1" 569.519 2081.6 basemark 0
AnchorPoint: "Anchor-1" 569.519 1347.15 mark 0
LayerCount: 2
Fore
SplineSet
525.1015625 1402.16699219 m 1,0,-1
 525.1015625 2026.58496094 l 1,1,-1
 613.936523438 2026.58496094 l 1,2,-1
 613.936523438 1402.16699219 l 1,3,-1
 525.1015625 1402.16699219 l 1,0,-1
EndSplineSet
EndChar

StartChar: uni0674
Encoding: 1652 1652 78
Width: 672
VWidth: 2393
GlyphClass: 2
Flags: W
LayerCount: 2
Fore
SplineSet
201.332561922 1695.72002972 m 1,0,1
 124.791015625 1754.29570392 124.791015625 1754.29570392 124.791015625 1856.18675858 c 128,-1,2
 124.791015625 1958.07781324 124.791015625 1958.07781324 193.961134264 2018.77456611 c 128,-1,3
 263.131252903 2079.47131897 263.131252903 2079.47131897 354.471478077 2079.78315126 c 128,-1,4
 445.811703251 2080.09498355 445.811703251 2080.09498355 523.954101562 2036.18754515 c 1,5,-1
 523.954101562 1896.21219429 l 1,6,7
 300.768314628 1998.57029214 300.768314628 1998.57029214 264.373457216 1884.17930022 c 4,8,9
 236 1795 236 1795 361.977696637 1749.43280637 c 0,10,11
 388.611554402 1739.40364504 388.611554402 1739.40364504 524.242662547 1769.91282658 c 2,12,-1
 548.631835938 1775.39898479 l 1,13,-1
 548.631835938 1632.03721162 l 1,14,-1
 122.44140625 1536.35481491 l 1,15,-1
 122.44140625 1677.51604955 l 1,16,-1
 201.332561922 1695.72002972 l 1,0,1
EndSplineSet
EndChar

StartChar: uni06A1
Encoding: 1697 1697 82
Width: 1968
VWidth: 2438
GlyphClass: 2
Flags: W
AnchorPoint: "Anchor-10" 604.034 1388.99 basechar 0
AnchorPoint: "Anchor-7" 589.757 -229.998 basechar 0
LayerCount: 2
Fore
SplineSet
1870.13964844 644.944335938 m 4,0,1
 1872 386 1872 386 1776.34375 245.068359375 c 0,2,3
 1681 104 1681 104 1488.40332031 51.4985351562 c 128,-1,4
 1296 -1 1296 -1 945.501464844 -1 c 128,-1,5
 595 -1 595 -1 425.963378906 71.9448242188 c 0,6,7
 99 213 99 213 98.041015625 594.803710938 c 0,8,9
 98.0000801467 703.786624557 98.0000801467 703.786624557 140.661132812 823.399414062 c 2,10,-1
 153.686523438 859.919921875 l 1,11,-1
 405.948242188 810.299804688 l 1,12,-1
 391.705078125 762.793945312 l 2,13,14
 367 680 367 680 365.349609375 617.162109375 c 0,15,16
 361 403 361 403 616.05859375 339.421875 c 4,17,18
 674 325 674 325 824.32421875 317.373046875 c 4,19,20
 975 310 975 310 1025.19921875 310.391601562 c 4,21,22
 1307 313 1307 313 1395.15039062 324.931640625 c 4,23,24
 1483 337 1483 337 1526.89160156 377.770507812 c 5,25,26
 1291 371 1291 371 1191.66601562 508.140625 c 4,27,28
 1062 688 1062 688 1179.734375 949.625 c 4,29,30
 1298 1211 1298 1211 1508.52441406 1211.03613281 c 132,-1,31
 1719 1211 1719 1211 1820.33789062 942.827148438 c 4,32,33
 1869 815 1869 815 1870.13964844 644.944335938 c 4,0,1
1616.39355469 640.2578125 m 5,34,35
 1609 925 1609 925 1498.79589844 925.764648438 c 4,36,37
 1444 926 1444 926 1405.95996094 850.912109375 c 132,-1,38
 1368 776 1368 776 1378.06152344 709.231445312 c 4,39,40
 1389 632 1389 632 1505.546875 631.752929688 c 4,41,42
 1550 632 1550 632 1616.39355469 640.2578125 c 5,34,35
EndSplineSet
Substitution2: "'init' Initial Forms in Arabic lookup 13 subtable" uni06A1.init
Substitution2: "'medi' Medial Forms in Arabic lookup 11 subtable" uni06A1.medi
Substitution2: "'fina' Terminal Forms in Arabic lookup 9 subtable" uni06A1.fina
EndChar

StartChar: uni06A9
Encoding: 1705 1705 83
Width: 1811
VWidth: 2438
GlyphClass: 2
Flags: W
AnchorPoint: "Anchor-10" 460.659 1363.79 basechar 0
AnchorPoint: "Anchor-7" 573.777 -237.467 basechar 0
LayerCount: 2
Fore
SplineSet
892.024414062 0 m 1,0,1
 644 3 644 3 492.291015625 47.0380859375 c 0,2,3
 297 103 297 103 196.2265625 243.499023438 c 0,4,5
 96 384 96 384 95.6923828125 597.685546875 c 0,6,7
 96.0001194761 706.042068482 96.0001194761 706.042068482 134.9921875 822.508789062 c 2,8,-1
 147.623046875 860.236328125 l 1,9,-1
 391.912109375 810.6640625 l 1,10,-1
 382.05078125 765.969726562 l 2,11,12
 336 558 336 558 420.7578125 455.208007812 c 0,13,14
 482 381 482 381 621.2109375 345.538085938 c 0,15,16
 703 325 703 325 892.767578125 320.243164062 c 5,17,-1
 1191.85644531 320.26953125 l 2,18,19
 1375 320 1375 320 1425.0625 370.634765625 c 0,20,21
 1454 400 1454 400 1446.14746094 451.158203125 c 0,22,23
 1440 493 1440 493 1388.87792969 557.529296875 c 0,24,25
 1280 696 1280 696 995.887695312 855.254882812 c 0,26,27
 889 915 889 915 889.000000018 1060.57413211 c 0,28,29
 889 1205.33437565 889 1205.33437565 1034.90820312 1276.50292969 c 2,30,-1
 1752 1626.2734375 l 1,31,-1
 1752 1348 l 1,32,-1
 1172.94042969 1068.36035156 l 1,33,34
 1464 855 1464 855 1529.49121094 783.498046875 c 0,35,36
 1683 616 1683 616 1697.26074219 473.329101562 c 0,37,38
 1715 296 1715 296 1648.48925781 191.041015625 c 0,39,40
 1527 0 1527 0 1237.22460938 0 c 2,41,-1
 892.024414062 0 l 1,0,1
EndSplineSet
Substitution2: "'init' Initial Forms in Arabic lookup 13 subtable" uniFB90
Substitution2: "'medi' Medial Forms in Arabic lookup 11 subtable" uniFB91
Substitution2: "'fina' Terminal Forms in Arabic lookup 9 subtable" uniFB8F
EndChar

StartChar: afii57514
Encoding: 1722 1722 85
Width: 1558
VWidth: 2393
GlyphClass: 2
Flags: W
AnchorPoint: "Anchor-10" 741.929 994.235 basechar 0
AnchorPoint: "Anchor-7" 801.607 -457.659 basechar 0
LayerCount: 2
Fore
SplineSet
1204.25976562 267.693359375 m 4,0,1
 1203.99914781 381.371716283 1203.99914781 381.371716283 1135.59179688 650.518554688 c 2,2,-1
 1123.81835938 696.840820312 l 1,3,-1
 1389.96875 747.659179688 l 1,4,-1
 1398.94335938 704.256835938 l 2,5,6
 1464 390 1464 390 1460.49121094 199.120117188 c 0,7,8
 1455 -111 1455 -111 1270.47265625 -245.2734375 c 0,9,10
 1083 -381 1083 -381 764.153320312 -379.88671875 c 0,11,12
 400 -379 400 -379 246.5 -218.60546875 c 0,13,14
 98 -63 98 -63 97.90234375 239.110351562 c 0,15,16
 97.9997176671 410.503051798 97.9997176671 410.503051798 177.30078125 641.672851562 c 2,17,-1
 190.262695312 679.458007812 l 1,18,-1
 443.373046875 625.083007812 l 1,19,-1
 427.197265625 577.267578125 l 2,20,21
 360 379 360 379 360.358398438 280.14453125 c 4,22,23
 361 100 361 100 460.731445312 13.9482421875 c 4,24,25
 561 -72 561 -72 778 -72 c 4,26,27
 1001 -72 1001 -72 1102.72558594 11.2119140625 c 4,28,29
 1205 94 1205 94 1204.25976562 267.693359375 c 4,0,1
EndSplineSet
Substitution2: "'init' Initial Forms in Arabic lookup 13 subtable" uni06BA.init
Substitution2: "'medi' Medial Forms in Arabic lookup 11 subtable" uni06BA.medi
Substitution2: "'fina' Terminal Forms in Arabic lookup 9 subtable" uniFB9F
EndChar

StartChar: uni06F4
Encoding: 1780 1780 92
Width: 1270
VWidth: 2438
GlyphClass: 2
Flags: W
LayerCount: 2
Fore
SplineSet
633.125976562 1012.21972656 m 0,0,1
 651 983 651 983 710.515625 963.3515625 c 0,2,3
 770 944 770 944 848.45703125 944.004882812 c 128,-1,4
 926.718392267 944.000017507 926.718392267 944.000017507 1108.61523438 970.684570312 c 2,5,-1
 1159.34667969 978.126953125 l 1,6,-1
 1162.98535156 693.217773438 l 1,7,-1
 1125.62597656 686.2734375 l 2,8,9
 979 659 979 659 858.334960938 657.889648438 c 0,10,11
 683 657 683 657 558.168945312 715.00390625 c 1,12,13
 622 419 622 419 617.18359375 9.3349609375 c 1,14,-1
 358.916992188 9.3349609375 l 1,15,16
 357 520 357 520 276.5390625 847.0703125 c 0,17,18
 220.235774127 1075.09506641 220.235774127 1075.09506641 112.364257812 1336.67480469 c 2,19,-1
 93.875 1381.50976562 l 1,20,-1
 345.369140625 1463.83300781 l 1,21,-1
 359.80859375 1421.95117188 l 2,22,23
 396 1316 396 1316 428.5546875 1221.68457031 c 1,24,25
 556 1525 556 1525 957.81640625 1472.83886719 c 0,26,27
 1018.11391433 1465.11352566 1018.11391433 1465.11352566 1067.4765625 1446.88769531 c 2,28,-1
 1096.890625 1436.02734375 l 1,29,-1
 1096.890625 1188.27441406 l 5,30,-1
 1039.37304688 1204.93066406 l 6,31,32
 967 1226 967 1226 877.348632812 1226.28808594 c 4,33,34
 747 1228 747 1228 672.208007812 1164.34667969 c 4,35,36
 584 1090 584 1090 633.125976562 1012.21972656 c 0,0,1
EndSplineSet
EndChar

StartChar: uni06F5
Encoding: 1781 1781 93
Width: 1418
VWidth: 2438
GlyphClass: 2
Flags: W
LayerCount: 2
Fore
SplineSet
478.6015625 322.551757812 m 0,0,1
 592.564328479 322.998292928 592.564328479 322.998292928 627.875 495.330078125 c 2,2,-1
 635.250976562 531.328125 l 1,3,-1
 785.697265625 531.166992188 l 5,4,-1
 791.755859375 493.310546875 l 6,5,6
 819 320 819 320 951.9765625 318.5625 c 0,7,8
 1003 318 1003 318 1029.01171875 343.79296875 c 0,9,10
 1054 368 1054 368 1054.16210938 426.306640625 c 0,11,12
 1054 656 1054 656 683.063476562 1000.96972656 c 1,13,14
 355 613 355 613 367.310546875 414.93359375 c 0,15,16
 370 373 370 373 397.827148438 347.662109375 c 0,17,18
 425 323 425 323 478.6015625 322.551757812 c 0,0,1
711.073242188 129.8671875 m 1,19,20
 621 2 621 2 442.387298055 9.42606509808 c 0,21,22
 264 17 264 17 176.9296875 120.279296875 c 0,23,24
 87 227 87 227 97.275390625 377.41796875 c 0,25,26
 105 501 105 501 161.791015625 650.295898438 c 0,27,28
 242 860 242 860 496.250976562 1179.87890625 c 1,29,-1
 450.380859375 1222.81640625 l 1,30,-1
 621.213867188 1431.57128906 l 1,31,-1
 656.37109375 1396.32226562 l 2,32,33
 694 1359 694 1359 763.026367188 1294.18261719 c 0,34,35
 1320 773 1320 773 1320.20996094 365.399414062 c 0,36,37
 1320 109 1320 109 1108.92578125 34.384765625 c 0,38,39
 1040 10 1040 10 951.180664062 9.6630859375 c 0,40,41
 790 9 790 9 711.073242188 129.8671875 c 1,19,20
EndSplineSet
EndChar

StartChar: uni06F6
Encoding: 1782 1782 94
Width: 1101
VWidth: 2438
GlyphClass: 2
Flags: W
LayerCount: 2
Fore
SplineSet
110.077148438 68.01171875 m 2,0,1
 235.225271363 460.287005188 235.225271363 460.287005188 379.095703125 643.583984375 c 1,2,3
 167 678 167 678 91.41796875 889.4609375 c 0,4,5
 74 938 74 938 74 995.5 c 128,-1,6
 74 1053 74 1053 82.5 1099 c 128,-1,7
 91 1145 91 1145 123.637695312 1209.56054688 c 0,8,9
 245 1452 245 1452 585.880859375 1449.43457031 c 0,10,11
 636.645722451 1449.00301176 636.645722451 1449.00301176 719.33203125 1435.40820312 c 2,12,-1
 763.338867188 1428.17285156 l 1,13,-1
 722.646484375 1176.03613281 l 1,14,15
 650 1194 650 1194 585.643554688 1193.09667969 c 0,16,17
 398.245098018 1188.91623648 398.245098018 1188.91623648 336.20703125 1062.19140625 c 0,18,19
 318 1025 318 1025 320 993 c 128,-1,20
 322 961 322 961 341.8515625 934.575195312 c 0,21,22
 379 886 379 886 542.8515625 876.852539062 c 5,23,24
 870.560908102 995.840570063 870.560908102 995.840570063 945.579101562 1014.58691406 c 6,25,-1
 1003.62011719 1029.09082031 l 5,26,-1
 1014.734375 728.9765625 l 1,27,-1
 977.96875 720.817382812 l 2,28,29
 688 657 688 657 527.380859375 402.712890625 c 0,30,31
 455.741128121 289.591232187 455.741128121 289.591232187 381.7734375 41.4794921875 c 2,32,-1
 372.190429688 9.3349609375 l 1,33,-1
 91.357421875 9.3349609375 l 1,34,-1
 110.077148438 68.01171875 l 2,0,1
EndSplineSet
EndChar

StartChar: uniFB8F
Encoding: 64399 64399 109
Width: 1896
VWidth: 2438
GlyphClass: 2
Flags: W
AnchorPoint: "Anchor-10" 466.178 1373.21 basechar 0
AnchorPoint: "Anchor-7" 550.742 -187.299 basechar 0
LayerCount: 2
Fore
SplineSet
1876.5703125 1.09765625 m 2,0,1
 1677.92224035 1.09765625 1677.92224035 1.09765625 1581.60058594 122.065429688 c 1,2,3
 1451.51806576 0.5498046875 1451.51806576 0.5498046875 1224.92578125 0.5498046875 c 2,4,-1
 849.030273438 0.5498046875 l 1,5,6
 599 3 599 3 447.311523438 47.0322265625 c 0,7,8
 251 103 251 103 150.444335938 243.505859375 c 128,-1,9
 50 384 50 384 50.6923828125 597.870117188 c 0,10,11
 51.0008457001 705.294521091 51.0008457001 705.294521091 89.9609375 822.42578125 c 2,12,-1
 102.54296875 860.252929688 l 1,13,-1
 349.118164062 810.215820312 l 1,14,-1
 336.526367188 763.868164062 l 2,15,16
 317 692 317 692 315.724609375 619.103515625 c 0,17,18
 315 530 315 530 376.30078125 454.747070312 c 0,19,20
 457 356 457 356 644.286132812 334.53515625 c 0,21,22
 734 324 734 324 880.400390625 320.79296875 c 5,23,-1
 1179.52832031 320.818359375 l 2,24,25
 1364 321 1364 321 1413.77148438 371.702148438 c 0,26,27
 1441 399 1441 399 1433.81347656 442.828125 c 0,28,29
 1426 493 1426 493 1375.93164062 555.603515625 c 0,30,31
 1268 692 1268 692 983.181640625 856.038085938 c 0,32,33
 878 917 878 917 878.110351562 1061.93359375 c 0,34,35
 878.000185484 1206.75616614 878.000185484 1206.75616614 1022.60839844 1277.05273438 c 2,36,-1
 1741 1626.27539062 l 1,37,-1
 1741 1348 l 1,38,-1
 1160.609375 1068.89648438 l 1,39,40
 1453 855 1453 855 1515.54785156 786.147460938 c 0,41,42
 1640 651 1640 651 1698.76660156 461.395507812 c 0,43,44
 1720 393 1720 393 1764.37402344 355.833007812 c 0,45,46
 1804.73006374 321.231445312 1804.73006374 321.231445312 1868.54394531 321.231445312 c 2,47,-1
 1907.05175781 321.231445312 l 1,48,-1
 1907.05175781 1.09765625 l 1,49,-1
 1876.5703125 1.09765625 l 2,0,1
EndSplineSet
EndChar

StartChar: uniFB9F
Encoding: 64415 64415 117
Width: 1548
VWidth: 2393
GlyphClass: 2
Flags: W
AnchorPoint: "Anchor-10" 671.411 796.724 basechar 0
AnchorPoint: "Anchor-7" 634.05 -608.475 basechar 0
LayerCount: 2
Fore
SplineSet
1541.94042969 -4.453125 m 2,0,1
 1478.32473465 -4.4867059201 1478.32473465 -4.4867059201 1395.14550781 26.0732421875 c 1,2,3
 1367 -227 1367 -227 1196.97753906 -355.974609375 c 128,-1,4
 1027 -485 1027 -485 729.293945312 -484.88671875 c 0,5,6
 282 -485 282 -485 128.806853966 -202.597709644 c 0,7,8
 -24.2203505713 80.4075116079 -24.2203505713 80.4075116079 132.301757812 536.671875 c 2,9,-1
 145.263671875 574.456054688 l 1,10,-1
 398.586914062 520.037109375 l 1,11,-1
 382.127929688 472.081054688 l 2,12,13
 315 276 315 276 315.106445312 159.935546875 c 0,14,15
 315 -5 315 -5 415.02734375 -90.40625 c 128,-1,16
 515 -176 515 -176 734.907226562 -176.142578125 c 0,17,18
 955 -176 955 -176 1057.04882812 -93.05078125 c 128,-1,19
 1159 -10 1159 -10 1159.07617188 164.653320312 c 0,20,21
 1158.99981239 291.311187579 1158.99981239 291.311187579 1093.61523438 545.447265625 c 2,22,-1
 1081.93554688 590.84375 l 1,23,-1
 1329.05175781 643.771484375 l 1,24,-1
 1338.37011719 598.1171875 l 6,25,26
 1364 470 1364 470 1384.20214844 411.594726562 c 0,27,28
 1416.10589647 315.681640625 1416.10589647 315.681640625 1546.45898438 315.681640625 c 2,29,-1
 1560.44042969 315.681640625 l 1,30,-1
 1560.44042969 -4.443359375 l 1,31,-1
 1541.94042969 -4.453125 l 2,0,1
EndSplineSet
EndChar

StartChar: uniFBE8
Encoding: 64488 64488 120
Width: 701
VWidth: 2438
GlyphClass: 2
Flags: W
AnchorPoint: "Anchor-10" 333.214 1190.44 basechar 0
AnchorPoint: "Anchor-7" 305.758 -344.896 basechar 0
LayerCount: 2
Fore
SplineSet
59.884765625 320.243164062 m 6,0,1
 235.283501131 320.243164062 235.283501131 320.243164062 303.62890625 378.864257812 c 4,2,3
 355 424 355 424 350.895507812 540.924804688 c 4,4,5
 347.951123001 607.098487875 347.951123001 607.098487875 288.603515625 715.58203125 c 2,6,-1
 264.244140625 760.109375 l 1,7,-1
 492.094726562 851.2578125 l 1,8,-1
 512.719726562 823.147460938 l 2,9,10
 603 700 603 700 603.65234375 504.942382812 c 0,11,12
 604 230 604 230 468.836914062 115.062011719 c 0,13,14
 334 0 334 0 50.93359375 0 c 2,15,-1
 -13.1650390625 0 l 1,16,-1
 -13.1650390625 320.243164062 l 5,17,-1
 59.884765625 320.243164062 l 6,0,1
EndSplineSet
EndChar

StartChar: uniFBE9
Encoding: 64489 64489 121
Width: 722
VWidth: 2438
GlyphClass: 2
Flags: W
AnchorPoint: "Anchor-10" 309.627 1102.58 basechar 0
AnchorPoint: "Anchor-7" 356.851 -89.0068 basechar 0
LayerCount: 2
Fore
SplineSet
418.194335938 102.84765625 m 1,0,1
 299 0 299 0 98.732421875 0 c 2,2,-1
 -12.2451171875 0 l 1,3,-1
 -12.2451171875 320.243164062 l 5,4,-1
 47.310546875 320.243164062 l 6,5,6
 206 320 206 320 254.678710938 367.423828125 c 4,7,8
 282.280255001 394.272611774 282.280255001 394.272611774 293.403320312 472.561523438 c 6,9,-1
 320.416015625 662.688476562 l 1,10,-1
 517.0859375 662.688476562 l 1,11,-1
 546.436523438 473.086914062 l 6,12,13
 559 390 559 390 596.78515625 355.8828125 c 4,14,15
 636.727479423 320.243164062 636.727479423 320.243164062 718.041015625 320.243164062 c 6,16,-1
 734.07421875 320.243164062 l 5,17,-1
 734.07421875 0 l 1,18,-1
 706.124023438 0 l 2,19,20
 535 0 535 0 418.194335938 102.84765625 c 1,0,1
EndSplineSet
EndChar

StartChar: uniFE73
Encoding: 65139 65139 129
Width: 601
VWidth: 2438
GlyphClass: 2
Flags: W
AnchorPoint: "Anchor-10" 222.139 1443.04 basechar 0
AnchorPoint: "Anchor-7" 222.139 -84.6133 basechar 0
LayerCount: 2
Fore
SplineSet
353.8125 423.037109375 m 2,0,1
 353.8125 395.852539062 353.8125 395.852539062 365.83984375 369.982421875 c 128,-1,2
 377.866210938 344.112304688 377.866210938 344.112304688 404.493164062 317.485351562 c 0,3,4
 449.29296875 272.681640625 449.29296875 272.681640625 555.87109375 272.681640625 c 2,5,-1
 667.568359375 272.681640625 l 1,6,-1
 667.568359375 9.3349609375 l 1,7,-1
 491.239257812 9.3349609375 l 2,8,9
 314.614257812 9.3349609375 314.614257812 9.3349609375 199.6015625 124.34765625 c 0,10,11
 145.130859375 178.817382812 145.130859375 178.817382812 117.796875 250.815429688 c 128,-1,12
 90.4638671875 322.813476562 90.4638671875 322.813476562 90.4638671875 408.935546875 c 2,13,-1
 90.4638671875 483.028320312 l 1,14,-1
 353.8125 483.028320312 l 1,15,-1
 353.8125 423.037109375 l 2,0,1
EndSplineSet
EndChar

StartChar: uniFE8E
Encoding: 65166 65166 155
Width: 611
VWidth: 2438
GlyphClass: 2
Flags: W
AnchorPoint: "Anchor-10" 284.479 1622.66 basechar 0
AnchorPoint: "Anchor-7" 304.246 -225.188 basechar 0
LayerCount: 2
Fore
SplineSet
159.392578125 534.879882812 m 2,0,-1
 159.392578125 1523.24902344 l 1,1,-1
 418.34765625 1523.24902344 l 1,2,-1
 418.34765625 508.993164062 l 2,3,4
 418 389 418 389 506.190429688 340.9140625 c 0,5,6
 543.560394891 320.243164062 543.560394891 320.243164062 603.93359375 320.243164062 c 2,7,-1
 621.915039062 320.243164062 l 1,8,-1
 621.915039062 0 l 1,9,-1
 598.608398438 0 l 2,10,11
 350.511345204 7.31636973228e-14 350.511345204 7.31636973228e-14 225.634765625 200.833984375 c 0,12,13
 159 307 159 307 159.392578125 534.879882812 c 2,0,-1
EndSplineSet
EndChar

StartChar: uniFEA2
Encoding: 65186 65186 175
Width: 1386
VWidth: 2438
GlyphClass: 2
Flags: W
AnchorPoint: "Anchor-10" 611.107 1297.12 basechar 0
AnchorPoint: "Anchor-7" 475.396 -665.504 basechar 0
LayerCount: 2
Fore
SplineSet
766 703 m 1,0,1
 679 751 l 0,2,3
 635 778 635 778 596.762695312 792.799804688 c 0,4,5
 519 821 519 821 451.650390625 777.669921875 c 0,6,7
 379.393803663 732.247555207 379.393803663 732.247555207 317.26171875 650.43359375 c 2,8,-1
 290.76171875 615.5390625 l 1,9,-1
 93.2578125 757.384765625 l 1,10,-1
 123.325195312 794.446289062 l 2,11,12
 208 898 208 898 237.84765625 929.201171875 c 0,13,14
 361 1054 361 1054 535.249023438 1055.14453125 c 0,15,16
 635 1056 635 1056 770.943359375 969.576171875 c 0,17,18
 1000.36679425 823.766885155 1000.36679425 823.766885155 1230.4140625 808.245117188 c 2,19,-1
 1278.50976562 805 l 1,20,-1
 1266.56054688 522.529296875 l 1,21,-1
 1216.49414062 528.23828125 l 2,22,23
 1174 533 1174 533 1118.97851562 529.994140625 c 1,24,25
 1125.00917249 320.681640625 1125.00917249 320.681640625 1361.35839844 320.681640625 c 2,26,-1
 1396.54492188 320.681640625 l 5,27,-1
 1396.54492188 0.5498046875 l 1,28,-1
 1371.63574219 0.5498046875 l 2,29,30
 1147 1 1147 1 1024.79785156 130.614257812 c 0,31,32
 903 260 903 260 892.885742188 503.775390625 c 1,33,34
 622 458 622 458 468.715820312 307.383789062 c 0,35,36
 348 190 348 190 348.107421875 36.69140625 c 0,37,38
 348 -85 348 -85 465.559570312 -165.012695312 c 128,-1,39
 583 -245 583 -245 840.290039062 -245.734375 c 0,40,41
 1028.29356356 -246.000415417 1028.29356356 -246.000415417 1176.59765625 -193.723632812 c 2,42,-1
 1221.62792969 -177.850585938 l 1,43,-1
 1288.49511719 -458.64453125 l 1,44,-1
 1251.97070312 -474.263671875 l 2,45,46
 1084 -546 1084 -546 808.016601562 -542.42578125 c 0,47,48
 451 -538 451 -538 273.821289062 -380.418945312 c 0,49,50
 97 -223 97 -223 98.017578125 38.650390625 c 0,51,52
 99 300 99 300 320.888671875 496.58984375 c 0,53,54
 481 639 481 639 766 703 c 1,0,1
EndSplineSet
EndChar

StartChar: uniFEA3
Encoding: 65187 65187 176
Width: 1417
VWidth: 2438
GlyphClass: 2
Flags: W
AnchorPoint: "Anchor-10" 488.918 1247.81 basechar 0
AnchorPoint: "Anchor-7" 620.707 -232.876 basechar 0
LayerCount: 2
Fore
SplineSet
866.203125 515.922851562 m 1,0,1
 776 550 776 550 680.287109375 597.458984375 c 0,2,3
 546 664 546 664 487.186523438 671.00390625 c 0,4,5
 388.188077134 682.97725305 388.188077134 682.97725305 260.5625 517.169921875 c 2,6,-1
 233.616210938 482.162109375 l 1,7,-1
 35.7978515625 628.701171875 l 1,8,-1
 62.0322265625 664.776367188 l 2,9,10
 121 746 121 746 175.298828125 802.6484375 c 0,11,12
 310 943 310 943 472.161132812 936.565429688 c 0,13,14
 535 934 535 934 621.139648438 902.15625 c 0,15,16
 707 870 707 870 824.803710938 806.7421875 c 0,17,18
 1041.696812 689.703220971 1041.696812 689.703220971 1294.36816406 644.55859375 c 2,19,-1
 1336.0390625 637.11328125 l 1,20,-1
 1311.8828125 381.201171875 l 1,21,-1
 1269.20507812 383.971679688 l 2,22,23
 1187 389 1187 389 1021.87988281 279.029296875 c 0,24,25
 839 157 839 157 701.876953125 98.9951171875 c 0,26,27
 584 49 584 49 428.940429688 24.4970703125 c 128,-1,28
 274 0 274 0 80.6533203125 0 c 2,29,-1
 -15.6220703125 0 l 1,30,-1
 -15.6220703125 320.243164062 l 5,31,-1
 43.69140625 320.243164062 l 2,32,33
 362 320 362 320 488.561523438 346.865234375 c 0,34,35
 660 383 660 383 866.203125 515.922851562 c 1,0,1
EndSplineSet
EndChar

StartChar: uniFEA4
Encoding: 65188 65188 177
Width: 1481
VWidth: 2438
GlyphClass: 2
Flags: W
AnchorPoint: "Anchor-10" 486.339 1265.4 basechar 0
AnchorPoint: "Anchor-7" 590.058 -223.616 basechar 0
LayerCount: 2
Fore
SplineSet
1175.30761719 413.400390625 m 5,0,1
 1215.89807336 321.231445312 1215.89807336 321.231445312 1437.05078125 321.231445312 c 6,2,-1
 1493.171875 321.231445312 l 5,3,-1
 1493.171875 0 l 1,4,-1
 1413.54882812 0 l 2,5,6
 1213 0 1213 0 1105.2578125 76.3916015625 c 0,7,8
 1018 138 1018 138 976.109375 249.255859375 c 1,9,10
 809 143 809 143 701.440429688 98.814453125 c 0,11,12
 461 0 461 0 80.6533203125 0 c 2,13,-1
 -10.6220703125 0 l 1,14,-1
 -10.6220703125 320.243164062 l 5,15,-1
 43.69140625 320.243164062 l 6,16,17
 364 320 364 320 488.6015625 346.873046875 c 4,18,19
 661 383 661 383 866.491210938 515.947265625 c 5,20,21
 822 533 822 533 777.251953125 552.569335938 c 4,22,23
 732 572 732 572 683.396484375 596.405273438 c 4,24,25
 547 664 547 664 487.186523438 671.00390625 c 4,26,27
 388.188077134 682.97725305 388.188077134 682.97725305 260.5625 517.169921875 c 6,28,-1
 233.616210938 482.162109375 l 5,29,-1
 35.7978515625 628.701171875 l 5,30,-1
 62.0322265625 664.776367188 l 6,31,32
 121 746 121 746 175.298828125 802.6484375 c 4,33,34
 310 943 310 943 472.161132812 936.565429688 c 4,35,36
 535 934 535 934 621.139648438 902.15625 c 4,37,38
 707 870 707 870 824.803710938 806.7421875 c 4,39,40
 1041.696812 689.703220971 1041.696812 689.703220971 1294.36816406 644.55859375 c 6,41,-1
 1336.0390625 637.11328125 l 5,42,-1
 1311.88769531 429.248046875 l 5,43,-1
 1269.26074219 431.959960938 l 6,44,45
 1227 435 1227 435 1175.30761719 413.400390625 c 5,0,1
EndSplineSet
EndChar

StartChar: uniFEAA
Encoding: 65194 65194 183
Width: 1174
VWidth: 2438
GlyphClass: 2
Flags: W
AnchorPoint: "Anchor-10" 469.434 1350.95 basechar 0
AnchorPoint: "Anchor-7" 429.359 -219.148 basechar 0
LayerCount: 2
Fore
SplineSet
1151.90722656 0.5498046875 m 2,0,1
 1014.42210818 0.5498046875 1014.42210818 0.5498046875 909.03515625 112.94921875 c 1,2,3
 761 -12 761 -12 406.692382812 0.0205078125 c 0,4,5
 217.407755243 6.01876770459 217.407755243 6.01876770459 132.69921875 27.0947265625 c 2,6,-1
 98.5634765625 35.587890625 l 1,7,-1
 98.5634765625 359.024414062 l 5,8,-1
 153.208984375 347.033203125 l 6,9,10
 391 295 391 295 639.829101562 326.803710938 c 4,11,12
 721 337 721 337 734.643554688 353.192382812 c 4,13,14
 748 369 748 369 735.047851562 410.180664062 c 4,15,16
 722.065743433 450.675636178 722.065743433 450.675636178 669.75 571.329101562 c 6,17,-1
 490.904296875 983.79296875 l 5,18,-1
 735.150390625 1087.60058594 l 5,19,-1
 977.46484375 531.979492188 l 6,20,21
 1035 400 1035 400 1069.01074219 365.177734375 c 4,22,23
 1116.57624868 317.425415596 1116.57624868 317.425415596 1161.33496094 319.26171875 c 6,24,-1
 1184.54296875 320.213867188 l 5,25,-1
 1184.54296875 0.5498046875 l 1,26,-1
 1151.90722656 0.5498046875 l 2,0,1
EndSplineSet
EndChar

StartChar: uniFEAE
Encoding: 65198 65198 187
Width: 929
VWidth: 2393
GlyphClass: 2
Flags: W
AnchorPoint: "Anchor-10" 532.16 936.2 basechar 0
AnchorPoint: "Anchor-7" 364.048 -675.522 basechar 0
LayerCount: 2
Fore
SplineSet
901.158203125 0 m 6,0,1
 824 0 824 0 769.41015625 34.8427734375 c 5,2,3
 669.092773438 -406.59375 669.092773438 -406.59375 89.11328125 -466.918945312 c 6,4,-1
 47.5771484375 -471.239257812 l 5,5,-1
 1.7275390625 -166.819335938 l 5,6,-1
 50.7568359375 -162.458007812 l 6,7,8
 299 -140 299 -140 414.78515625 -36.2724609375 c 4,9,10
 531 68 531 68 531.999023438 234.829101562 c 132,-1,11
 532.998046875 401.659179688 532.998046875 401.659179688 475.303710938 534.498046875 c 6,12,-1
 456.970703125 576.708984375 l 5,13,-1
 698.583007812 675.262695312 l 5,14,-1
 712.421875 627.091796875 l 6,15,16
 774 414 774 414 806 370 c 4,17,18
 841.825195312 320.243164062 841.825195312 320.243164062 921.859375 320.243164062 c 6,19,-1
 939.204101562 320.243164062 l 5,20,-1
 939.204101562 0 l 5,21,-1
 901.158203125 0 l 6,0,1
EndSplineSet
PairPos2: "'kern' Horizontal Kerning lookup 15-1" uniFEE7 dx=-150 dy=0 dh=-150 dv=0 dx=0 dy=0 dh=0 dv=0
PairPos2: "'kern' Horizontal Kerning lookup 15-2" uniFB90 dx=-190 dy=0 dh=-190 dv=0 dx=0 dy=0 dh=0 dv=0
PairPos2: "'kern' Horizontal Kerning lookup 15-2" uniFB8E dx=-190 dy=0 dh=-190 dv=0 dx=0 dy=0 dh=0 dv=0
PairPos2: "'kern' Horizontal Kerning lookup 15-2" uni06A9 dx=-190 dy=0 dh=-190 dv=0 dx=0 dy=0 dh=0 dv=0
PairPos2: "'kern' Horizontal Kerning lookup 15-2" uni064A dx=-50 dy=0 dh=-50 dv=0 dx=0 dy=0 dh=0 dv=0
PairPos2: "'kern' Horizontal Kerning lookup 15-2" afii57414 dx=-50 dy=0 dh=-50 dv=0 dx=0 dy=0 dh=0 dv=0
PairPos2: "'kern' Horizontal Kerning lookup 15-2" uni0649 dx=-50 dy=0 dh=-50 dv=0 dx=0 dy=0 dh=0 dv=0
PairPos2: "'kern' Horizontal Kerning lookup 15-2" uniFEEB dx=-150 dy=0 dh=-150 dv=0 dx=0 dy=0 dh=0 dv=0
PairPos2: "'kern' Horizontal Kerning lookup 15-2" uni0647 dx=-150 dy=0 dh=-150 dv=0 dx=0 dy=0 dh=0 dv=0
PairPos2: "'kern' Horizontal Kerning lookup 15-2" uni0646 dx=-50 dy=0 dh=-50 dv=0 dx=0 dy=0 dh=0 dv=0
PairPos2: "'kern' Horizontal Kerning lookup 15-2" uniFEE3 dx=-150 dy=0 dh=-150 dv=0 dx=0 dy=0 dh=0 dv=0
PairPos2: "'kern' Horizontal Kerning lookup 15-2" uni0645 dx=-150 dy=0 dh=-150 dv=0 dx=0 dy=0 dh=0 dv=0
PairPos2: "'kern' Horizontal Kerning lookup 15-2" uniFEFB dx=-120 dy=0 dh=-120 dv=0 dx=0 dy=0 dh=0 dv=0
PairPos2: "'kern' Horizontal Kerning lookup 15-2" uniFEDF dx=-120 dy=0 dh=-120 dv=0 dx=0 dy=0 dh=0 dv=0
PairPos2: "'kern' Horizontal Kerning lookup 15-2" uni0644 dx=-50 dy=0 dh=-50 dv=0 dx=0 dy=0 dh=0 dv=0
PairPos2: "'kern' Horizontal Kerning lookup 15-2" uniFEDB dx=-190 dy=0 dh=-190 dv=0 dx=0 dy=0 dh=0 dv=0
PairPos2: "'kern' Horizontal Kerning lookup 15-2" uni0643 dx=-120 dy=0 dh=-120 dv=0 dx=0 dy=0 dh=0 dv=0
PairPos2: "'kern' Horizontal Kerning lookup 15-2" uniFED7 dx=-150 dy=0 dh=-150 dv=0 dx=0 dy=0 dh=0 dv=0
PairPos2: "'kern' Horizontal Kerning lookup 15-2" uni0642 dx=-50 dy=0 dh=-50 dv=0 dx=0 dy=0 dh=0 dv=0
PairPos2: "'kern' Horizontal Kerning lookup 15-2" uniFED3 dx=-150 dy=0 dh=-150 dv=0 dx=0 dy=0 dh=0 dv=0
PairPos2: "'kern' Horizontal Kerning lookup 15-2" uni0641 dx=-150 dy=0 dh=-150 dv=0 dx=0 dy=0 dh=0 dv=0
PairPos2: "'kern' Horizontal Kerning lookup 15-2" uniFECF dx=-150 dy=0 dh=-150 dv=0 dx=0 dy=0 dh=0 dv=0
PairPos2: "'kern' Horizontal Kerning lookup 15-2" uniFECB dx=-150 dy=0 dh=-150 dv=0 dx=0 dy=0 dh=0 dv=0
PairPos2: "'kern' Horizontal Kerning lookup 15-2" uniFEC7 dx=-150 dy=0 dh=-150 dv=0 dx=0 dy=0 dh=0 dv=0
PairPos2: "'kern' Horizontal Kerning lookup 15-2" uni0638 dx=-150 dy=0 dh=-150 dv=0 dx=0 dy=0 dh=0 dv=0
PairPos2: "'kern' Horizontal Kerning lookup 15-2" uniFEC3 dx=-150 dy=0 dh=-150 dv=0 dx=0 dy=0 dh=0 dv=0
PairPos2: "'kern' Horizontal Kerning lookup 15-2" uni0637 dx=-150 dy=0 dh=-150 dv=0 dx=0 dy=0 dh=0 dv=0
PairPos2: "'kern' Horizontal Kerning lookup 15-2" uniFEBF dx=-150 dy=0 dh=-150 dv=0 dx=0 dy=0 dh=0 dv=0
PairPos2: "'kern' Horizontal Kerning lookup 15-2" uni0636 dx=-150 dy=0 dh=-150 dv=0 dx=0 dy=0 dh=0 dv=0
PairPos2: "'kern' Horizontal Kerning lookup 15-2" uniFEBB dx=-150 dy=0 dh=-150 dv=0 dx=0 dy=0 dh=0 dv=0
PairPos2: "'kern' Horizontal Kerning lookup 15-2" uni0635 dx=-150 dy=0 dh=-150 dv=0 dx=0 dy=0 dh=0 dv=0
PairPos2: "'kern' Horizontal Kerning lookup 15-2" uniFEB7 dx=-150 dy=0 dh=-150 dv=0 dx=0 dy=0 dh=0 dv=0
PairPos2: "'kern' Horizontal Kerning lookup 15-2" uni0634 dx=-150 dy=0 dh=-150 dv=0 dx=0 dy=0 dh=0 dv=0
PairPos2: "'kern' Horizontal Kerning lookup 15-2" uniFEB3 dx=-150 dy=0 dh=-150 dv=0 dx=0 dy=0 dh=0 dv=0
PairPos2: "'kern' Horizontal Kerning lookup 15-2" uni0633 dx=-150 dy=0 dh=-150 dv=0 dx=0 dy=0 dh=0 dv=0
PairPos2: "'kern' Horizontal Kerning lookup 15-2" uni0630 dx=-150 dy=0 dh=-150 dv=0 dx=0 dy=0 dh=0 dv=0
PairPos2: "'kern' Horizontal Kerning lookup 15-2" uni062F dx=-150 dy=0 dh=-150 dv=0 dx=0 dy=0 dh=0 dv=0
PairPos2: "'kern' Horizontal Kerning lookup 15-2" uniFEA7 dx=-150 dy=0 dh=-150 dv=0 dx=0 dy=0 dh=0 dv=0
PairPos2: "'kern' Horizontal Kerning lookup 15-2" uniFEA3 dx=-150 dy=0 dh=-150 dv=0 dx=0 dy=0 dh=0 dv=0
PairPos2: "'kern' Horizontal Kerning lookup 15-2" uniFE9F dx=-150 dy=0 dh=-150 dv=0 dx=0 dy=0 dh=0 dv=0
PairPos2: "'kern' Horizontal Kerning lookup 15-2" uniFE9B dx=-150 dy=0 dh=-150 dv=0 dx=0 dy=0 dh=0 dv=0
PairPos2: "'kern' Horizontal Kerning lookup 15-2" uni062B dx=-150 dy=0 dh=-150 dv=0 dx=0 dy=0 dh=0 dv=0
PairPos2: "'kern' Horizontal Kerning lookup 15-2" uniFE97 dx=-150 dy=0 dh=-150 dv=0 dx=0 dy=0 dh=0 dv=0
PairPos2: "'kern' Horizontal Kerning lookup 15-2" uni062A dx=-150 dy=0 dh=-150 dv=0 dx=0 dy=0 dh=0 dv=0
PairPos2: "'kern' Horizontal Kerning lookup 15-2" uni0629 dx=-150 dy=0 dh=-150 dv=0 dx=0 dy=0 dh=0 dv=0
PairPos2: "'kern' Horizontal Kerning lookup 15-2" uniFE91 dx=-50 dy=0 dh=-50 dv=0 dx=0 dy=0 dh=0 dv=0
PairPos2: "'kern' Horizontal Kerning lookup 15-2" uni0628 dx=-150 dy=0 dh=-150 dv=0 dx=0 dy=0 dh=0 dv=0
PairPos2: "'kern' Horizontal Kerning lookup 15-2" uni0627 dx=-120 dy=0 dh=-120 dv=0 dx=0 dy=0 dh=0 dv=0
PairPos2: "'kern' Horizontal Kerning lookup 15-2" uni0623 dx=-120 dy=0 dh=-120 dv=0 dx=0 dy=0 dh=0 dv=0
PairPos2: "'kern' Horizontal Kerning lookup 15-2" uni0622 dx=-120 dy=0 dh=-120 dv=0 dx=0 dy=0 dh=0 dv=0
PairPos2: "'kern' Horizontal Kerning lookup 15-2" uni0621 dx=-150 dy=0 dh=-150 dv=0 dx=0 dy=0 dh=0 dv=0
PairPos2: "'kern' Horizontal Kerning lookup 15-2" uniFB94 dx=-190 dy=0 dh=-190 dv=0 dx=0 dy=0 dh=0 dv=0
PairPos2: "'kern' Horizontal Kerning lookup 15-2" uniFB92 dx=-190 dy=0 dh=-190 dv=0 dx=0 dy=0 dh=0 dv=0
PairPos2: "'kern' Horizontal Kerning lookup 15-2" afii57509 dx=-190 dy=0 dh=-190 dv=0 dx=0 dy=0 dh=0 dv=0
PairPos2: "'kern' Horizontal Kerning lookup 15-2" afii57506 dx=-150 dy=0 dh=-150 dv=0 dx=0 dy=0 dh=0 dv=0
PairPos2: "'kern' Horizontal Kerning lookup 15-2" afii57440 dx=-150 dy=0 dh=-150 dv=0 dx=0 dy=0 dh=0 dv=0
PairPos2: "'kern' Horizontal Kerning lookup 15-2" uniFE8B dx=-150 dy=0 dh=-150 dv=0 dx=0 dy=0 dh=0 dv=0
EndChar

StartChar: uniFEB2
Encoding: 65202 65202 191
Width: 2651
VWidth: 2393
GlyphClass: 2
Flags: W
AnchorPoint: "Anchor-10" 786.809 1011.43 basechar 0
AnchorPoint: "Anchor-7" 553.981 -664.484 basechar 0
LayerCount: 2
Fore
SplineSet
2591.3984375 0.5498046875 m 2,0,1
 2436.39115199 0.5498046875 2436.39115199 0.5498046875 2345.58789062 105.059570312 c 1,2,3
 2254 -1 2254 -1 2114.52636719 0.0009765625 c 0,4,5
 1938 1 1938 1 1847.03222656 110.913085938 c 1,6,7
 1764 -1 1764 -1 1617.50292969 -0.51953125 c 0,8,9
 1509 -0 1509 -0 1440.1640625 31.1435546875 c 1,10,11
 1383 -480 1383 -480 765 -479.5 c 0,12,13
 451 -479 451 -479 274.5 -322 c 128,-1,14
 98 -165 98 -165 97.90234375 139.110351562 c 0,15,16
 97.9997176671 310.503051798 97.9997176671 310.503051798 177.30078125 541.672851562 c 2,17,-1
 190.262695312 579.458007812 l 1,18,-1
 443.373046875 525.083007812 l 1,19,-1
 427.197265625 477.267578125 l 2,20,21
 361 282 361 282 361 156.5 c 0,22,23
 361 -180 361 -180 777.319335938 -179.6796875 c 0,24,25
 1000 -180 1000 -180 1102.09375 -96.6650390625 c 0,26,27
 1204 -13 1204 -13 1204 161.165039062 c 0,28,29
 1204 295.327585741 1204 295.327585741 1138.59960938 550.486328125 c 2,30,-1
 1126.97167969 595.852539062 l 1,31,-1
 1376.74023438 649.348632812 l 1,32,-1
 1386.35546875 604.126953125 l 2,33,34
 1430 399 1430 399 1460.88769531 364.834960938 c 0,35,36
 1500 322 1500 322 1578 322 c 128,-1,37
 1656 322 1656 322 1687.24804688 349.72265625 c 0,38,39
 1718.22134828 377.196338521 1718.22134828 377.196338521 1725.30957031 444.299804688 c 2,40,-1
 1748.51171875 663.952148438 l 1,41,-1
 1952.61035156 663.952148438 l 1,42,-1
 1976 448 l 2,43,44
 1991 313 1991 313 2108 316.5 c 0,45,46
 2199.46549111 319.190161503 2199.46549111 319.190161503 2212.95019531 455.995117188 c 6,47,-1
 2233.41699219 663.634765625 l 1,48,-1
 2433.37695312 663.634765625 l 1,49,-1
 2456.4453125 459.184570312 l 2,50,51
 2472.03583599 320.681640625 2472.03583599 320.681640625 2622.74511719 320.681640625 c 2,52,-1
 2659.50585938 320.681640625 l 1,53,-1
 2659.50585938 0.5498046875 l 1,54,-1
 2591.3984375 0.5498046875 l 2,0,1
EndSplineSet
EndChar

StartChar: uniFEB3
Encoding: 65203 65203 192
Width: 1735
VWidth: 2393
GlyphClass: 2
Flags: W
AnchorPoint: "Anchor-10" 770.466 1090.51 basechar 0
AnchorPoint: "Anchor-7" 799.645 -248.801 basechar 0
LayerCount: 2
Fore
SplineSet
1489.49609375 89.7314453125 m 0,0,1
 1386 -2 1386 -2 1220 -1.998046875 c 128,-1,2
 1054 -2 1054 -2 975.171875 104.27734375 c 1,3,4
 894 -2 894 -2 705.28515625 -0.9833984375 c 0,5,6
 517 0 517 0 412.967773438 118.606445312 c 1,7,8
 324 0 324 0 137.241210938 0 c 2,9,-1
 -11.42578125 0 l 1,10,-1
 -11.42578125 320.243164062 l 1,11,-1
 108.875976562 320.243164062 l 2,12,13
 199 320 199 320 240.638671875 352.022460938 c 0,14,15
 280.08613757 382.065602267 280.08613757 382.065602267 290.181640625 453.724609375 c 2,16,-1
 319.5546875 662.217773438 l 1,17,-1
 513.564453125 662.217773438 l 1,18,-1
 539.271484375 464.294921875 l 2,19,20
 559 314 559 314 706.900390625 313.27734375 c 0,21,22
 840.997439597 313.000005295 840.997439597 313.000005295 855.368164062 424.224609375 c 2,23,-1
 886.221679688 663.020507812 l 1,24,-1
 1081.13476562 663.020507812 l 1,25,-1
 1110.71777344 442.262695312 l 2,26,27
 1121 368 1121 368 1145.43652344 341.40234375 c 0,28,29
 1174 311 1174 311 1238.75195312 312.740234375 c 0,30,31
 1400 317 1400 317 1381.390625 536.155273438 c 4,32,33
 1375 614 1375 614 1296.28125 758.67578125 c 1,34,-1
 1526.39746094 849.501953125 l 1,35,36
 1638 697 1638 697 1638.03417969 507.23828125 c 0,37,38
 1638 222 1638 222 1489.49609375 89.7314453125 c 0,0,1
EndSplineSet
EndChar

StartChar: uniFEB4
Encoding: 65204 65204 193
Width: 1765
VWidth: 2432
GlyphClass: 2
Flags: W
AnchorPoint: "Anchor-10" 697.932 1085.02 basechar 0
AnchorPoint: "Anchor-7" 762.335 -220.246 basechar 0
LayerCount: 2
Fore
SplineSet
413.983398438 120.373046875 m 1,0,1
 326 0 326 0 137.30078125 0 c 2,2,-1
 -10.826171875 0 l 1,3,-1
 -10.826171875 320.240234375 l 1,4,-1
 94.330078125 320.2421875 l 2,5,6
 175 320 175 320 208.970703125 336.064453125 c 0,7,8
 279.742957702 368.880812157 279.742957702 368.880812157 290.001953125 449.9453125 c 2,9,-1
 316.791992188 661.634765625 l 1,10,-1
 506.102539062 661.634765625 l 1,11,-1
 534.96484375 468.307617188 l 2,12,13
 558 316 558 316 693.837890625 315.923828125 c 0,14,15
 814.64532144 315.999777022 814.64532144 315.999777022 835.25 444.512695312 c 2,16,-1
 870.061523438 661.634765625 l 1,17,-1
 1059.64648438 661.634765625 l 1,18,-1
 1091.34667969 446.6484375 l 2,19,20
 1111 314 1111 314 1226.51367188 316.517578125 c 0,21,22
 1314.6880098 317.994773192 1314.6880098 317.994773192 1331.28417969 456.584960938 c 6,23,-1
 1355.92285156 662.3359375 l 1,24,-1
 1549.515625 662.3359375 l 1,25,-1
 1578.49121094 453.099609375 l 2,26,27
 1588 382 1588 382 1625.38378906 352.43359375 c 0,28,29
 1664.70830614 321.231445312 1664.70830614 321.231445312 1740.390625 321.231445312 c 2,30,-1
 1775.61816406 321.231445312 l 1,31,-1
 1775.61816406 0 l 1,32,-1
 1696.20117188 0 l 2,33,34
 1548 0 1548 0 1461.765625 101.592773438 c 1,35,36
 1390 1 1390 1 1220.23242188 1.01171875 c 0,37,38
 1051 1 1051 1 964.569335938 110.087890625 c 1,39,40
 885 1 885 1 699.009765625 5.029296875 c 128,-1,41
 513 9 513 9 413.983398438 120.373046875 c 1,0,1
EndSplineSet
EndChar

StartChar: uniFEBA
Encoding: 65210 65210 199
Width: 2665
VWidth: 2393
GlyphClass: 2
Flags: W
AnchorPoint: "Anchor-10" 654.816 972.991 basechar 0
AnchorPoint: "Anchor-7" 547.364 -729.28 basechar 0
LayerCount: 2
Fore
SplineSet
1677.48242188 320.618164062 m 1,0,-1
 1784.30566406 320.618164062 l 2,1,2
 2045.3203125 321.29296875 2045.3203125 321.29296875 2098.97265625 336.868164062 c 0,3,4
 2216.55273438 371.000976562 2216.55273438 371.000976562 2216.73144531 485.328125 c 0,5,6
 2216.96289062 632.96875 2216.96289062 632.96875 2084.04492188 632.96875 c 0,7,8
 1931.11816406 632.966796875 1931.11816406 632.966796875 1677.48242188 320.618164062 c 1,0,-1
2627.87304688 -6 m 2,9,10
 2433 -6 2433 -6 2318.65820312 103.017578125 c 1,11,12
 2223 37 2223 37 2079.04827035 14.8213667643 c 0,13,14
 1935.21421349 -6.96754954969 1935.21421349 -6.96754954969 1752.98632812 -6.828125 c 2,15,-1
 1751.70996094 -6.8271484375 l 2,16,17
 1747.80693924 -6.880228333 1747.80693924 -6.880228333 1728.33984375 -6.7353515625 c 2,18,-1
 1629.39941406 -5.9990234375 l 2,19,20
 1509 -5 1509 -5 1441.82324219 40.044921875 c 1,21,22
 1420 -217 1420 -217 1250.45605469 -350 c 0,23,24
 1074 -488 1074 -488 756.655811245 -487.124734214 c 0,25,26
 439 -486 439 -486 265.5 -326.5 c 128,-1,27
 92 -167 92 -167 91.90234375 139.111328125 c 0,28,29
 92.0002827134 311.497615198 92.0002827134 311.497615198 171.625976562 543.620117188 c 2,30,-1
 186.315429688 586.442382812 l 1,31,-1
 451.213867188 529.53515625 l 1,32,-1
 432.880859375 475.344726562 l 2,33,34
 367 281 367 281 366.5 165.5 c 0,35,36
 366 2 366 2 464 -82 c 128,-1,37
 562 -166 562 -166 781 -166 c 128,-1,38
 1000 -166 1000 -166 1099.40039062 -84.4609375 c 128,-1,39
 1199 -3 1199 -3 1198.26074219 167.502929688 c 0,40,41
 1198.00072023 297.639535146 1198.00072023 297.639535146 1132.83398438 548.85546875 c 2,42,-1
 1119.46777344 600.381835938 l 1,43,-1
 1384.24804688 657.091796875 l 1,44,-1
 1394.49804688 602.35546875 l 2,45,46
 1419 474 1419 474 1440.73535156 424.233398438 c 5,47,48
 1786 911 1786 911 2094.12304688 911.103515625 c 0,49,50
 2288 911 2288 911 2390.27734375 794.541015625 c 0,51,52
 2489 683 2489 683 2487.40136719 479.204101562 c 0,53,54
 2487 421 2487 421 2471.95019531 359.936523438 c 1,55,56
 2512.83816802 326.133789062 2512.83816802 326.133789062 2655.53417969 326.133789062 c 2,57,-1
 2681.75585938 326.133789062 l 1,58,-1
 2681.75585938 -6 l 1,59,-1
 2627.87304688 -6 l 2,9,10
EndSplineSet
EndChar

StartChar: uniFEBB
Encoding: 65211 65211 200
Width: 1645
VWidth: 2393
GlyphClass: 2
Flags: W
AnchorPoint: "Anchor-10" 629.482 1132.67 basechar 0
AnchorPoint: "Anchor-7" 607.643 -245.479 basechar 0
LayerCount: 2
Fore
SplineSet
729.129882812 320.618164062 m 1,0,-1
 848.559570312 320.618164062 l 2,1,2
 1002.10839844 320.995117188 1002.10839844 320.995117188 1099.07226562 329.0703125 c 0,3,4
 1286.88085938 344.709960938 1286.88085938 344.709960938 1286.93554688 490.467773438 c 0,5,6
 1286.96875 577.282226562 1286.96875 577.282226562 1254.41503906 611.125976562 c 128,-1,7
 1221.86230469 644.96875 1221.86230469 644.96875 1147.67578125 644.96875 c 0,8,9
 989.653320312 644.96875 989.653320312 644.96875 729.129882812 320.618164062 c 1,0,-1
512.78515625 427.129882812 m 1,10,11
 858 911 858 911 1160.38085938 911.103515625 c 0,12,13
 1355 911 1355 911 1453.21777344 796.399414062 c 0,14,15
 1551 682 1551 682 1547.64746094 475.448242188 c 0,16,17
 1543 193 1543 193 1337.10839844 81.0224609375 c 0,18,19
 1184.81467632 -1.09993336762 1184.81467632 -1.09993336762 819.232421875 -0.828125 c 2,20,-1
 817.918945312 -0.8271484375 l 2,21,22
 814.199457821 -0.881089386776 814.199457821 -0.881089386776 794.627929688 -0.7353515625 c 2,23,-1
 695.61328125 0.001953125 l 2,24,25
 500 1 500 1 385.149414062 143.032226562 c 1,26,27
 256 0 256 0 63.4609375 0 c 2,28,-1
 -13.6220703125 0 l 1,29,-1
 -13.6220703125 320.243164062 l 1,30,-1
 34.2099609375 320.243164062 l 2,31,32
 218.315414791 319.971498188 218.315414791 319.971498188 238.55078125 461.444335938 c 6,33,-1
 267.27734375 662.282226562 l 1,34,-1
 469.95703125 662.282226562 l 1,35,-1
 494.749023438 506.793945312 l 2,36,37
 504 446 504 446 512.78515625 427.129882812 c 1,10,11
EndSplineSet
EndChar

StartChar: uniFEBC
Encoding: 65212 65212 201
Width: 1730
VWidth: 2393
GlyphClass: 2
Flags: W
AnchorPoint: "Anchor-10" 684.328 1163.16 basechar 0
AnchorPoint: "Anchor-7" 695.919 -280.622 basechar 0
LayerCount: 2
Fore
SplineSet
729.129882812 321.618164062 m 1,0,-1
 848.559570312 321.618164062 l 2,1,2
 1002.10839844 321.995117188 1002.10839844 321.995117188 1099.07226562 330.0703125 c 0,3,4
 1286.88085938 345.709960938 1286.88085938 345.709960938 1286.93554688 491.467773438 c 0,5,6
 1286.96875 578.282226562 1286.96875 578.282226562 1254.41503906 612.125976562 c 128,-1,7
 1221.86230469 645.96875 1221.86230469 645.96875 1147.67578125 645.96875 c 0,8,9
 989.653320312 645.96875 989.653320312 645.96875 729.129882812 321.618164062 c 1,0,-1
1531.0625 364.087890625 m 1,10,11
 1589.42807726 320.681640625 1589.42807726 320.681640625 1717.29296875 320.681640625 c 2,12,-1
 1740.51464844 320.681640625 l 1,13,-1
 1740.51464844 0.5498046875 l 1,14,-1
 1693.74023438 0.5498046875 l 2,15,16
 1493 1 1493 1 1385.1953125 112.020507812 c 1,17,18
 1230.81497011 -1.13562131839 1230.81497011 -1.13562131839 817.232421875 -0.828125 c 2,19,-1
 815.918945312 -0.8271484375 l 1,20,21
 812 1 812 1 809.57955794 -0.0663943020709 c 0,22,23
 807.426746864 -0.845549775048 807.426746864 -0.845549775048 792.627929688 -0.7353515625 c 2,24,-1
 693.61328125 0.001953125 l 2,25,26
 498 1 498 1 383.177734375 142.998046875 c 1,27,28
 254 0 254 0 64.4609375 0 c 2,29,-1
 -13.6220703125 0 l 1,30,-1
 -13.6220703125 320.243164062 l 1,31,-1
 33.208984375 320.243164062 l 2,32,33
 221.970616688 319.80514898 221.970616688 319.80514898 239.48046875 459.791015625 c 6,34,-1
 264.68359375 661.282226562 l 1,35,-1
 467.95703125 661.282226562 l 1,36,-1
 490.749023438 506.793945312 l 2,37,38
 498 454 498 454 510.78515625 428.129882812 c 1,39,40
 859 916 859 916 1158.38085938 912.103515625 c 0,41,42
 1166 912 1166 912 1172.96875 911.939453125 c 0,43,44
 1360 908 1360 908 1455.5 794.5 c 128,-1,45
 1551 681 1551 681 1545.640625 476.138671875 c 0,46,47
 1544 416 1544 416 1531.0625 364.087890625 c 1,10,11
EndSplineSet
EndChar

StartChar: uniFEC2
Encoding: 65218 65218 207
Width: 1571
VWidth: 2393
GlyphClass: 2
Flags: W
AnchorPoint: "Anchor-7" 661.701 -240.714 basechar 0
AnchorPoint: "Anchor-10" 422.876 1685.38 basechar 0
LayerCount: 2
Fore
SplineSet
577.616210938 690.068359375 m 1,0,1
 803 912 803 912 1004.74414062 911.959960938 c 0,2,3
 1207 912 1207 912 1306.16894531 796.189453125 c 0,4,5
 1406 680 1406 680 1400.13671875 475.62109375 c 0,6,7
 1398 406 1398 406 1386.88183594 359.352539062 c 5,8,9
 1427.3330156 320.681640625 1427.3330156 320.681640625 1552.41894531 320.681640625 c 2,10,-1
 1580.98730469 320.681640625 l 1,11,-1
 1580.98730469 0.5498046875 l 1,12,-1
 1487.71777344 0.5498046875 l 2,13,14
 1336 1 1336 1 1232.46289062 97.8330078125 c 1,15,16
 1072 -4 1072 -4 671.360351562 -0.08984375 c 0,17,18
 663 0 663 0 653.94921875 0 c 2,19,-1
 97.7392578125 0 l 1,20,-1
 97.7392578125 320.102539062 l 1,21,-1
 273.529296875 320.248046875 l 1,22,23
 296 351 296 351 318.662109375 381.032226562 c 1,24,-1
 318.662109375 1523.81542969 l 1,25,-1
 577.616210938 1523.81542969 l 1,26,-1
 577.616210938 690.068359375 l 1,0,1
583.657226562 321.35546875 m 1,27,-1
 703.161132812 321.35546875 l 2,28,29
 904.230074338 321.016471836 904.230074338 321.016471836 982.859375 329.090820312 c 0,30,31
 1167 348 1167 348 1137.07910156 540.337890625 c 0,32,33
 1121 646 1121 646 996.59375 645.799804688 c 0,34,35
 927 646 927 646 820.783203125 565.150390625 c 0,36,37
 715 484 715 484 583.657226562 321.35546875 c 1,27,-1
EndSplineSet
EndChar

StartChar: uniFEC3
Encoding: 65219 65219 208
Width: 1358
VWidth: 2438
GlyphClass: 2
Flags: W
AnchorPoint: "Anchor-10" 284.745 1695.08 basechar 0
AnchorPoint: "Anchor-7" 488.394 -235.622 basechar 0
LayerCount: 2
Fore
SplineSet
443.778320312 322.35546875 m 1,0,-1
 563.1640625 322.35546875 l 2,1,2
 722.731445312 322.768554688 722.731445312 322.768554688 817.012695312 330.825195312 c 0,3,4
 1001.36523438 346.577148438 1001.36523438 346.577148438 1001.56347656 478.291015625 c 0,5,6
 1001.81835938 646.711914062 1001.81835938 646.711914062 874.021484375 646.708984375 c 0,7,8
 704.46875 646.703125 704.46875 646.703125 443.778320312 322.35546875 c 1,0,-1
437.737304688 690.884765625 m 1,9,10
 663 910 663 910 864.350585938 908.723632812 c 0,11,12
 1066 907 1066 907 1165.12109375 794.5 c 0,13,14
 1263 683 1263 683 1260.26855469 477.108398438 c 0,15,16
 1256 185 1256 185 1057.69921875 78.412109375 c 0,17,18
 897 -8 897 -8 531.53515625 -0.08984375 c 0,19,20
 527 0 527 0 522.62109375 0 c 2,21,-1
 -15.1396484375 0 l 1,22,-1
 -15.1396484375 320.102539062 l 5,23,-1
 133.650390625 320.248046875 l 1,24,25
 155 355 155 355 178.783203125 389.032226562 c 1,26,-1
 178.783203125 1523.81542969 l 1,27,-1
 437.737304688 1523.81542969 l 1,28,-1
 437.737304688 690.884765625 l 1,9,10
EndSplineSet
EndChar

StartChar: uniFEC4
Encoding: 65220 65220 209
Width: 1430
VWidth: 2438
GlyphClass: 2
Flags: W
AnchorPoint: "Anchor-10" 302.112 1692.67 basechar 0
AnchorPoint: "Anchor-7" 569.839 -253.193 basechar 0
LayerCount: 2
Fore
SplineSet
437.533203125 691.06640625 m 1,0,1
 663 913 663 913 864.661132812 912.958007812 c 0,2,3
 1067 913 1067 913 1166.0859375 797.1875 c 0,4,5
 1266 681 1266 681 1260.05371094 476.619140625 c 0,6,7
 1258 417 1258 417 1245.79882812 365.350585938 c 5,8,9
 1292.33367796 320.6796875 1292.33367796 320.6796875 1412.3359375 320.6796875 c 2,10,-1
 1440.90429688 320.6796875 l 1,11,-1
 1440.90429688 0.5478515625 l 1,12,-1
 1347.63476562 0.5478515625 l 2,13,14
 1196 1 1196 1 1092.37988281 97.8310546875 c 1,15,16
 932 -4 932 -4 531.27734375 -0.091796875 c 0,17,18
 523.176113697 -0.001953125 523.176113697 -0.001953125 513.866210938 -0.001953125 c 2,19,-1
 -15.34375 -0.001953125 l 1,20,-1
 -15.34375 320.100585938 l 1,21,-1
 133.446289062 320.24609375 l 1,22,23
 155 355 155 355 178.579101562 389.030273438 c 1,24,-1
 178.579101562 1523.81347656 l 1,25,-1
 437.533203125 1523.81347656 l 1,26,-1
 437.533203125 691.06640625 l 1,0,1
443.57421875 322.353515625 m 1,27,-1
 563.078125 322.353515625 l 2,28,29
 764.169654813 322.019642002 764.169654813 322.019642002 842.776367188 330.088867188 c 0,30,31
 1027 349 1027 349 996.99609375 541.3359375 c 0,32,33
 981 647 981 647 856.510742188 646.797851562 c 0,34,35
 787 647 787 647 680.700195312 566.1484375 c 0,36,37
 575 485 575 485 443.57421875 322.353515625 c 1,27,-1
EndSplineSet
EndChar

StartChar: uniFECA
Encoding: 65226 65226 215
Width: 1264
VWidth: 2393
GlyphClass: 2
Flags: W
AnchorPoint: "Anchor-10" 760.28 1252.35 basechar 0
AnchorPoint: "Anchor-7" 560.435 -706.551 basechar 0
LayerCount: 2
Fore
SplineSet
714.409179688 679.1015625 m 5,0,1
 813 715 813 715 876.071289062 770.96484375 c 5,2,3
 847.376953125 783.379882812 847.376953125 783.379882812 766.518554688 784.133789062 c 132,-1,4
 685.66015625 784.887695312 685.66015625 784.887695312 656.157226562 768.350585938 c 5,5,6
 667.754882812 736.22265625 667.754882812 736.22265625 714.409179688 679.1015625 c 5,0,1
838.862304688 492.055664062 m 5,7,8
 947.201259919 320.681640625 947.201259919 320.681640625 1236.79882812 320.681640625 c 6,9,-1
 1279.86816406 320.681640625 l 5,10,-1
 1279.86816406 0.5498046875 l 5,11,-1
 1255.59863281 0.5498046875 l 6,12,13
 846 1 846 1 628.579101562 378.836914062 c 5,14,15
 351 234 351 234 350.999023438 51.890625 c 4,16,17
 351 -79 351 -79 455.732421875 -158.510742188 c 4,18,19
 560 -238 560 -238 779.872070312 -237.994140625 c 4,20,21
 983 -238 983 -238 1116.11425781 -190.955078125 c 5,22,-1
 1183.07617188 -482.083984375 l 5,23,-1
 1146.17578125 -497.551757812 l 6,24,25
 1021 -550 1021 -550 804.178710938 -547.564453125 c 4,26,27
 453 -544 453 -544 273.767578125 -384.344726562 c 4,28,29
 78 -208 78 -208 98.1279296875 37.90625 c 4,30,31
 119 284 119 284 339.958007812 468.34765625 c 4,32,33
 410 527 410 527 489.178710938 569.083984375 c 5,34,35
 299 783 299 783 440.077148438 921.517578125 c 4,36,37
 564 1043 564 1043 770.615234375 1043.52832031 c 4,38,39
 977 1044 977 1044 1127.44238281 911.487304688 c 4,40,41
 1180 865 1180 865 1184.70019531 806.3125 c 4,42,43
 1189 748 1189 748 1143.2734375 695.116210938 c 4,44,45
 1074 616 1074 616 838.862304688 492.055664062 c 5,7,8
EndSplineSet
EndChar

StartChar: uniFECB
Encoding: 65227 65227 216
Width: 1133
VWidth: 2438
GlyphClass: 2
Flags: W
AnchorPoint: "Anchor-10" 466.469 1284.59 basechar 0
AnchorPoint: "Anchor-7" 432.792 -246.055 basechar 0
LayerCount: 2
Fore
SplineSet
823.348632812 662.959960938 m 2,0,1
 703.314708676 770.074212892 703.314708676 770.074212892 538.431640625 731.192382812 c 0,2,3
 430 705 430 705 394.533203125 618.077148438 c 0,4,5
 384 592 384 592 383.104492188 558.951171875 c 0,6,7
 381 485 381 485 434.924804688 434.583984375 c 128,-1,8
 489 384 489 384 614.034179688 355.14453125 c 1,9,-1
 1035.56542969 444.954101562 l 1,10,-1
 1035.56542969 120.162109375 l 1,11,-1
 997.505859375 111.220703125 l 6,12,13
 602.742296681 22.8900349174 602.742296681 22.8900349174 567.452166525 13.9879865777 c 0,14,15
 511.904751 -0.0240268652823 511.904751 -0.0240268652823 382.00390625 -0.017578125 c 2,16,-1
 -11.42578125 0.001953125 l 1,17,-1
 -11.42578125 320.23828125 l 1,18,-1
 201.500976562 320.267578125 l 1,19,20
 125 414 125 414 122.32421875 544.883789062 c 0,21,22
 118 782 118 782 312.01171875 913.580078125 c 0,23,24
 474 1023 474 1023 694.5078125 982.348632812 c 0,25,26
 849.8382336 954.029492519 849.8382336 954.029492519 941.864257812 849.064453125 c 2,27,-1
 960.853515625 827.405273438 l 1,28,-1
 869.33984375 621.918945312 l 1,29,-1
 823.348632812 662.959960938 l 2,0,1
EndSplineSet
EndChar

StartChar: uniFECC
Encoding: 65228 65228 217
Width: 1023
VWidth: 2438
GlyphClass: 2
Flags: W
AnchorPoint: "Anchor-10" 510.221 1208.02 basechar 0
AnchorPoint: "Anchor-7" 493.747 -246.055 basechar 0
LayerCount: 2
Fore
SplineSet
647.606445312 648.333984375 m 5,0,1
 608.548828125 664.0859375 608.548828125 664.0859375 523.995117188 664.0859375 c 132,-1,2
 439.440429688 664.0859375 439.440429688 664.0859375 400.3828125 648.333984375 c 5,3,4
 435.7421875 609.373046875 435.7421875 609.373046875 523.995117188 544.934570312 c 5,5,6
 612.251953125 609.377929688 612.251953125 609.377929688 647.606445312 648.333984375 c 5,0,1
971.284179688 0.5498046875 m 1,7,8
 695 3 695 3 511.340820312 165.080078125 c 1,9,10
 317 0 317 0 44.8740234375 0 c 2,11,-1
 -10.2451171875 0 l 1,12,-1
 -10.2451171875 320.243164062 l 5,13,-1
 19.041015625 320.243164062 l 6,14,15
 237 320 237 320 349.029296875 416.40625 c 5,16,17
 155 520 155 520 108.841796875 594.998046875 c 4,18,19
 95 618 95 618 95.25390625 641.635742188 c 4,20,21
 95 769 95 769 279.422851562 854.907226562 c 4,22,23
 419 920 419 920 606.209960938 898.686523438 c 4,24,25
 691 889 691 889 772.678710938 850.452148438 c 4,26,27
 854 812 854 812 906 758 c 132,-1,28
 958 704 958 704 945 642.5 c 132,-1,29
 932 581 932 581 869.071289062 530.032226562 c 132,-1,30
 806 479 806 479 686.458007812 414.543945312 c 5,31,32
 795.516640061 315.439243019 795.516640061 315.439243019 1001.15820312 320.2421875 c 6,33,-1
 1036.78222656 321.07421875 l 5,34,-1
 1036.78222656 0.5498046875 l 1,35,-1
 1004.25390625 0.5244140625 l 1,36,-1
 973.740234375 0.5478515625 l 2,37,38
 974 1 974 1 972.826171875 0.5498046875 c 2,39,-1
 971.284179688 0.5498046875 l 1,7,8
EndSplineSet
EndChar

StartChar: uniFEDA
Encoding: 65242 65242 231
Width: 2050
VWidth: 2438
GlyphClass: 2
Flags: W
AnchorPoint: "Anchor-10" 682.503 1532 basechar 0
AnchorPoint: "Anchor-7" 903.25 -202.125 basechar 0
LayerCount: 2
Fore
SplineSet
801.0546875 875.872070312 m 2,0,1
 864.071289062 867.684570312 864.071289062 867.684570312 922.310546875 867.684570312 c 128,-1,2
 980.549804688 867.684570312 980.549804688 867.684570312 1035.796875 889.192382812 c 128,-1,3
 1091.04296875 910.700195312 1091.04296875 910.700195312 1091.04296875 940.48046875 c 128,-1,4
 1091.04296875 970.122070312 1091.04296875 970.122070312 1016.5078125 981.85546875 c 128,-1,5
 941.971679688 993.587890625 941.971679688 993.587890625 897.586914062 1042.22460938 c 128,-1,6
 853.203125 1090.86035156 853.203125 1090.86035156 854.685546875 1155.43652344 c 0,7,8
 857.452148438 1275.8984375 857.452148438 1275.8984375 955.352539062 1325.46972656 c 128,-1,9
 1053.25292969 1375.04101562 1053.25292969 1375.04101562 1179.453125 1383.54199219 c 2,10,-1
 1227.47753906 1386.77636719 l 1,11,-1
 1227.47753906 1243.21484375 l 1,12,-1
 1185.88671875 1240.0546875 l 2,13,14
 1024.58691406 1227.74804688 1024.58691406 1227.74804688 1001.89355469 1174.29492188 c 24,15,16
 991 1148 991 1148 1014.85644531 1128.04785156 c 0,17,18
 1026.87304688 1117.9375 1026.87304688 1117.9375 1070.16894531 1111.5703125 c 128,-1,19
 1113.46484375 1105.203125 1113.46484375 1105.203125 1146.92578125 1095.08691406 c 128,-1,20
 1180.38769531 1084.97070312 1180.38769531 1084.97070312 1209.02832031 1049.13671875 c 128,-1,21
 1237.66992188 1013.30175781 1237.66992188 1013.30175781 1237.66992188 956.365234375 c 128,-1,22
 1237.66992188 899.428710938 1237.66992188 899.428710938 1204.16210938 847.348632812 c 128,-1,23
 1170.65527344 795.267578125 1170.65527344 795.267578125 1109.0703125 760.440429688 c 0,24,25
 989.517578125 692.83203125 989.517578125 692.83203125 787.958007812 725.96484375 c 2,26,-1
 750.256835938 732.162109375 l 1,27,-1
 750.256835938 882.471679688 l 1,28,-1
 801.0546875 875.872070312 l 2,0,1
1851 360 m 1,29,30
 1895.35917468 320.681640625 1895.35917468 320.681640625 2002.04589844 320.681640625 c 2,31,-1
 2068.74316406 320.681640625 l 1,32,-1
 2068.74316406 0.5498046875 l 1,33,-1
 1999.4140625 0.5498046875 l 2,34,35
 1840 1 1840 1 1674.02539062 112.119140625 c 1,36,37
 1515 29 1515 29 1271 10 c 128,-1,38
 1027 -9 1027 -9 817.174804688 9.060546875 c 0,39,40
 608 27 608 27 503.446289062 56.078125 c 128,-1,41
 399 85 399 85 309.338867188 150.616210938 c 0,42,43
 126 284 126 284 99.0556640625 535.688476562 c 0,44,45
 85.0086478495 671.916133344 85.0086478495 671.916133344 138.439453125 823.259765625 c 2,46,-1
 151.389648438 859.94140625 l 1,47,-1
 405.438476562 809.969726562 l 1,48,49
 339 607 339 607 402.159179688 495.196289062 c 0,50,51
 486 346 486 346 762.34375 320.05078125 c 4,52,53
 1043 293 1043 293 1295.11035156 320.4765625 c 0,54,55
 1440 336 1440 336 1520.02148438 386.112304688 c 0,56,57
 1599.72790632 436.826875753 1599.72790632 436.826875753 1606.41894531 515.080078125 c 2,58,-1
 1610.48828125 562.671875 l 1,59,-1
 1610.48828125 1524.27050781 l 1,60,-1
 1867.82421875 1524.27050781 l 1,61,-1
 1867.82421875 490.111328125 l 2,62,63
 1868 398 1868 398 1851 360 c 1,29,30
EndSplineSet
EndChar

StartChar: uniFEDB
Encoding: 65243 65243 232
Width: 913
VWidth: 2438
GlyphClass: 2
Flags: W
AnchorPoint: "Anchor-10" 256.26 1585.73 basechar 0
AnchorPoint: "Anchor-7" 385.043 -209.264 basechar 0
LayerCount: 2
Fore
SplineSet
749.05078125 178.662109375 m 1,0,1
 636 0 636 0 347.633789062 0 c 2,2,-1
 -10.1650390625 0 l 1,3,-1
 -10.1650390625 320.239257812 l 5,4,-1
 302.264648438 320.26953125 l 2,5,6
 487 320 487 320 536.640625 371.1875 c 0,7,8
 565 400 565 400 556.638671875 449.756835938 c 0,9,10
 546 517 546 517 430.76953125 624.6875 c 0,11,12
 318 731 318 731 105.733398438 855.579101562 c 0,13,14
 1 917 1 917 0.7578125 1061.60253906 c 0,15,16
 1.00011867903 1206.07075902 1.00011867903 1206.07075902 145.31640625 1276.50292969 c 2,17,-1
 862 1626.2734375 l 1,18,-1
 862 1348 l 1,19,-1
 283.469726562 1068.41992188 l 1,20,21
 570 859 570 859 640.000976562 783.385742188 c 0,22,23
 927 472 927 472 749.05078125 178.662109375 c 1,0,1
EndSplineSet
EndChar

StartChar: uniFEDC
Encoding: 65244 65244 233
Width: 1009
VWidth: 2438
GlyphClass: 2
Flags: W
AnchorPoint: "Anchor-10" 266.046 1554.97 basechar 0
AnchorPoint: "Anchor-7" 402.615 -281.748 basechar 0
LayerCount: 2
Fore
SplineSet
705.388671875 121.485351562 m 1,0,1
 576 0 576 0 348.633789062 0 c 2,2,-1
 -10.1650390625 0 l 1,3,-1
 -10.1650390625 320.239257812 l 5,4,-1
 303.26171875 320.26953125 l 5,5,6
 485 319 485 319 536.7265625 370.782226562 c 4,7,8
 565 399 565 399 557.599609375 441.994140625 c 0,9,10
 532 605 532 605 106.831054688 855.520507812 c 0,11,12
 2 917 2 917 2.1787109375 1061.77636719 c 0,13,14
 1.9997846007 1206.17383195 1.9997846007 1206.17383195 146.31640625 1276.50292969 c 2,15,-1
 862 1625.2734375 l 1,16,-1
 862 1347 l 1,17,-1
 284.397460938 1068.38476562 l 1,18,19
 575 856 575 856 635.903320312 789.3046875 c 0,20,21
 764 649 764 649 822.673828125 460.279296875 c 0,22,23
 844 393 844 393 888.079101562 355.139648438 c 4,24,25
 929.381595952 320.681640625 929.381595952 320.681640625 992.250976562 320.681640625 c 6,26,-1
 1025.75976562 320.681640625 l 5,27,-1
 1025.75976562 0.5498046875 l 1,28,-1
 1000.296875 0.5498046875 l 2,29,30
 802 1 802 1 705.388671875 121.485351562 c 1,0,1
EndSplineSet
EndChar

StartChar: uniFEDE
Encoding: 65246 65246 235
Width: 1531
VWidth: 2438
GlyphClass: 2
Flags: W
AnchorPoint: "Anchor-10" 532.594 1010.33 basechar 0
AnchorPoint: "Anchor-7" 437.969 -723.57 basechar 0
LayerCount: 2
Fore
SplineSet
1507.12402344 0.5498046875 m 2,0,1
 1400.92859377 0.5498046875 1400.92859377 0.5498046875 1316.62597656 41.4208984375 c 1,2,3
 1294 -204 1294 -204 1159.58203125 -348.885742188 c 0,4,5
 1001 -520 1001 -520 721.263671875 -519.482421875 c 0,6,7
 441 -519 441 -519 269.346679688 -369.129882812 c 0,8,9
 98 -219 98 -219 98.3564453125 66.994140625 c 0,10,11
 99.0013418208 214.306509327 99.0013418208 214.306509327 148.69140625 346.974609375 c 2,12,-1
 162.232421875 383.127929688 l 1,13,-1
 402.575195312 332.98046875 l 1,14,-1
 389.370117188 286.500976562 l 1,15,16
 293 -74 293 -74 509.255859375 -172.74609375 c 4,17,18
 593 -211 593 -211 748.012695312 -210.504882812 c 4,19,20
 1063.39123135 -208.998130854 1063.39123135 -208.998130854 1062.90625 122.974609375 c 6,21,-1
 1062.43359375 446.510742188 l 1,22,-1
 1062.43359375 1523.08789062 l 1,23,-1
 1320.29003906 1523.08789062 l 1,24,-1
 1320.29003906 530.9921875 l 2,25,26
 1320 417 1320 417 1361.16992188 368.8125 c 128,-1,27
 1402.27186694 320.681640625 1402.27186694 320.681640625 1491.59863281 320.681640625 c 2,28,-1
 1534.13378906 320.681640625 l 1,29,-1
 1534.13378906 0.5498046875 l 1,30,-1
 1507.12402344 0.5498046875 l 2,0,1
EndSplineSet
EndChar

StartChar: uniFEDF
Encoding: 65247 65247 236
Width: 599
VWidth: 2438
GlyphClass: 2
Flags: W
AnchorPoint: "Anchor-10" 317.619 1697.34 basechar 0
AnchorPoint: "Anchor-7" 252.823 -227.385 basechar 0
LayerCount: 2
Fore
SplineSet
4.798828125 320.243164062 m 6,0,1
 206.811523437 320.243164062 206.811523437 320.243164062 206.811523438 585.022460938 c 6,2,-1
 206.811523438 1523.30664062 l 1,3,-1
 465.766601562 1523.30664062 l 1,4,-1
 465.766601562 570.921875 l 6,5,6
 466 261 466 261 342.383300781 130.284204864 c 0,7,8
 219 0 219 0 58.4013671875 -0 c 2,9,-1
 -13.6220703125 0 l 1,10,-1
 -13.6220703125 320.243164062 l 5,11,-1
 4.798828125 320.243164062 l 6,0,1
EndSplineSet
EndChar

StartChar: uniFEE0
Encoding: 65248 65248 237
Width: 713
VWidth: 2438
GlyphClass: 2
Flags: W
AnchorPoint: "Anchor-10" 367.605 1693.99 basechar 0
AnchorPoint: "Anchor-7" 267.674 -225.188 basechar 0
LayerCount: 2
Fore
SplineSet
626.83203125 0 m 2,0,1
 489 0 489 0 377.2265625 102.321289062 c 1,2,3
 262 0 262 0 88.62890625 0 c 2,4,-1
 -9.7529296875 0 l 1,5,-1
 -9.7529296875 320.243164062 l 5,6,-1
 23.998046875 320.243164062 l 6,7,8
 143 320 143 320 195.685546875 369.994140625 c 4,9,10
 248.012695313 419.970861667 248.012695313 419.970861667 248.012695312 530.967773438 c 6,11,-1
 248.012695312 1523.171875 l 1,12,-1
 506.967773438 1523.171875 l 1,13,-1
 506.967773438 530.959960938 l 6,14,15
 507 417 507 417 550.391601562 368.62109375 c 132,-1,16
 593.781905455 320.243164062 593.781905455 320.243164062 691.462890625 320.243164062 c 6,17,-1
 725.211914062 320.243164062 l 5,18,-1
 725.211914062 0 l 1,19,-1
 626.83203125 0 l 2,0,1
EndSplineSet
EndChar

StartChar: uniFEE2
Encoding: 65250 65250 239
Width: 1323
VWidth: 2171
GlyphClass: 2
Flags: W
AnchorPoint: "Anchor-10" 503.856 1209.66 basechar 0
AnchorPoint: "Anchor-7" 230.563 -580.646 basechar 0
LayerCount: 2
Fore
SplineSet
717.47265625 530.434570312 m 1,0,-1
 716.915039062 490.834960938 l 2,1,2
 714 267 714 267 817.706054688 256.521484375 c 0,3,4
 870.854430455 251.214250017 870.854430455 251.214250017 896.686523438 273.360351562 c 0,5,6
 928 300 928 300 938.001953125 359.7265625 c 0,7,8
 948 421 948 421 942.616210938 462.107421875 c 0,9,10
 936 516 936 516 889.15234375 527.51171875 c 0,11,12
 808 546 808 546 717.47265625 530.434570312 c 1,0,-1
97.6396484375 189.83984375 m 2,13,14
 97.6396484375 498.68796504 97.6396484375 498.68796504 269.172851562 647.221679688 c 0,15,16
 441 796 441 796 786.288085938 787.184570312 c 0,17,18
 951 783 951 783 1039.13671875 738.104492188 c 0,19,20
 1211 651 1211 651 1177.34472656 382.030273438 c 1,21,22
 1223.85181459 319.200195312 1223.85181459 319.200195312 1315.55957031 319.200195312 c 2,23,-1
 1332.3203125 319.200195312 l 1,24,-1
 1332.3203125 0 l 1,25,-1
 1314.51953125 0 l 2,26,27
 1198 0 1198 0 1087.98730469 79.673828125 c 1,28,29
 989 -49 989 -49 802.466796875 -42.6162109375 c 0,30,31
 699 -39 699 -39 622.209960938 15.5166015625 c 4,32,33
 460 132 460 132 478.360351562 478.809570312 c 1,34,35
 356.360351563 428.1605999 356.360351563 428.1605999 356.360351562 174.240234375 c 2,36,-1
 356.360351562 -483.440429688 l 1,37,-1
 97.6396484375 -483.440429688 l 1,38,-1
 97.6396484375 189.83984375 l 2,13,14
EndSplineSet
EndChar

StartChar: uniFEE3
Encoding: 65251 65251 240
Width: 984
VWidth: 2393
GlyphClass: 2
Flags: W
AnchorPoint: "Anchor-10" 411.291 1050.38 basechar 0
AnchorPoint: "Anchor-7" 417.881 -189.849 basechar 0
LayerCount: 2
Fore
SplineSet
265.520507812 85.19140625 m 1,0,1
 182 0 182 0 38.3056640625 0 c 2,2,-1
 -11.42578125 0 l 1,3,-1
 -11.42578125 320.243164062 l 5,4,-1
 39.8359375 320.241210938 l 6,5,6
 101 320 101 320 135 412 c 4,7,8
 215 630 215 630 311.646484375 746.547851562 c 4,9,10
 413 867 413 867 556.5 867 c 132,-1,11
 700 867 700 867 784 749 c 132,-1,12
 868 631 868 631 885.883789062 416.262695312 c 4,13,14
 887 403 887 403 887 377.5 c 4,15,16
 887 187 887 187 805.46484375 96.59375 c 0,17,18
 722 4 722 4 584.538085938 4.3427734375 c 0,19,20
 386 4 386 4 265.520507812 85.19140625 c 1,0,1
374.53125 350.552734375 m 5,21,22
 498 293 498 293 552.922851562 295.771484375 c 4,23,24
 601 298 601 298 625.166992188 325.368164062 c 4,25,26
 656 361 656 361 633.614257812 489.5234375 c 4,27,28
 613 603 613 603 553.990234375 602.610351562 c 4,29,30
 459 602 459 602 374.53125 350.552734375 c 5,21,22
EndSplineSet
EndChar

StartChar: uniFEE4
Encoding: 65252 65252 241
Width: 1052
VWidth: 2393
GlyphClass: 2
Flags: W
AnchorPoint: "Anchor-10" 496.252 1162.44 basechar 0
AnchorPoint: "Anchor-7" 546.483 -208.715 basechar 0
LayerCount: 2
Fore
SplineSet
374.580078125 350.587890625 m 5,0,1
 499 293 499 293 552.984375 295.756835938 c 4,2,3
 596 298 596 298 616.0078125 320.251953125 c 4,4,5
 650 358 650 358 641.89453125 453.975585938 c 4,6,7
 633 566 633 566 580.911132812 595.3828125 c 4,8,9
 569 602 569 602 555.038085938 602.611328125 c 4,10,11
 514 602 514 602 466.146484375 541.97265625 c 4,12,13
 419 482 419 482 374.580078125 350.587890625 c 5,0,1
1060.23730469 0.2919921875 m 1,14,-1
 1040.25585938 0.0009765625 l 2,15,16
 903 -2 903 -2 799.662109375 90.5537109375 c 1,17,18
 718 4 718 4 579.541015625 4.3427734375 c 0,19,20
 386 4 386 4 265.548828125 85.109375 c 1,21,22
 183 0 183 0 42.3056640625 0 c 2,23,-1
 -11.42578125 0 l 1,24,-1
 -11.42578125 320.243164062 l 5,25,-1
 54.8349609375 320.241210938 l 6,26,27
 101 320 101 320 126 392 c 4,28,29
 210 628 210 628 306.146484375 740.547851562 c 4,30,31
 413 867 413 867 548.4609375 867.188476562 c 4,32,33
 732 867 732 867 819.477539062 695.493164062 c 4,34,35
 861 614 861 614 875.5 508 c 132,-1,36
 890 402 890 402 928.827148438 361.181640625 c 132,-1,37
 967.653510229 320.364257812 967.653510229 320.364257812 1040.23046875 320.364257812 c 6,38,-1
 1060.23730469 320.364257812 l 5,39,-1
 1060.23730469 0.2919921875 l 1,14,-1
EndSplineSet
EndChar

StartChar: uniFEEA
Encoding: 65258 65258 247
Width: 1117
VWidth: 2438
GlyphClass: 2
Flags: W
AnchorPoint: "Anchor-10" 709.009 1219.95 basechar 0
AnchorPoint: "Anchor-7" 426.482 -209.264 basechar 0
LayerCount: 2
Fore
SplineSet
681.8125 461.24609375 m 1,0,-1
 673.326171875 674.81640625 l 1,1,2
 403 633 403 633 357 544.04296875 c 0,3,4
 345 521 345 521 352.399414062 493.674804688 c 0,5,6
 370 436 370 436 681.8125 461.24609375 c 1,0,-1
1093.09472656 0 m 2,7,8
 829 0 829 0 738.063476562 181.368164062 c 1,9,10
 388 141 388 141 224.579101562 238.75 c 0,11,12
 101 313 101 313 97.20703125 487.07421875 c 4,13,14
 90 835 90 835 667.762695312 911.141601562 c 1,15,-1
 665.744140625 996.624023438 l 1,16,-1
 902.6640625 1009.54394531 l 1,17,-1
 915.521484375 526.430664062 l 2,18,19
 918 415 918 415 960.3125 367.689453125 c 0,20,21
 1001.67900527 320.367209911 1001.67900527 320.367209911 1091.57421875 320.265625 c 2,22,-1
 1127.00585938 320.225585938 l 1,23,-1
 1127.00585938 0 l 1,24,-1
 1093.09472656 0 l 2,7,8
EndSplineSet
EndChar

StartChar: uniFEEB
Encoding: 65259 65259 248
Width: 1340
VWidth: 2393
GlyphClass: 2
Flags: W
AnchorPoint: "Anchor-10" 451.683 1457.48 basechar 0
AnchorPoint: "Anchor-7" 324.843 -213.598 basechar 0
LayerCount: 2
Fore
SplineSet
456.747070312 352.854492188 m 1,0,1
 482 357 482 357 525.5 396 c 128,-1,2
 569 435 569 435 596.4765625 483.95703125 c 0,3,4
 643 567 643 567 619.155273438 638.29296875 c 4,5,6
 601 691 601 691 523.954101562 693.16796875 c 4,7,8
 446 695 446 695 398.822265625 628.1171875 c 4,9,10
 321 517 321 517 376.432617188 421.866210938 c 0,11,12
 406 371 406 371 456.747070312 352.854492188 c 1,0,1
835.86328125 615.111328125 m 1,13,14
 852 427 852 427 711.544921875 273.795898438 c 1,15,16
 779 252 779 252 809.1953125 247.37109375 c 0,17,18
 923.8671875 225.512695312 923.8671875 225.512695312 970 337 c 0,19,20
 1006 423 1006 423 929 515 c 0,21,22
 892 560 892 560 835.86328125 615.111328125 c 1,13,14
436.66796875 55.025390625 m 1,23,24
 259 0 259 0 44.01953125 0 c 2,25,-1
 -13.6220703125 0 l 1,26,-1
 -13.6220703125 321.279296875 l 1,27,-1
 154.608398438 320.744140625 l 1,28,29
 93 421 93 421 109.545898438 568.154296875 c 0,30,31
 126 715 126 715 228.87890625 813.334960938 c 0,32,33
 332 912 332 912 455.046875 919.522460938 c 1,34,-1
 437.755859375 932.163085938 l 1,35,-1
 592.384765625 1133.2265625 l 1,36,-1
 627.3203125 1110.1796875 l 2,37,38
 776 1012 776 1012 973.412109375 823.34375 c 0,39,40
 1180 626 1180 626 1219.37792969 474.252929688 c 0,41,42
 1254 338 1254 338 1208 220 c 0,43,44
 1139 41 1139 41 1008.50390625 -8.2451171875 c 0,45,46
 783 -92 783 -92 436.66796875 55.025390625 c 1,23,24
EndSplineSet
EndChar

StartChar: uniFEEC
Encoding: 65260 65260 249
Width: 1084
VWidth: 2438
GlyphClass: 2
Flags: W
AnchorPoint: "Anchor-7" 401.824 -618.907 basechar 0
AnchorPoint: "Anchor-10" 464.292 1137.37 basechar 0
LayerCount: 2
Fore
SplineSet
395.840820312 443.462890625 m 4,0,1
 395 364 395 364 395.912109375 320.686523438 c 5,2,-1
 423.73046875 321.046875 l 6,3,4
 491 322 491 322 535 381.5 c 4,5,6
 582 446 582 446 582.666015625 545.119140625 c 4,7,8
 583 608 583 608 568.138671875 636.361328125 c 4,9,10
 548 675 548 675 501.893554688 673.96484375 c 4,11,12
 399 671 399 671 395.840820312 443.462890625 c 4,0,1
166.302734375 320.294921875 m 5,13,14
 162 564 162 564 208.586914062 696.442382812 c 4,15,16
 286 914 286 914 505.0078125 917.72265625 c 4,17,18
 650 920 650 920 733.396484375 820.346679688 c 4,19,20
 817 720 817 720 816.642578125 562.02734375 c 4,21,22
 816 246 816 246 636.536132812 89.0419921875 c 0,23,24
 557 19 557 19 407.231445312 3.275390625 c 1,25,26
 411 -105 411 -105 436.962890625 -177.588867188 c 1,27,28
 495 -82 495 -82 621.522460938 40.75 c 0,29,30
 914.363346174 326.354367369 914.363346174 326.354367369 1061.4921875 321.334960938 c 6,31,-1
 1097.2734375 320.114257812 l 5,32,-1
 1097.2734375 1.5771484375 l 1,33,-1
 1076.48730469 0.3955078125 l 2,34,35
 911 -9 911 -9 800.310058594 -115.168945312 c 0,36,37
 684.846549421 -226.147490078 684.846549421 -226.147490078 514.813476562 -533.1953125 c 2,38,-1
 496.432617188 -566.387695312 l 1,39,40
 295 -495 295 -495 218.614257812 -260.416015625 c 0,41,42
 188 -166 188 -166 172.802734375 0 c 1,43,-1
 -12.537109375 0 l 1,44,-1
 -12.537109375 320.231445312 l 5,45,-1
 166.302734375 320.294921875 l 5,13,14
EndSplineSet
EndChar

StartChar: uniFEEE
Encoding: 65262 65262 251
Width: 935
VWidth: 2438
GlyphClass: 2
Flags: W
AnchorPoint: "Anchor-10" 470.484 1206.36 basechar 0
AnchorPoint: "Anchor-7" 491.917 -692.751 basechar 0
LayerCount: 2
Fore
SplineSet
590.682617188 308.459960938 m 1,0,1
 581.392578125 588.935546875 581.392578125 588.935546875 472.69140625 588.935546875 c 0,2,3
 432.350585938 588.935546875 432.350585938 588.935546875 391.826171875 532.822265625 c 128,-1,4
 351.302734375 476.708984375 351.302734375 476.708984375 351.34765625 415.34765625 c 128,-1,5
 351.391601562 353.987304688 351.391601562 353.987304688 381.419921875 331.149414062 c 128,-1,6
 411.44921875 308.311523438 411.44921875 308.311523438 494.366210938 308.311523438 c 128,-1,7
 577.283203125 308.311523438 577.283203125 308.311523438 590.682617188 308.459960938 c 1,0,1
552.352539062 -0.923828125 m 1,8,9
 268 -2 268 -2 168.8671875 136.78515625 c 0,10,11
 103 230 103 230 103.017578125 408.04296875 c 0,12,13
 103 549 103 549 185.5859375 684.58203125 c 0,14,15
 323 911 323 911 530.15234375 865.75 c 0,16,17
 683 832 683 832 774.965820312 649.135742188 c 0,18,19
 832 536 832 536 844.389648438 319.98046875 c 1,20,-1
 945.091796875 320.959960938 l 1,21,-1
 945.091796875 0.5498046875 l 1,22,-1
 832.375976562 0.5498046875 l 1,23,24
 787 -167 787 -167 643.087890625 -292.672851562 c 4,25,26
 492.252614359 -425.777081062 492.252614359 -425.777081062 157.768554688 -465.842773438 c 2,27,-1
 115.716796875 -470.879882812 l 1,28,-1
 69.23828125 -157.225585938 l 1,29,-1
 117.58203125 -152.231445312 l 2,30,31
 487 -114 487 -114 552.352539062 -0.923828125 c 1,8,9
EndSplineSet
EndChar

StartChar: uniFEF0
Encoding: 65264 65264 253
Width: 1573
VWidth: 2438
GlyphClass: 2
Flags: W
AnchorPoint: "Anchor-10" 663.537 647.71 basechar 0
AnchorPoint: "Anchor-7" 438.628 -694.555 basechar 0
LayerCount: 2
Fore
SplineSet
1483.88964844 0.5693359375 m 1,0,1
 1501 -36 1501 -36 1501.48144531 -78.1875 c 0,2,3
 1501 -279 1501 -279 1234.51171875 -406.185546875 c 0,4,5
 968 -533 968 -533 620.241210938 -500.228515625 c 0,6,7
 97 -451 97 -451 96.939453125 54.5078125 c 0,8,9
 97.0001109835 221.305183274 97.0001109835 221.305183274 175.369140625 426.436523438 c 2,10,-1
 189.5390625 463.526367188 l 1,11,-1
 437.081054688 402.935546875 l 1,12,-1
 422.04296875 356.810546875 l 2,13,14
 365 182 365 182 364.883789062 90.0625 c 0,15,16
 365 -201 365 -201 757.703125 -201.629882812 c 0,17,18
 1059 -202 1059 -202 1208.10644531 -71.7958984375 c 0,19,20
 1244 -40 1244 -40 1245 -21 c 4,21,22
 1246 -0 1246 -0 1224.47851562 0.552734375 c 1,23,-1
 1008.12695312 0.7607421875 l 1,24,25
 917 11 917 11 881.690429688 219.115234375 c 0,26,27
 873 270 873 270 905.869140625 302.7421875 c 0,28,29
 918 315 918 315 940.88671875 320.241210938 c 1,30,-1
 1588.29785156 320.709960938 l 1,31,-1
 1588.29785156 0.537109375 l 1,32,-1
 1483.88964844 0.5693359375 l 1,0,1
EndSplineSet
EndChar

StartChar: uniFEFB
Encoding: 65275 65275 264
Width: 1378
VWidth: 2393
GlyphClass: 3
Flags: W
AnchorPoint: "Anchor-9" 1098.31 1622.25 baselig 0
AnchorPoint: "Anchor-6" 1034.41 -141.723 baselig 0
AnchorPoint: "Anchor-6" 295.077 -200.479 baselig 1
AnchorPoint: "Anchor-9" 206.142 1471.94 baselig 1
LayerCount: 2
Fore
SplineSet
447.692382812 308.125 m 1,0,1
 435.996837895 759.121935297 435.996837895 759.121935297 125.061523438 1252.72363281 c 2,2,-1
 96.9951171875 1297.27832031 l 1,3,-1
 327.72265625 1396.3671875 l 1,4,-1
 348.532226562 1365.35449219 l 2,5,6
 661 900 661 900 693.185546875 315.888671875 c 1,7,8
 971.319535 374.066838147 971.319535 374.066838147 975.19140625 643.717773438 c 2,9,-1
 987.819335938 1523.171875 l 1,10,-1
 1245.12109375 1523.171875 l 1,11,-1
 1245.00292969 1020.94433594 l 2,12,13
 1245 574 1245 574 1214.49707031 449.641601562 c 0,14,15
 1095.08787125 -29.2237939642 1095.08787125 -29.2237939642 352.53125 4.1142578125 c 4,16,17
 223.455606127 9.97929781265 223.455606127 9.97929781265 152.416015625 31.3232421875 c 2,18,-1
 119.96484375 41.0732421875 l 1,19,-1
 122.979492188 342.9296875 l 1,20,-1
 174.798828125 334.235351562 l 2,21,22
 349 305 349 305 447.692382812 308.125 c 1,0,1
EndSplineSet
LCarets2: 1 0
Ligature2: "'rlig' Required Ligatures in Arabic lookup 16 subtable" uniFEDF uniFE8E
EndChar

StartChar: uniFEFC
Encoding: 65276 65276 265
Width: 1512
VWidth: 2393
GlyphClass: 3
Flags: W
AnchorPoint: "Anchor-9" 1105.54 1636.61 baselig 0
AnchorPoint: "Anchor-6" 1000.76 -166.981 baselig 0
AnchorPoint: "Anchor-6" 267.621 -225.737 baselig 1
AnchorPoint: "Anchor-9" 238.49 1522.8 baselig 1
LayerCount: 2
Fore
SplineSet
348.513671875 1365.37304688 m 2,0,1
 656.989110444 906.191277287 656.989110444 906.191277287 688.338867188 355.526367188 c 5,2,3
 897 424 897 424 951.163085938 618.83203125 c 0,4,5
 988.091354249 749.322811978 988.091354249 749.322811978 988.251953125 1063.265625 c 2,6,-1
 988.487304688 1523.33691406 l 1,7,-1
 1246.32714844 1523.33691406 l 1,8,-1
 1246.32714844 745.950195312 l 2,9,10
 1246 462 1246 462 1362.26855469 359.541992188 c 0,11,12
 1406.3612246 320.681640625 1406.3612246 320.681640625 1465.98046875 320.681640625 c 2,13,-1
 1522.3671875 320.681640625 l 1,14,-1
 1522.3671875 0.5498046875 l 1,15,-1
 1467.39648438 0.5498046875 l 2,16,17
 1320 1 1320 1 1220.48339844 82.701171875 c 0,18,19
 1122 165 1122 165 1083.71777344 318.047851562 c 1,20,21
 1053 264 1053 264 1021.234375 229.068359375 c 0,22,23
 814 1 814 1 402.796875 0.5498046875 c 0,24,25
 222.935234812 -0.000198046844435 222.935234812 -0.000198046844435 165.793945312 10.4091796875 c 2,26,-1
 128.858398438 17.1376953125 l 1,27,-1
 128.858398438 338.252929688 l 1,28,-1
 181.41015625 329.305664062 l 2,29,30
 348 301 348 301 445.629882812 313.341796875 c 1,31,32
 435.002578677 751.893587003 435.002578677 751.893587003 124.84765625 1253.015625 c 2,33,-1
 97.3564453125 1297.43359375 l 1,34,-1
 327.69921875 1396.35644531 l 1,35,-1
 348.513671875 1365.37304688 l 2,0,1
EndSplineSet
LCarets2: 1 0
Ligature2: "'rlig' Required Ligatures in Arabic lookup 16 subtable" uniFEE0 uniFE8E
EndChar

StartChar: arabic_dot
Encoding: 65536 -1 266
Width: 164
VWidth: 2245
GlyphClass: 2
Flags: W
LayerCount: 2
Fore
SplineSet
81.818359375 215.69921875 m 128,-1,1
 115.353225822 215.69921875 115.353225822 215.69921875 146.820629746 184.239032124 c 2,2,-1
 178.670455936 152.390182499 l 2,3,4
 243.456146246 87.6044921893 243.456146246 87.6044921893 177.354809433 21.5031553763 c 2,5,-1
 145.505277496 -10.3453999997 l 2,6,7
 82.0961921867 -73.7532354749 82.0961921867 -73.7532354749 20.3285675013 -12.5415496862 c 2,8,-1
 -12.6186981237 20.4057159388 l 2,9,10
 -79.1667137763 86.9537315901 -79.1667137763 86.9537315901 -14.2602558388 153.162697613 c 2,11,-1
 16.8168487514 184.238815312 l 2,12,0
 48.2772521902 215.69921875 48.2772521902 215.69921875 81.818359375 215.69921875 c 128,-1,1
EndSplineSet
EndChar

StartChar: arabic_2dots
Encoding: 65537 -1 267
Width: 438
VWidth: 2245
GlyphClass: 2
Flags: W
LayerCount: 2
Fore
SplineSet
418.800441156 184.259220732 m 2,0,-1
 450.703761803 152.355808305 l 2,1,2
 514.640014139 87.7647603899 514.640014139 87.7647603899 449.771798455 21.9201316127 c 2,3,-1
 417.174467991 -10.6761993624 l 2,4,5
 354.315153399 -72.2038998237 354.315153399 -72.2038998237 292.821621262 -13.0346105708 c 1,6,-1
 259.435924959 20.352067837 l 2,7,8
 191.799824551 86.9676282875 191.799824551 86.9676282875 258.065120188 153.488063307 c 2,9,-1
 288.761096656 184.183064959 l 2,10,11
 353.159779183 249.522078575 353.159779183 249.522078575 418.800441156 184.259220732 c 2,0,-1
146.800441156 184.259220732 m 2,12,-1
 178.703761803 152.355808305 l 2,13,14
 243.125110433 87.2746960395 243.125110433 87.2746960395 177.354809433 21.5031553763 c 2,15,-1
 145.479126721 -10.3715192465 l 2,16,17
 82.2940735788 -73.1831914073 82.2940735788 -73.1831914073 20.6300577596 -12.8430414336 c 2,18,-1
 -12.5640750407 20.3520678371 l 2,19,20
 -79.6960375902 86.4710972067 -79.6960375902 86.4710972067 -14.2740016435 153.148952245 c 2,21,-1
 16.7610966563 184.183064959 l 2,22,23
 81.1597791824 249.522078575 81.1597791824 249.522078575 146.800441156 184.259220732 c 2,12,-1
EndSplineSet
EndChar

StartChar: arabic_3dots
Encoding: 65538 -1 268
Width: 438
VWidth: 2245
GlyphClass: 2
Flags: W
LayerCount: 2
Fore
SplineSet
281.769838293 407.987089201 m 2,0,-1
 313.619811041 376.138093017 l 2,1,2
 378.403142619 311.353512171 378.403142619 311.353512171 312.303268436 245.252395626 c 2,3,-1
 280.453519684 213.402646875 l 2,4,5
 217.043883026 149.994260063 217.043883026 149.994260063 155.278205428 211.207054587 c 2,6,-1
 122.328762278 244.154544644 l 2,7,8
 55.3264034294 311.164311976 55.3264034294 311.164311976 121.013889818 377.235661062 c 2,9,-1
 151.764114376 407.986862186 l 2,10,11
 216.764600626 472.987348436 216.764600626 472.987348436 281.769838293 407.987089201 c 2,0,-1
420.631609398 168.8909449 m 2,12,-1
 453.616248037 135.904329279 l 2,13,14
 517.741162092 71.4597576965 517.741162092 71.4597576965 452.707703999 5.44784681301 c 2,15,-1
 420.440401493 -26.8194556699 l 2,16,17
 356.80606775 -90.4487298296 356.80606775 -90.4487298296 295.264323968 -29.0144155251 c 2,18,-1
 261.897213286 4.35170615617 l 2,19,20
 195.757982584 71.4698509678 195.757982584 71.4698509678 261.001419064 137.014205936 c 2,21,-1
 291.752669071 167.765455938 l 2,22,23
 356.40281198 232.413098841 356.40281198 232.413098841 420.631609398 168.8909449 c 2,12,-1
147.176635123 167.786348329 m 2,24,-1
 179.078919604 135.882016797 l 2,25,26
 243.500190634 70.80114343 243.500190634 70.80114343 177.729809433 5.0295225638 c 2,27,-1
 145.854274037 -26.8450050932 l 2,28,29
 82.294993871 -90.0307965741 82.294993871 -90.0307965741 20.705382464 -29.0150442868 c 2,30,-1
 -12.3731834451 4.05959992156 l 1,31,32
 -77.3939479838 71.5141651587 -77.3939479838 71.5141651587 -13.6247541354 136.948579612 c 2,33,-1
 17.1359848278 167.709318575 l 2,34,35
 81.5357033671 233.049474402 81.5357033671 233.049474402 147.176635123 167.786348329 c 2,24,-1
EndSplineSet
EndChar

StartChar: arabic_3dots_a
Encoding: 65539 -1 269
Width: 438
VWidth: 2245
GlyphClass: 2
Flags: W
LayerCount: 2
Fore
SplineSet
281.769889022 -235.484108786 m 2,0,1
 216.768430905 -300.484318843 216.768430905 -300.484318843 151.764114376 -235.483932499 c 2,2,-1
 121.005860499 -204.725659772 l 2,3,4
 55.2823897414 -138.697987452 55.2823897414 -138.697987452 122.32975365 -71.6506235433 c 2,5,-1
 155.293030376 -38.6883888234 l 2,6,7
 216.716736173 22.2090335312 216.716736173 22.2090335312 280.165563213 -40.6117607153 c 2,8,-1
 312.303268436 -72.7494659387 l 2,9,10
 378.244466083 -138.690663586 378.244466083 -138.690663586 313.61945787 -203.635516498 c 2,11,-1
 281.769889022 -235.484108786 l 2,0,1
420.169947159 3.15130176919 m 2,12,13
 356.358114868 -59.8630601941 356.358114868 -59.8630601941 291.752395528 4.73774728692 c 2,14,-1
 260.994769168 35.4953759239 l 2,15,16
 195.144506388 101.398504195 195.144506388 101.398504195 262.317058583 168.57105639 c 2,17,-1
 295.288194151 201.541118582 l 2,18,19
 357.065953918 262.690893196 357.065953918 262.690893196 420.440963749 199.320846562 c 2,20,-1
 452.289462638 167.472347671 l 2,21,22
 517.707357827 102.055691458 517.707357827 102.055691458 454.050369796 37.0307452328 c 2,23,-1
 420.169947159 3.15130176919 l 2,12,13
147.176415558 4.71733962326 m 2,24,25
 81.529867847 -60.5513772597 81.529867847 -60.5513772597 17.1366529833 4.79294469225 c 2,26,-1
 -13.8414310997 35.7720048011 l 2,27,28
 -79.4914921175 102.338723869 -79.4914921175 102.338723869 -12.1889094369 168.624658686 c 2,29,-1
 20.7212437163 201.534733329 l 2,30,31
 82.2959134482 262.531805233 82.2959134482 262.531805233 145.864653547 199.336609409 c 2,32,-1
 177.730159525 167.472080471 l 2,33,34
 242.991914587 102.209095331 242.991914587 102.209095331 179.327868137 36.8687922026 c 1,35,-1
 147.176415558 4.71733962326 l 2,24,25
EndSplineSet
EndChar

StartChar: uni066E.fina
Encoding: 65540 -1 270
Width: 2013
VWidth: 2438
GlyphClass: 2
Flags: W
AnchorPoint: "Anchor-10" 809.783 1208.02 basechar 0
AnchorPoint: "Anchor-7" 809.783 -153.254 basechar 0
LayerCount: 2
Fore
SplineSet
1975.04589844 0.5498046875 m 2,0,1
 1771.22812864 0.5498046875 1771.22812864 0.5498046875 1687.64941406 165.486328125 c 1,2,3
 1616 87 1616 87 1523.65869141 53.5942382812 c 0,4,5
 1364 -5 1364 -5 946.94921875 2.3232421875 c 1,6,7
 672 2 672 2 520.444335938 45.3828125 c 0,8,9
 312 105 312 105 204.638671875 242.229492188 c 0,10,11
 31.9592864605 463.052064515 31.9592864605 463.052064515 138.137695312 827.908203125 c 2,12,-1
 149.95703125 868.522460938 l 1,13,-1
 398.734375 812.546875 l 1,14,-1
 387.377929688 767.736328125 l 2,15,16
 300.296751073 425.167390032 300.296751073 425.167390032 623.987304688 351.859375 c 4,17,18
 747 324 747 324 972.57421875 322.1171875 c 4,19,20
 1491 316 1491 316 1562.4921875 442.588867188 c 4,21,22
 1597.6204884 504.332942598 1597.6204884 504.332942598 1601.7265625 633.717773438 c 2,23,-1
 1603.109375 677.291015625 l 1,24,-1
 1809.06054688 677.291015625 l 1,25,-1
 1825.0703125 516.396484375 l 6,26,27
 1838 385 1838 385 1889 351 c 4,28,29
 1933.46692708 320.681640625 1933.46692708 320.681640625 2003.65429688 320.681640625 c 6,30,-1
 2028.56054688 320.681640625 l 5,31,-1
 2028.56054688 0.5498046875 l 1,32,-1
 1975.04589844 0.5498046875 l 2,0,1
EndSplineSet
EndChar

StartChar: uni06A1.fina
Encoding: 65543 -1 273
Width: 2142
VWidth: 2438
GlyphClass: 2
Flags: W
AnchorPoint: "Anchor-10" 701.174 1325.53 basechar 0
AnchorPoint: "Anchor-7" 601.233 -195.536 basechar 0
LayerCount: 2
Fore
SplineSet
1491.3671875 595.997070312 m 128,-1,1
 1491.3671875 542.359375 1491.3671875 542.359375 1530.70410156 503.907226562 c 128,-1,2
 1570.04101562 465.454101562 1570.04101562 465.454101562 1626.32617188 465.454101562 c 128,-1,3
 1682.60839844 465.454101562 1682.60839844 465.454101562 1721.9453125 503.907226562 c 128,-1,4
 1761.28320312 542.360351562 1761.28320312 542.360351562 1761.13183594 595.840820312 c 0,5,6
 1761.00292969 641.76953125 1761.00292969 641.76953125 1731.52050781 678.720703125 c 0,7,8
 1695 727 1695 727 1626.82324219 726.536132812 c 0,9,10
 1570.04003906 726.536132812 1570.04003906 726.536132812 1530.703125 688.083007812 c 128,-1,0
 1491.3671875 649.630859375 1491.3671875 649.630859375 1491.3671875 595.997070312 c 128,-1,1
1358.64453125 335.5546875 m 1,11,12
 1248 448 1248 448 1248.42285156 605.420898438 c 0,13,14
 1248 838 1248 838 1459.91113281 938.750976562 c 0,15,16
 1538 976 1538 976 1627.32714844 976.7265625 c 0,17,18
 1754 978 1754 978 1837.88476562 924.061523438 c 0,19,20
 1925 868 1925 868 1965.94042969 797.861328125 c 0,21,22
 2014 716 2014 716 2014 609.5 c 0,23,24
 2014 447 2014 447 1895.265625 329.34375 c 1,25,26
 2084.97230878 320.681640625 2084.97230878 320.681640625 2094.59277344 320.681640625 c 2,27,-1
 2152.59765625 320.681640625 l 1,28,-1
 2152.59765625 0.5498046875 l 1,29,-1
 2000.51269531 0.5498046875 l 2,30,31
 1815 1 1815 1 1614.61914062 103.38671875 c 1,32,33
 1503 46 1503 46 1361.80175781 23.0454101562 c 0,34,35
 1221 0 1221 0 947.340820312 0 c 0,36,37
 674 0 674 0 490.681152344 49.7875976562 c 0,38,39
 307 100 307 100 202.236134222 238.14751279 c 0,40,41
 97 377 97 377 96.0078125 593.786132812 c 0,42,43
 96.0000176333 703.751240418 96.0000176333 703.751240418 138.442382812 823.333984375 c 2,44,-1
 151.431640625 859.931640625 l 1,45,-1
 399.844726562 811.069335938 l 1,46,-1
 387.71484375 766.619140625 l 2,47,48
 366 687 366 687 366.864257812 616.559570312 c 4,49,50
 368 522 368 522 430.578125 447.907226562 c 0,51,52
 495 373 495 373 637.793945312 344.469726562 c 0,53,54
 786 315 786 315 1196.93164062 324.860351562 c 0,55,56
 1287 327 1287 327 1358.64453125 335.5546875 c 1,11,12
EndSplineSet
EndChar

StartChar: uni06A1.init
Encoding: 65544 -1 274
Width: 902
VWidth: 2438
GlyphClass: 2
Flags: W
AnchorPoint: "Anchor-10" 405.049 1379.34 basechar 0
AnchorPoint: "Anchor-7" 377.594 -143.369 basechar 0
LayerCount: 2
Fore
SplineSet
-11.42578125 312.243164062 m 1,0,-1
 100.717773438 312.243164062 l 2,1,2
 351.028910408 311.992974504 351.028910408 311.992974504 420.583984375 334.162109375 c 0,3,4
 464 348 464 348 485.220703125 374.704101562 c 5,5,6
 228 361 228 361 126.005859375 504.350585938 c 4,7,8
 -4 687 -4 687 115.229492188 947.275390625 c 4,9,10
 234 1207 234 1207 443.567382812 1207.06152344 c 132,-1,11
 653 1207 653 1207 754.890625 938.791992188 c 4,12,13
 805 807 805 807 804.943359375 645.947265625 c 4,14,15
 805 283 805 283 636.633918827 141.409853985 c 0,16,17
 468 0 468 0 175.1875 0 c 2,18,-1
 -11.42578125 0 l 1,19,-1
 -11.42578125 312.243164062 l 1,0,-1
550.989257812 636.120117188 m 5,20,21
 544 921 544 921 433.372070312 921.6171875 c 4,22,23
 379 922 379 922 340.58203125 847.37109375 c 4,24,25
 303 773 303 773 312.72265625 705.1484375 c 4,26,27
 324 628 324 628 440.307617188 627.668945312 c 4,28,29
 484 628 484 628 550.989257812 636.120117188 c 5,20,21
EndSplineSet
EndChar

StartChar: uni06A1.medi
Encoding: 65545 -1 275
Width: 1070
VWidth: 2438
GlyphClass: 2
Flags: W
AnchorPoint: "Anchor-10" 535.245 1149.26 basechar 0
AnchorPoint: "Anchor-7" 535.245 -143.369 basechar 0
LayerCount: 2
Fore
SplineSet
402.234375 598.638671875 m 132,-1,1
 402.234375 545.000976562 402.234375 545.000976562 441.571289062 506.548828125 c 132,-1,2
 480.908203125 468.095703125 480.908203125 468.095703125 537.193359375 468.095703125 c 132,-1,3
 593.475585938 468.095703125 593.475585938 468.095703125 632.8125 506.548828125 c 132,-1,4
 672.150390625 545.001953125 672.150390625 545.001953125 671.999023438 598.482421875 c 4,5,6
 671.861328125 647.438476562 671.861328125 647.438476562 642.387695312 681.362304688 c 4,7,8
 603 729 603 729 537.690429688 729.177734375 c 4,9,10
 480.907226562 729.177734375 480.907226562 729.177734375 441.5703125 690.724609375 c 132,-1,0
 402.234375 652.272460938 402.234375 652.272460938 402.234375 598.638671875 c 132,-1,1
906.87109375 0 m 2,11,12
 716.533907718 -0.706916196972 716.533907718 -0.706916196972 537.8671875 111.640625 c 1,13,14
 358 0 358 0 203.345703125 0 c 2,15,-1
 -9.3515625 0 l 1,16,-1
 -9.3515625 320.243164062 l 5,17,-1
 52.5810546875 320.243164062 l 6,18,19
 233 320 233 320 271.061523438 332.703125 c 5,20,21
 154 446 154 446 154.047851562 608.046875 c 4,22,23
 154 847 154 847 374.705078125 943.991210938 c 4,24,25
 500 999 500 999 652.676757812 959.912109375 c 4,26,27
 696 949 696 949 730.96484375 929.9140625 c 4,28,29
 920 826 920 826 919.69140625 605.637695312 c 4,30,31
 920 447 920 447 798.04296875 328.81640625 c 5,32,33
 900.478065414 318.95397194 900.478065414 318.95397194 1018.26464844 320.2421875 c 6,34,-1
 1080.41113281 320.921875 l 5,35,-1
 1080.41113281 0.64453125 l 1,36,-1
 906.87109375 0 l 2,11,12
EndSplineSet
EndChar

StartChar: uni066F.fina
Encoding: 65546 -1 276
Width: 1611
VWidth: 2393
GlyphClass: 2
Flags: W
AnchorPoint: "Anchor-10" 468.318 1031.75 basechar 0
AnchorPoint: "Anchor-7" 577.753 -605.531 basechar 0
LayerCount: 2
Fore
SplineSet
1250.94726562 322.376953125 m 1,0,1
 1241.65722656 602.852539062 1241.65722656 602.852539062 1132.95605469 602.852539062 c 0,2,3
 1092.61523438 602.852539062 1092.61523438 602.852539062 1052.09082031 546.739257812 c 128,-1,4
 1011.56738281 490.625976562 1011.56738281 490.625976562 1011.61132812 429.264648438 c 128,-1,5
 1011.65625 367.904296875 1011.65625 367.904296875 1041.68457031 345.06640625 c 128,-1,6
 1071.71386719 322.228515625 1071.71386719 322.228515625 1154.63085938 322.228515625 c 128,-1,7
 1237.54785156 322.228515625 1237.54785156 322.228515625 1250.94726562 322.376953125 c 1,0,1
1489.89160156 0.5498046875 m 1,8,9
 1453 -238 1453 -238 1282.67675781 -358.983398438 c 0,10,11
 1113 -480 1113 -480 804.293945312 -479.88671875 c 0,12,13
 317 -480 317 -480 168.888183594 -197.300292969 c 128,-1,14
 20.7823672427 85.4154340776 20.7823672427 85.4154340776 177.301757812 541.671875 c 2,15,-1
 190.263671875 579.456054688 l 1,16,-1
 443.586914062 525.037109375 l 1,17,-1
 427.127929688 477.081054688 l 2,18,19
 360 282 360 282 360.333007812 125.481445312 c 4,20,21
 361 -171 361 -171 807.186523438 -171.268554688 c 4,22,23
 1199 -171 1199 -171 1237.90039062 1.05078125 c 1,24,-1
 1124.4296875 1.16015625 l 1,25,26
 922 4 922 4 826.522460938 133.456054688 c 0,27,28
 681 333 681 333 813.145507812 623.366210938 c 0,29,30
 932 884 932 884 1123.83886719 883.967773438 c 0,31,32
 1489 884 1489 884 1504.17285156 320.94921875 c 1,33,-1
 1621.99902344 320.556640625 l 1,34,-1
 1621.99902344 0.5498046875 l 1,35,-1
 1489.89160156 0.5498046875 l 1,8,9
EndSplineSet
EndChar

StartChar: arabic_ring
Encoding: 65549 -1 279
Width: 452
VWidth: 2286
GlyphClass: 2
Flags: W
LayerCount: 2
Fore
SplineSet
232.2265625 348.141601562 m 0,0,1
 195 348 195 348 175.522460938 323 c 0,2,3
 161 304 161 304 160.46484375 278.866210938 c 4,4,5
 160 249 160 249 179.893554688 229.9609375 c 0,6,7
 199 211 199 211 230.994140625 210.763671875 c 0,8,9
 261 211 261 211 280.17578125 230.431640625 c 0,10,11
 300 250 300 250 299.84375 279.020019531 c 0,12,13
 300 316 300 316 277.5 333 c 0,14,15
 257 348 257 348 232.2265625 348.141601562 c 0,0,1
509.509765625 279.453125 m 128,-1,17
 509.509765625 162.811523438 509.509765625 162.811523438 428.8125 81.478515625 c 128,-1,18
 347.969726562 0 347.969726562 0 231.154296875 0 c 128,-1,19
 114.372070312 0 114.372070312 0 33.5126953125 81.49609375 c 128,-1,20
 -47.2001953125 162.844726562 -47.2001953125 162.844726562 -47.2001953125 279.453125 c 128,-1,21
 -47.2001953125 396.1640625 -47.2001953125 396.1640625 33.62109375 476.985351562 c 128,-1,22
 114.442382812 557.807617188 114.442382812 557.807617188 231.154296875 557.807617188 c 128,-1,23
 347.695930223 557.807617188 347.695930223 557.807617188 429.23828125 477.536132812 c 0,24,16
 509.509765625 395.989496816 509.509765625 395.989496816 509.509765625 279.453125 c 128,-1,17
EndSplineSet
EndChar

StartChar: arabic_gaf_bar
Encoding: 65550 -1 280
Width: 613
VWidth: 2241
GlyphClass: 2
Flags: W
LayerCount: 2
Fore
SplineSet
606 1802 m 5,0,-1
 -2.2001953125 1499.24511719 l 5,1,-1
 -2.2001953125 1622.02539062 l 5,2,-1
 606 1924.77929688 l 5,3,-1
 606 1802 l 5,0,-1
EndSplineSet
EndChar

StartChar: uni066E.init.math
Encoding: 65560 -1 290
Width: 934
VWidth: 2438
GlyphClass: 2
Flags: W
LayerCount: 2
Fore
SplineSet
653.862304688 118.850585938 m 0,0,1
 562.166992188 9.3349609375 562.166992188 9.3349609375 366.676757812 9.3349609375 c 2,2,-1
 -56.42578125 9.3349609375 l 1,3,-1
 -56.42578125 272.681640625 l 1,4,-1
 302.045898438 272.681640625 l 2,5,6
 303.942382812 272.681640625 303.942382812 272.681640625 305.822265625 272.696289062 c 128,-1,7
 307.702148438 272.7109375 307.702148438 272.7109375 309.557617188 272.739257812 c 128,-1,8
 311.413085938 272.768554688 311.413085938 272.768554688 313.249023438 272.811523438 c 128,-1,9
 315.083984375 272.85546875 315.083984375 272.85546875 316.897460938 272.913085938 c 128,-1,10
 318.7109375 272.970703125 318.7109375 272.970703125 320.5 273.041992188 c 128,-1,11
 322.2890625 273.114257812 322.2890625 273.114257812 324.05859375 273.200195312 c 0,12,13
 329.348632812 273.45703125 329.348632812 273.45703125 334.470703125 273.840820312 c 128,-1,14
 339.592773438 274.225585938 339.592773438 274.225585938 344.530273438 274.733398438 c 0,15,16
 354.310546875 275.741210938 354.310546875 275.741210938 363.44140625 277.2421875 c 128,-1,17
 372.42578125 278.71875 372.42578125 278.71875 380.783203125 280.673828125 c 2,18,-1
 396.565429688 284.970703125 l 2,19,20
 408.8046875 288.810546875 408.8046875 288.810546875 419.362304688 293.864257812 c 0,21,22
 429.514648438 298.723632812 429.514648438 298.723632812 438.14453125 304.73828125 c 0,23,24
 446.5 310.561523438 446.5 310.561523438 453.42578125 317.487304688 c 0,25,26
 504.10546875 368.165039062 504.10546875 368.165039062 504.10546875 482.967773438 c 2,27,-1
 504.10546875 761.530273438 l 1,28,-1
 767.453125 761.530273438 l 1,29,-1
 767.453125 482.911132812 l 2,30,31
 767.357421875 445.372070312 767.357421875 445.372070312 764.302734375 410.53125 c 128,-1,32
 761.248046875 375.690429688 761.248046875 375.690429688 755.080078125 342.861328125 c 128,-1,33
 748.912109375 310.033203125 748.912109375 310.033203125 739.627929688 279.717773438 c 0,34,35
 711.15234375 187.350585938 711.15234375 187.350585938 653.862304688 118.850585938 c 0,0,1
EndSplineSet
EndChar

StartChar: guillemotleft
Encoding: 171 171 291
Width: 1320
VWidth: 38
Flags: W
LayerCount: 2
Fore
SplineSet
1131.57714844 1105.97460938 m 1,0,-1
 1131.57714844 782.525390625 l 1,1,-1
 909.416015625 592.747070312 l 1,2,3
 864.667785234 552.594300184 864.667785234 552.594300184 873.886980173 527.071503388 c 128,-1,4
 883.106175112 501.548706592 883.106175112 501.548706592 913.799804688 474.036132812 c 1,5,-1
 1131.57714844 288.171875 l 1,6,-1
 1131.57714844 -35.283203125 l 1,7,-1
 753.889648438 288.795898438 l 2,8,9
 642.926208675 382.700935921 642.926208675 382.700935921 622.623260588 472.796268741 c 0,10,11
 585.142594698 639.118570955 585.142594698 639.118570955 756.203125 783.844726562 c 1,12,-1
 1131.57714844 1105.97460938 l 1,0,-1
672.689453125 1104.65429688 m 1,13,-1
 672.689453125 781.938476562 l 1,14,-1
 441.005859375 592.453125 l 1,15,16
 377.347441339 535.324968651 377.347441339 535.324968651 445.379882812 474.33984375 c 1,17,-1
 672.689453125 288.771484375 l 1,18,-1
 672.689453125 -33.9970703125 l 1,19,-1
 288.466796875 289.022460938 l 1,20,21
 97.5934834675 459.132067352 97.5934834675 459.132067352 179.134765625 640.434570312 c 0,22,23
 212.002929688 713.514648438 212.002929688 713.514648438 290.665039062 783.622070312 c 1,24,-1
 672.689453125 1104.65429688 l 1,13,-1
EndSplineSet
EndChar

StartChar: guillemotright
Encoding: 187 187 292
Width: 1311
VWidth: 38
Flags: W
LayerCount: 2
Fore
SplineSet
188.875976562 1105.97460938 m 1,0,-1
 564.249023438 783.845703125 l 1,1,2
 721.098523578 651.148548842 721.098523578 651.148548842 704.380859375 508.28515625 c 0,3,4
 691.019053396 394.094846802 691.019053396 394.094846802 566.5625 288.796875 c 1,5,-1
 188.875976562 -35.283203125 l 1,6,-1
 188.875976562 288.171875 l 1,7,-1
 406.662109375 474.043945312 l 1,8,9
 450.30854454 513.147588261 450.30854454 513.147588261 447.793140212 537.715698599 c 128,-1,10
 445.277735883 562.283808937 445.277735883 562.283808937 411.140625 592.658203125 c 2,11,-1
 188.875976562 782.525390625 l 1,12,-1
 188.875976562 1105.97460938 l 1,0,-1
647.763671875 1104.65429688 m 1,13,-1
 1029.78710938 783.623046875 l 1,14,15
 1308.36247806 535.348438232 1308.36247806 535.348438232 1031.98730469 289.0234375 c 1,16,-1
 647.763671875 -33.9970703125 l 1,17,-1
 647.763671875 288.771484375 l 1,18,-1
 875.069335938 474.3359375 l 1,19,20
 943.092977752 535.332605454 943.092977752 535.332605454 879.448242188 592.452148438 c 1,21,-1
 647.763671875 781.938476562 l 1,22,-1
 647.763671875 1104.65429688 l 1,13,-1
EndSplineSet
EndChar

